<?xml version="1.0" encoding="UTF-8"?>
<svg width="214px" height="206px" viewBox="0 0 214 206" version="1.1" xmlns="http://www.w3.org/2000/svg" xmlns:xlink="http://www.w3.org/1999/xlink">
    <title>Group 4 Copy</title>
    <g id="Page-1" stroke="none" stroke-width="1" fill="none" fill-rule="evenodd">
        <g id="Group-4-Copy" transform="translate(3, 3)" fill="#000000" fill-rule="nonzero">
            <path d="M104.5,-2.91517857 C106.432997,-2.91517857 108,-1.3481752 108,0.584821429 L108,130.415179 C108,132.348175 106.432997,133.915179 104.5,133.915179 C102.567003,133.915179 101,132.348175 101,130.415179 L101,0.584821429 C101,-1.3481752 102.567003,-2.91517857 104.5,-2.91517857 Z" id="Line-Copy-11"></path>
            <path d="M104.5,154 C106.432997,154 108,155.567003 108,157.5 L108,199.418605 C108,201.351601 106.432997,202.918605 104.5,202.918605 C102.567003,202.918605 101,201.351601 101,199.418605 L101,157.5 C101,155.567003 102.567003,154 104.5,154 Z" id="Line-Copy-12"></path>
            <path d="M131.275779,26.6472716 C132.02287,24.8644843 134.073742,24.0248868 135.856529,24.771978 C137.639316,25.5190693 138.478914,27.5699411 137.731823,29.3527284 L106.572515,103.708328 C105.825424,105.491116 103.774552,106.330713 101.991765,105.583622 C100.208977,104.836531 99.3693797,102.785659 100.116471,101.002872 L131.275779,26.6472716 Z" id="Line-Copy-13"></path>
            <path d="M101.427485,26.6472716 C102.174576,24.8644843 104.225448,24.0248868 106.008235,24.771978 C107.791023,25.5190693 108.63062,27.5699411 107.883529,29.3527284 L76.7242212,103.708328 C75.97713,105.491116 73.9262582,106.330713 72.1434709,105.583622 C70.3606836,104.836531 69.521086,102.785659 70.2681773,101.002872 L101.427485,26.6472716 Z" id="Line-Copy-14" transform="translate(89.0759, 65.1778) scale(-1, 1) translate(-89.0759, -65.1778)"></path>
            <path d="M95.8354105,27.0693513 C97.2022455,25.7025162 99.4183229,25.7025162 100.785158,27.0693513 C102.151993,28.4361863 102.151993,30.6522637 100.785158,32.0190987 L31.9715986,100.832658 C30.6047636,102.199493 28.3886862,102.199493 27.0218512,100.832658 C25.6550161,99.465823 25.6550161,97.2497456 27.0218512,95.8829106 L95.8354105,27.0693513 Z" id="Line-Copy-15" transform="translate(63.9035, 63.951) scale(-1, 1) translate(-63.9035, -63.951)"></path>
            <path d="M103.461246,69.8573543 C105.245094,69.112801 107.294769,69.9553165 108.039322,71.7391653 C108.783876,73.5230141 107.94136,75.5726889 106.157511,76.3172421 L32.3293863,107.132057 C30.5455376,107.87661 28.4958628,107.034095 27.7513095,105.250246 C27.0067563,103.466397 27.8492718,101.416722 29.6331205,100.672169 L103.461246,69.8573543 Z" id="Line-Copy-16" transform="translate(67.8953, 88.4947) scale(-1, 1) translate(-67.8953, -88.4947)"></path>
            <path d="M27.5606879,101.641278 C28.3052412,99.8574296 30.354916,99.0149141 32.1387648,99.7594673 L105.96689,130.574282 C107.750739,131.318835 108.593254,133.36851 107.848701,135.152359 C107.104148,136.936208 105.054473,137.778723 103.270624,137.03417 L29.442499,106.219355 C27.6586502,105.474802 26.8161347,103.425127 27.5606879,101.641278 Z" id="Line-Copy-17" transform="translate(67.7047, 118.3968) scale(-1, 1) translate(-67.7047, -118.3968)"></path>
            <path d="M26.9281287,101.335258 C28.2878106,99.9613075 30.5038578,99.9497402 31.8778087,101.309422 L106.461922,175.118946 C107.835873,176.478628 107.84744,178.694675 106.487758,180.068626 C105.128076,181.442577 102.912029,181.454144 101.538078,180.094462 L26.9539652,106.284939 C25.5800142,104.925257 25.5684468,102.709209 26.9281287,101.335258 Z" id="Line-Copy-18" transform="translate(66.7079, 140.7019) scale(-1, 1) translate(-66.7079, -140.7019)"></path>
            <path d="M104.805314,99.3348157 C106.73831,99.3332819 108.306557,100.89904 108.308093,102.832036 C108.309627,104.765033 106.743869,106.33328 104.810873,106.334816 L0.798741184,106.417408 C-1.13425483,106.418942 -2.70250201,104.853183 -2.70403806,102.920187 C-2.70557185,100.987191 -1.13981327,99.4189439 0.793182748,99.417409 L104.805314,99.3348157 Z" id="Line-Copy-19" transform="translate(52.802, 102.8761) scale(-1, 1) translate(-52.802, -102.8761)"></path>
            <path d="M176.028401,27.0693513 C177.395236,25.7025162 179.611314,25.7025162 180.978149,27.0693513 C182.344984,28.4361863 182.344984,30.6522637 180.978149,32.0190987 L112.16459,100.832658 C110.797754,102.199493 108.581677,102.199493 107.214842,100.832658 C105.848007,99.465823 105.848007,97.2497456 107.214842,95.8829106 L176.028401,27.0693513 Z" id="Line-Copy-20"></path>
            <path d="M175.670614,69.8573543 C177.454462,69.112801 179.504137,69.9553165 180.24869,71.7391653 C180.993244,73.5230141 180.150728,75.5726889 178.366879,76.3172421 L104.538754,107.132057 C102.754906,107.87661 100.705231,107.034095 99.9606777,105.250246 C99.2161244,103.466397 100.05864,101.416722 101.842489,100.672169 L175.670614,69.8573543 Z" id="Line-Copy-21"></path>
            <path d="M100.151299,101.641278 C100.895852,99.8574296 102.945527,99.0149141 104.729376,99.7594673 L178.557501,130.574282 C180.34135,131.318835 181.183865,133.36851 180.439312,135.152359 C179.694759,136.936208 177.645084,137.778723 175.861235,137.03417 L102.03311,106.219355 C100.249261,105.474802 99.406746,103.425127 100.151299,101.641278 Z" id="Line-Copy-22"></path>
            <path d="M102.299715,101.322307 C103.666551,99.9554715 105.882628,99.9554715 107.249463,101.322307 L181.058987,175.13183 C182.425822,176.498665 182.425822,178.714743 181.058987,180.081578 C179.692152,181.448413 177.476074,181.448413 176.109239,180.081578 L102.299715,106.272054 C100.93288,104.905219 100.93288,102.689142 102.299715,101.322307 Z" id="Line-Copy-23"></path>
            <path d="M207.201259,99.3348157 C209.134255,99.3332819 210.702502,100.89904 210.704038,102.832036 C210.705572,104.765033 209.139813,106.33328 207.206817,106.334816 L103.194686,106.417408 C101.26169,106.418942 99.6934427,104.853183 99.6919066,102.920187 C99.6903728,100.987191 101.256131,99.4189439 103.189127,99.417409 L207.201259,99.3348157 Z" id="Line-Copy-24"></path>
        </g>
    </g>
</svg>