<?xml version="1.0" encoding="UTF-8"?>
<svg width="523px" height="102px" viewBox="0 0 523 102" version="1.1" xmlns="http://www.w3.org/2000/svg" xmlns:xlink="http://www.w3.org/1999/xlink">
    <title>Group 12</title>
    <defs>
        <rect id="path-1" x="0" y="0" width="91" height="91" rx="34"></rect>
    </defs>
    <g id="Page-1" stroke="none" stroke-width="1" fill="none" fill-rule="evenodd">
        <g id="Group-12">
            <g id="Group-9-Copy-2">
                <mask id="mask-2" fill="white">
                    <use xlink:href="#path-1"></use>
                </mask>
                <use id="Mask" fill="#7C3AEE" xlink:href="#path-1"></use>
                <g id="llama" mask="url(#mask-2)" fill="#FFFFFF" fill-rule="nonzero">
                    <g transform="translate(-93, 8)">
                        <path d="M32.7697325,0.447732377 C35.0555645,-0.6173991 38.7712712,0.27393343 41.4342491,2.52623702 C41.8973004,2.9179112 42.9022757,3.88260069 43.9682552,4.93925294 L44.4628261,5.43171683 C45.7013267,6.67044295 46.9225415,7.93307322 47.3876881,8.48062164 C49.3439274,10.7841387 51.5417586,13.7528863 51.5417586,14.0923118 C51.5417586,14.2514005 51.6734864,14.4600682 51.8347299,14.5559573 C51.9959735,14.6518463 52.4091941,15.2206429 52.7535447,15.8199496 C53.0973488,16.4192563 53.4515379,16.9608116 53.5400852,17.0229216 C53.6286325,17.0855763 53.8100997,17.3797815 53.9445605,17.6767107 C54.0784746,17.9741848 54.421732,18.6094499 54.7075977,19.0888953 C54.9934633,19.5683406 55.5373186,20.5724518 55.9161043,21.3204955 C56.2948899,22.0679945 56.6878868,22.7310457 56.7890056,22.7937004 C56.890671,22.8563552 57.0371567,23.1941463 57.1142256,23.5439234 C57.1912946,23.8937006 57.3853334,24.2886983 57.5454837,24.4210906 L57.5998764,24.4760745 C57.7470668,24.6503943 57.9070215,25.0363182 57.9745555,25.3946916 L58.0045002,25.5303364 C58.096087,25.8941206 58.2768796,26.2641706 58.4347828,26.3944441 C58.6118774,26.5410019 58.7567232,26.7965245 58.7567232,26.9616062 C58.7567232,27.1272328 58.953495,27.6290159 59.1939939,28.0763167 C59.4344927,28.5230726 59.6312644,29.0134145 59.6312644,29.1659652 C59.6312644,29.3179713 59.8280362,29.8083131 60.068535,30.2556139 C60.3090338,30.7023697 60.5058056,31.2226769 60.5058056,31.411731 C60.5058056,31.6002402 60.6501049,31.9445691 60.8266529,32.1777539 C61.0032009,32.4103939 61.1513263,32.7966743 61.1562456,33.036397 C61.1606183,33.2761197 61.3240482,33.7664615 61.5197268,34.1260456 C61.7148588,34.4856295 61.9526246,35.123074 62.047731,35.5425886 C62.1428374,35.9621034 62.3866157,36.7956846 62.5888533,37.3949913 C63.318002,39.5541299 63.3939778,39.8096525 63.6590731,40.9908315 C63.8071985,41.6500689 64.0438712,42.4035609 64.1848909,42.6656213 C64.3259107,42.927137 64.4412409,43.3956859 64.4412409,43.7062357 C64.4412409,44.0167857 64.6380126,44.8285738 64.8785114,45.5106938 C65.1190102,46.1928138 65.3201547,47.0977669 65.3256206,47.5210954 C65.3305399,47.9449687 65.4786653,48.6837504 65.6546667,49.1631958 C65.8306681,49.6426412 66.0323592,50.6233248 66.1034156,51.342493 L66.1279957,51.5653261 C66.2115745,52.2527854 66.379716,53.0902892 66.5248352,53.5217901 C66.6855321,54.0012355 66.8779312,55.1780559 66.9522671,56.1369466 C67.0266032,57.0958374 67.2200954,58.4197604 67.3818856,59.0789978 C67.5436756,59.7382352 67.740994,61.4506179 67.8197027,62.8845954 C67.8984114,64.3180281 68.0662139,65.6152547 68.1919293,65.7667159 C68.5499445,66.1968546 68.7251261,74.0662966 68.721095,82.1224772 L68.7184347,83.5730398 C68.6944425,91.1423709 68.5122901,98.4922024 68.1749851,99.5986693 C68.0498163,100.010012 67.8923989,101.530071 67.8246219,102.97658 C67.7573916,104.423633 67.5425825,106.517938 67.3479971,107.630469 C67.0697836,109.218087 67.0506531,109.711698 67.2589032,109.918731 C67.4633272,110.12304 73.7955518,110.192777 95.0064546,110.225467 C113.87468,110.253798 123.002704,110.34315 124.128676,110.509865 C125.030546,110.643347 127.071507,110.841664 128.664811,110.950628 C130.257569,111.059048 131.747569,111.247557 131.975496,111.369598 C132.203424,111.491094 133.261618,111.691044 134.326372,111.814175 C135.391672,111.937305 136.656478,112.180297 137.137476,112.35464 C137.618473,112.52844 138.385883,112.674997 138.842831,112.679901 C139.299778,112.685349 139.94038,112.827548 140.266693,112.995354 C140.593006,113.163705 141.327074,113.371283 141.898259,113.456276 C142.469444,113.541813 142.986516,113.691639 143.047187,113.789708 C143.107858,113.887776 143.721677,114.084458 144.410925,114.226657 C145.100173,114.369401 145.85829,114.621109 146.09551,114.786191 C146.332729,114.951818 146.674893,115.086934 146.856361,115.086934 C147.735821,115.086934 155.113122,118.435424 156.585632,119.502735 C156.896174,119.727728 157.421379,120.077154 157.966025,120.42798 L158.293583,120.637659 C159.110504,121.157353 159.883319,121.624826 159.953161,121.624826 C160.037336,121.624826 160.263624,121.796446 160.456022,122.006202 C160.648421,122.21596 161.235457,122.730819 161.760728,123.150333 C164.616105,125.431513 167.045144,128.186145 169.427175,131.845729 C169.800495,132.418884 170.91936,134.654298 171.48344,135.953705 C171.652882,136.343254 171.936015,136.980698 172.113656,137.370247 C173.305765,139.990852 173.292647,145.540432 172.0907,146.921562 C171.92563,147.111161 171.791169,147.365049 171.791169,147.486 C171.791169,147.606951 171.337501,148.138155 170.783261,148.667179 C170.484824,148.952039 170.169587,149.258697 169.911879,149.513834 L169.61809,149.807707 C169.534627,149.892353 169.467581,149.961765 169.422803,150.010171 C169.228764,150.219928 168.917208,150.391548 168.730275,150.391548 C168.543342,150.391548 168.194072,150.528299 167.954666,150.69556 C167.050063,151.327556 164.58167,151.764506 162.675717,151.629934 C160.481712,151.475748 160.428147,151.532955 160.409016,154.027705 C160.40191,154.964258 160.300792,156.221168 160.184914,156.820475 C160.068492,157.419781 159.872813,158.792738 159.74983,159.871491 C159.626848,160.950243 159.424064,162.274165 159.299442,162.813542 C159.174819,163.352917 158.943613,164.774909 158.785102,165.973522 C158.627138,167.172136 158.390465,168.790264 158.259285,169.569363 C157.945543,171.429393 157.94609,177.207799 158.259831,177.999974 C158.393745,178.33722 158.631511,179.103788 158.788382,179.703095 C159.204882,181.291802 159.755297,182.704531 160.111125,183.097894 C160.282207,183.287493 160.422133,183.558271 160.422133,183.699926 C160.422133,183.936379 161.165494,185.072882 162.583343,187.00374 C162.809413,187.311384 163.363816,187.945424 163.964819,188.590871 L164.295567,188.942171 C164.406228,189.058386 164.516736,189.173084 164.625397,189.284374 C165.439813,190.119045 166.106651,190.955351 166.106651,191.14277 C166.106651,191.330189 166.254777,191.693587 166.435697,191.951289 C166.683302,192.30379 166.710631,192.559313 166.547201,192.988635 C166.427499,193.301908 166.232366,194.831775 166.113757,196.388338 C165.995147,197.944901 165.800015,199.400671 165.680312,199.62296 C165.561156,199.845793 165.401006,200.995373 165.325031,202.178186 C165.249055,203.361544 165.058295,204.868528 164.901424,205.527766 C164.744007,206.187003 164.551061,207.608994 164.471806,208.687746 C164.393097,209.766499 164.191953,211.384626 164.025244,212.283587 C163.858534,213.182547 163.666135,214.835544 163.597812,215.957337 C163.529488,217.078586 163.380816,218.168779 163.267672,218.379625 C163.154528,218.590473 162.963769,219.928561 162.844066,221.352732 C162.723817,222.777447 162.522672,224.286066 162.396957,224.705581 C162.271242,225.125095 162.106719,226.449018 162.031836,227.647632 C161.944382,229.044017 161.748157,230.155457 161.486341,230.741144 C161.261693,231.244017 161.07804,231.758876 161.07804,231.885275 C161.07804,232.011674 160.970362,232.115191 160.839181,232.115191 C160.707999,232.115191 160.350531,232.311327 160.044441,232.55105 C159.35246,233.093695 157.349214,233.161798 156.845807,232.660015 C156.665433,232.480223 156.416189,232.333121 156.291567,232.333121 C156.166945,232.333121 155.948309,232.112467 155.80565,231.842778 C155.663537,231.573091 155.438342,231.281609 155.306068,231.195527 C154.995059,230.992308 155.05573,227.437329 155.384777,226.578141 C155.518144,226.229999 155.720382,224.731732 155.834072,223.249265 C155.947216,221.766253 156.128137,220.384034 156.235814,220.177546 C156.343493,219.971057 156.502003,218.783885 156.588364,217.538962 C156.674179,216.294583 156.872043,214.774523 157.028367,214.161052 L157.058025,214.035736 C157.20837,213.358642 157.386758,211.945558 157.466185,210.773334 C157.550905,209.523507 157.713243,208.25788 157.826387,207.960951 C157.93953,207.663477 158.125371,206.207706 158.23906,204.725239 C158.352204,203.242228 158.53859,201.856194 158.652281,201.644258 C158.765972,201.432321 158.96329,199.959662 159.091191,198.371498 C159.219093,196.783881 159.42625,195.292697 159.552512,195.057877 C159.848216,194.507605 159.636686,194.117511 157.864647,191.947476 C156.633184,190.438857 155.538915,188.935687 155.154663,188.224146 C155.083606,188.092299 154.909245,187.788287 154.767679,187.548564 C154.626113,187.308841 154.365936,186.800521 154.189935,186.419143 C154.013933,186.037767 153.769608,185.664562 153.647719,185.589376 C153.52583,185.51419 153.425804,185.261936 153.425804,185.028751 C153.425804,184.795567 153.229032,184.238756 152.988534,183.791456 C152.748035,183.3447 152.550717,182.731773 152.55017,182.430485 C152.549077,182.129197 152.391659,181.588186 152.199807,181.228602 C151.247104,179.443213 151.182606,167.543706 152.112353,165.105618 C152.242987,164.763468 152.442493,163.516365 152.55509,162.335186 C152.668233,161.153462 152.860633,160.000614 152.982521,159.773422 C153.858702,158.141674 153.793658,144.552121 152.901079,142.872973 C152.710321,142.513389 152.55345,142.038302 152.552357,141.817103 C152.55181,141.595905 152.411337,141.154597 152.240255,140.836419 C149.947863,136.572625 150.81366,133.61096 154.352818,133.61096 C155.883265,133.61096 158.017146,135.79734 158.017146,137.365344 C158.017146,137.548405 158.1527,137.809921 158.317769,137.947217 C158.483386,138.083967 158.67961,138.578123 158.754493,139.045037 C158.829922,139.511952 159.026694,140.172278 159.19231,140.511705 C159.357927,140.851675 159.72742,141.605167 160.012739,142.187039 C162.455442,147.166188 168.050319,145.089318 165.868339,140.01319 C165.212433,138.487137 163.639352,135.265047 163.4874,135.136468 C163.458978,135.112496 163.371087,134.996644 163.245765,134.820505 L163.108783,134.62544 C162.936318,134.377148 162.722906,134.06113 162.503542,133.727552 C161.507658,132.214031 158.438019,129.081291 156.705334,127.81076 C154.875356,126.468314 153.376065,125.45821 152.769899,125.159101 C152.469275,125.010364 151.928152,124.695456 151.567405,124.459002 C151.206656,124.222003 150.665534,123.923984 150.364911,123.79595 C149.141099,123.275643 147.815623,122.675247 147.231867,122.376683 C146.891342,122.202884 146.472656,122.060685 146.301574,122.060685 C146.130492,122.060685 145.623258,121.864548 145.174509,121.624826 C144.726307,121.385103 144.157855,121.188966 143.912437,121.188966 C143.667018,121.188966 143.271835,121.056574 143.034616,120.894217 C142.797397,120.732403 142.16554,120.531908 141.630431,120.449095 C141.09532,120.365736 140.539441,120.200655 140.395141,120.081338 C140.250842,119.962022 139.511308,119.764251 138.752097,119.642755 L138.58995,119.615623 C137.891067,119.494034 137.25261,119.323255 137.129277,119.221061 C136.996456,119.111006 136.100597,118.933394 135.138602,118.826063 C134.176607,118.718733 133.199853,118.530224 132.9681,118.407638 C132.7358,118.284508 131.660661,118.111798 130.578417,118.023537 C129.496172,117.935275 128.11877,117.715711 127.517522,117.535919 C126.573565,117.253155 122.069678,117.196494 94.472438,117.11695 C63.547181,117.027838 61.5888413,117.108214 60.8075845,116.118532 L60.7552333,116.048566 C60.6614394,115.917131 60.5762499,115.768133 60.4434945,115.599069 C59.9061983,114.91477 59.7646319,110.811698 60.2576545,110.218929 C60.3866493,110.064199 60.5965393,108.387775 60.7233477,106.493965 C60.8507028,104.600156 61.0491142,102.875242 61.1638978,102.660582 C61.279228,102.445921 61.4836519,99.8830676 61.6181126,96.9649886 C61.7520267,94.0469096 61.9504383,91.4944082 62.0586627,91.2922785 C62.1813595,91.0627692 62.2452056,87.1763984 62.2503794,83.1052153 L62.2502877,81.9581829 C62.2444619,77.8828635 62.1799808,73.9482365 62.0570229,73.626351 C61.9482519,73.3408631 61.747654,70.9763257 61.6104604,68.3715208 L61.5965631,68.1117936 C61.4600308,65.6095704 61.261646,63.372304 61.1480467,63.0747391 C61.0305303,62.7663685 60.8430505,61.4015838 60.7320931,60.0422471 C60.6211357,58.6823657 60.4342025,57.391677 60.3172326,57.1737472 C60.2002628,56.9558175 60.0390192,56.0448713 59.9592173,55.1497251 C59.8794155,54.2540339 59.678271,53.0804824 59.5121082,52.5411063 C59.3459453,52.0017303 59.1502668,51.0210467 59.0775705,50.3618093 C59.0043277,49.7025719 58.8152082,48.8199565 58.6572442,48.4004418 C58.4992802,47.9809271 58.2653405,47.147346 58.1374388,46.5480393 C57.5744529,43.9072759 57.1918411,42.409554 57.0251317,42.198707 C56.9267459,42.0739422 56.7753409,41.5825107 56.6895266,41.1074239 C56.6031657,40.6317923 56.3938224,39.9747342 56.2238334,39.6472949 C56.0538444,39.3193106 55.9111849,38.874734 55.9068122,38.6589836 C55.9029861,38.4432332 55.7094939,37.8744366 55.4771939,37.3949913 C55.2448938,36.9155459 55.0481222,36.3271357 55.0399233,36.087413 C55.0317245,35.8476903 54.8349527,35.25928 54.6026527,34.7798346 C54.3703527,34.3003893 54.1768605,33.7762684 54.1730344,33.6150003 C54.1686617,33.4537324 54.0254555,33.0614589 53.8543734,32.7432815 C53.2678843,31.6525433 52.6349351,30.174435 52.6201772,29.8622507 C52.612525,29.6900862 52.3179139,29.0591797 51.9653645,28.459873 C51.2608123,27.2612596 51.2181784,27.1789911 50.8929584,26.3895407 C50.7694294,26.0898873 50.5803099,25.6976138 50.472632,25.5178218 C50.3649542,25.3380299 50.1627166,24.9457563 50.0238831,24.646103 C49.6194078,23.7738393 49.1083479,22.8579896 48.5027281,21.9219816 C48.1928125,21.4425362 47.8151201,20.8050918 47.6637152,20.5054384 C47.5123102,20.2057851 47.2160594,19.7121743 47.0050763,19.4081623 C46.7946398,19.1041504 46.4256928,18.5408021 46.1851939,18.1561561 C45.9446952,17.772055 45.674134,17.4566017 45.583947,17.4560569 C45.4937599,17.4549672 45.4199705,17.3460024 45.4199705,17.2136101 C45.4199705,17.0812178 45.1750989,16.6644272 44.8755686,16.2874089 C44.5754916,15.9103904 44.1573517,15.3764626 43.9463686,15.1007815 C42.1726898,12.7885473 41.5517656,12.0688344 39.627775,10.0938464 C36.5417378,6.92623795 35.3201132,6.34382079 34.1198055,7.46779329 C33.2094771,8.31995582 33.4544334,8.9980402 35.6387032,11.1984591 L36.0208393,11.5795822 C37.1806995,12.7264373 38.6253322,14.3990478 39.6824339,15.8199496 C40.4132223,16.8022677 41.7031705,18.813759 41.7031705,18.9712132 C41.7031705,19.0785436 41.8332585,19.2964733 41.9917691,19.4544724 C43.8731258,21.3303024 42.8559251,25.002418 40.2765752,25.6474901 C39.9890699,25.7194069 39.6441727,25.9095505 39.5108051,26.0702737 C39.3774376,26.230452 38.986627,26.4233198 38.6422764,26.4985056 C38.2979258,26.5736913 37.899463,26.776366 37.7562569,26.9485304 C37.6130508,27.1206948 37.36326,27.2612596 37.2009233,27.2612596 C36.9243497,27.2612596 35.4327104,27.9237659 34.7068411,28.3688874 C34.5264671,28.4794867 34.1329235,28.667451 33.8323,28.7873124 C33.5316765,28.9066289 33.1381329,29.0962278 32.9577589,29.2090064 C32.5204883,29.4808737 30.7041756,30.3580408 29.3502766,30.9508096 L29.0487673,31.0842487 C28.5486138,31.308396 28.0794589,31.5322279 27.9291471,31.6198538 C27.6625072,31.7747734 26.7184181,32.2404437 25.7315525,32.7099224 L25.3360293,32.8971894 C24.9412334,33.0832045 24.5531331,33.2632807 24.2123471,33.417774 C23.6712248,33.6629449 23.0809096,33.938626 22.9005354,34.0301565 C22.8730297,34.044111 22.8423798,34.0595821 22.8087448,34.0764921 L22.5723835,34.1946 C21.8982828,34.5299369 20.6240451,35.1541443 19.2861676,35.8054564 L18.7488941,36.0668062 C17.7623331,36.5463228 16.7800168,37.021646 16.0135237,37.389543 C10.0408154,40.2564862 9.01617216,40.7528148 8.45182511,41.2952063 L8.38966198,41.3569357 C8.30875658,41.4398503 8.23448007,41.5258922 8.15139866,41.6233725 C5.75788881,44.4335761 6.51054079,48.089892 9.80592126,49.6611652 C9.83583128,49.6754199 9.86524361,49.6892355 9.89442592,49.7026275 L9.98155011,49.7415492 C10.8077581,50.0995381 11.6644556,50.1264451 18.7464649,50.1885551 C28.0433841,50.2691891 28.6216744,50.3721609 31.5475612,52.4670103 C33.2359723,53.6759754 36.0060814,57.0903891 36.0263052,57.9877147 C36.0301313,58.1680516 36.2236235,58.7085173 36.4559235,59.1879626 C36.6882235,59.667408 36.8817158,60.3261006 36.8855418,60.6513607 C36.8899146,60.9766208 37.0653694,61.7121336 37.2758058,62.2858335 C37.7578967,63.5994049 37.825127,74.0578518 37.3648997,76.0775155 C37.2145879,76.7367529 36.9937664,78.305302 36.873517,79.5633012 C36.7538141,80.8213005 36.5122221,82.271078 36.3373139,82.785392 C36.161859,83.2997062 36.0186529,84.1458183 36.0186529,84.6661255 C36.0186529,85.1858878 35.8798196,86.0042139 35.7098306,86.4842041 C35.5398416,86.9641943 35.334871,87.9328919 35.253976,88.6368049 L35.2264678,88.8550054 C35.1341966,89.5289165 34.9583811,90.3562703 34.8117861,90.7877712 C34.6494494,91.2672165 34.4532243,92.2958448 34.3761553,93.0738542 C34.2990864,93.8518626 34.1345633,94.6102581 34.0104878,94.7589956 C33.8864123,94.9082772 33.7005722,95.7772715 33.5978137,96.6903976 L33.5761897,96.8723567 C33.4704732,97.7169501 33.3002874,98.4847213 33.1829532,98.6250681 C33.0572379,98.7759853 32.8593729,99.6509727 32.7424031,100.570091 C32.6254332,101.488665 32.4390466,102.409418 32.3286358,102.615906 C32.218225,102.82294 32.0542485,103.576976 31.964608,104.292876 C31.8755141,105.00823 31.6689038,105.912093 31.5054739,106.301643 C31.3420441,106.691192 31.2086765,107.30303 31.2086765,107.662069 C31.2086765,108.021108 31.0190104,109.127646 30.7867104,110.120861 C30.3100855,112.160683 29.9777598,114.006547 29.6585523,116.394512 C29.5383029,117.293473 29.3366118,118.470293 29.2098034,119.009669 C28.4795615,122.114078 28.3522064,137.964106 29.0463735,139.308187 C29.1480389,139.505414 29.3338789,140.567277 29.4590476,141.667822 C29.5836697,142.768366 29.8318208,144.016559 30.0100085,144.441522 C30.1881963,144.866485 30.3341354,145.493033 30.3341354,145.833548 C30.3341354,146.174063 30.5309072,146.950438 30.7714059,147.558462 C31.0119047,148.166485 31.2086765,148.884019 31.2086765,149.152617 C31.2086765,149.421216 31.3414974,149.834192 31.5038341,150.070647 C31.6661708,150.3071 31.8667688,150.794718 31.948757,151.154302 C32.0312918,151.513886 32.2559395,152.15133 32.4483386,152.570845 C32.6407377,152.990359 32.9954734,153.774907 33.2359723,154.314283 C34.3329748,156.774164 34.5647282,157.277582 34.7396365,157.583228 C34.8423951,157.763021 35.0227692,158.10626 35.1408322,158.345982 C35.2588953,158.585705 35.6021527,159.174115 35.9038694,159.653561 C36.2055861,160.133006 36.6193533,160.844002 36.8226842,161.233551 C37.0260151,161.6231 37.2730729,161.941823 37.3709122,161.941823 C37.4687515,161.941823 37.5491,162.057325 37.5491,162.198435 C37.5491,162.548757 39.5217369,165.428698 39.7616892,165.428698 C39.8677273,165.428698 39.9540881,165.557277 39.9540881,165.714731 C39.9540881,165.87164 40.12681,166.190363 40.3383397,166.423002 C40.5498694,166.655097 40.8811018,167.090412 41.0740474,167.390066 C41.2515574,167.665747 42.2428376,168.974379 43.3481659,170.395346 L43.6386394,170.767976 C45.7340401,173.450878 46.2188571,174.075242 46.7047316,174.72386 L46.796239,174.84627 L46.8427396,174.908641 C47.021474,175.148363 47.7336784,176.083282 48.4256592,176.985511 C50.2080834,179.311366 50.6672175,179.97932 50.6672175,180.24574 C50.6672175,180.374318 50.8109702,180.534496 50.9869716,180.602054 C51.1624264,180.669068 51.3734094,180.934398 51.4553977,181.191009 C51.5368394,181.448166 51.8806433,182.002798 52.2184348,182.423947 C52.5562263,182.845096 53.1503678,183.77838 53.5384455,184.497548 C53.9265231,185.216717 54.4643659,186.1974 54.7338339,186.676845 C55.0033019,187.15629 55.4859393,188.08794 55.8067866,188.747177 C56.1270873,189.406415 56.5780225,190.308644 56.8081363,190.751586 C57.0382499,191.195073 57.2262762,191.74698 57.2262762,191.977986 C57.2262762,192.209536 57.3634699,192.511913 57.5312724,192.650843 C57.699075,192.789774 57.9040456,193.262681 57.9865804,193.70181 C58.0691153,194.140938 58.2762722,194.698293 58.4468077,194.941284 C58.6173433,195.183732 58.7600028,195.629942 58.7643755,195.932865 C58.7682016,196.235787 58.9616938,196.875956 59.1939939,197.355401 C59.4262938,197.834846 59.6203326,198.57036 59.625252,198.989874 C59.6301712,199.409389 59.7679115,200.008151 59.9313413,200.320879 C60.0953178,200.633609 60.2970089,201.46719 60.3795437,202.173282 C60.4626251,202.879374 60.6358936,203.790866 60.7648885,204.198939 C61.3617627,206.088431 61.645318,211.991183 61.6339822,217.823963 L61.6299141,218.720211 C61.5883816,224.535077 61.2529029,230.070574 60.6419061,231.243472 C59.4191881,233.591119 55.8641783,233.549168 54.7048647,231.173189 C54.2200409,230.17943 54.1970843,227.614942 54.666057,226.80043 C54.8501447,226.480506 54.9448957,222.330603 54.95031,218.091344 L54.95031,217.320417 C54.9448957,213.084065 54.8501447,208.985061 54.666057,208.764022 C54.5206645,208.589133 54.3413836,207.617712 54.2681407,206.605428 C54.1954445,205.593145 54.0030454,204.372738 53.8412553,203.893293 C53.6794652,203.413848 53.4810536,202.542129 53.4012518,201.956442 C53.3209034,201.370211 53.1268645,200.585665 52.9699937,200.213005 C52.8136694,199.8398 52.5862887,199.142425 52.4654928,198.66298 C52.210236,197.651241 51.8281709,196.539799 51.41659,195.611963 C51.2569862,195.252379 50.8661756,194.32073 50.5469681,193.541631 C50.2283071,192.762533 49.8298443,191.970358 49.6614951,191.781304 C49.4931459,191.591705 49.3488466,191.2975 49.3406478,191.127514 C49.3329956,190.956984 49.0383845,190.327168 48.6869283,189.727861 C48.3349255,189.128555 47.9523137,188.423007 47.836437,188.159857 C47.7211069,187.896707 47.2772773,187.186801 46.8509384,186.582046 C46.4245996,185.977291 46.0758764,185.429743 46.0758764,185.364908 C46.0758764,185.300619 45.7069293,184.773774 45.255994,184.194625 C44.8050587,183.615477 44.3147691,182.956241 44.1666436,182.730138 C43.8907354,182.308302 43.6593891,181.957098 43.4634251,181.663302 L43.2789153,181.388154 C42.8454263,180.745676 42.6139528,180.434462 42.4410646,180.247919 C42.4343962,180.240727 42.4262071,180.231548 42.4165527,180.220452 L42.3414896,180.131441 C42.005056,179.724887 41.0133543,178.459151 39.9590075,177.087938 L39.8156665,176.901679 C38.672853,175.417968 37.6346957,174.100558 37.472031,173.927957 C37.3025887,173.748165 36.9309087,173.256734 36.6455896,172.836129 C36.3608171,172.415525 35.681408,171.483876 35.1353663,170.765797 C34.2203777,169.56228 33.6240499,168.724885 33.0670765,167.861883 C32.946827,167.675554 32.773012,167.419486 32.6811852,167.293087 C32.0919631,166.481844 31.4273118,165.379119 31.4273118,165.211858 C31.4273118,165.103438 31.3043294,164.936177 31.1540177,164.840288 C30.8233318,164.629441 30.564249,164.169609 28.7140479,160.505666 L28.4245888,159.928146 C27.7695605,158.610444 27.2732413,157.536033 27.2732413,157.426864 C27.2732413,157.302644 27.1256624,157.078721 26.9452883,156.92944 C26.7649142,156.780157 26.6173354,156.473422 26.6173354,156.248409 C26.6173354,156.022852 26.4205636,155.472034 26.1800648,155.024733 C25.939566,154.577978 25.7427942,154.060395 25.7427942,153.875699 C25.7427942,153.691003 25.5984949,153.334144 25.421947,153.08298 C25.245399,152.831816 25.0349624,152.197096 24.9540674,151.67243 C24.873719,151.147764 24.685146,150.473272 24.5359274,150.173618 C24.3861622,149.873965 24.1921234,149.197293 24.1041227,148.670448 C24.016122,148.143058 23.8078719,147.386297 23.6411624,146.988576 C23.474453,146.590309 23.337806,145.942513 23.337806,145.54915 C23.337806,145.155241 23.1410342,144.147317 22.9005354,143.308832 C22.6600367,142.470347 22.4632649,141.268465 22.4632649,140.637559 C22.4632649,140.006653 22.3085804,138.535082 22.1194609,137.368069 C21.6433825,134.429286 21.6291712,124.54127 22.0970508,121.624826 C22.2801578,120.486143 22.4960602,118.769946 22.5775018,117.811056 C22.6589434,116.852165 22.808162,115.966281 22.9098275,115.842606 C23.0109462,115.71893 23.1907738,114.671233 23.3093834,113.514571 C23.4279931,112.35791 23.6346034,111.207786 23.767971,110.95989 C23.9013384,110.71145 24.0696876,109.846814 24.1418373,109.038295 C24.2139869,108.229776 24.3943611,107.323188 24.5419399,107.023535 C24.6900653,106.723882 24.8813712,105.743198 24.9671855,104.844237 C25.0535464,103.945278 25.2229888,103.090993 25.3432382,102.94607 C25.4640342,102.801147 25.651514,101.979007 25.7597385,101.11873 C25.8679629,100.258997 26.0488836,99.4450294 26.1609342,99.3099127 C26.2729848,99.1753408 26.4347749,98.4283873 26.5200427,97.650378 C26.6053105,96.8723688 26.7736596,96.0458704 26.8944556,95.8132306 C27.0152517,95.5805908 27.2393528,94.5999068 27.3918509,93.6339333 C27.544349,92.6679598 27.7706365,91.5832146 27.894712,91.2236306 C28.0187876,90.8640466 28.2193855,89.9814313 28.3401815,89.2622632 C28.3862631,88.9879232 28.4336125,88.710282 28.4817222,88.4320914 L28.6278247,87.5986222 C28.8488773,86.3542007 29.0750483,85.1543718 29.2600895,84.2498798 C29.3830719,83.650573 29.5809368,82.4737526 29.700093,81.6347232 C29.8187026,80.7956937 30.055922,79.4227366 30.2270041,78.5837072 C31.5382692,72.1487876 31.3158078,63.6511632 29.7580313,60.6726088 C27.9362528,57.1890023 27.6132192,57.0838513 18.5349353,57.0233757 C12.0714513,56.9804125 9.87992256,56.859795 8.26390819,56.3276907 L8.06463647,56.2590104 C7.96623196,56.2235745 7.8694739,56.1864768 7.77345987,56.147636 L7.58215643,56.067606 L7.48674738,56.0258025 C7.00574973,55.8122314 6.39083797,55.571419 6.1202768,55.4907851 C5.84971563,55.4106959 5.62834739,55.2597796 5.62834739,55.156263 C5.62834739,55.0527463 5.4561721,54.9127265 5.24573564,54.8451683 C4.420934,54.5814733 1.47427686,51.4351131 1.47427686,50.818372 C1.47427686,50.6745383 1.28734368,50.1945482 1.05941639,49.7510612 C-0.720821472,46.2941511 -0.231625006,41.7982611 2.33242037,38.0525941 C3.09381778,36.940063 4.225802,35.7605184 4.53134482,35.7605184 C4.62426482,35.7605184 4.83142176,35.6030642 4.99157211,35.4107412 C5.15117587,35.2184183 5.48350152,34.9737921 5.72891963,34.8664617 C5.97433775,34.7596762 6.32251445,34.5820635 6.50288857,34.472009 C6.54210033,34.448084 6.64020723,34.3963773 6.78580986,34.3224635 L6.98260138,34.2234644 C7.56428231,33.932945 8.58562736,33.4378614 9.67310032,32.9208942 C11.2363426,32.1777539 13.5976037,31.0543263 14.9203473,30.4245093 C16.2430908,29.7952373 17.9156508,29.0003387 18.6371472,28.6587339 C19.3586437,28.3171291 19.9817543,27.9613588 20.0216552,27.8676489 C20.0621027,27.7739392 20.2698062,27.697119 20.4840689,27.697119 C20.6983314,27.697119 21.1241237,27.5009822 21.4296665,27.2612596 C21.7357559,27.0215369 22.1194609,26.8254001 22.2828907,26.8254001 C23.3361662,26.8254001 24.4998526,25.399595 23.9188293,24.8204467 C23.7575858,24.6597236 23.4985029,24.2914223 23.3427253,24.0015758 C23.0257042,23.4109864 22.9245853,23.2747802 22.1413243,22.3807236 C21.8374213,22.0331257 21.5887236,21.6648245 21.5887236,21.5618527 C21.5887236,21.4588809 20.5299823,20.2717088 19.2356614,18.9238135 C16.7076908,16.2923122 16.1272141,15.406428 15.6965026,13.5262394 C15.2794558,11.7065262 15.7320309,8.24253342 16.4655523,7.63559916 C16.6377275,7.4928552 16.7820268,7.26566347 16.7858529,7.13054705 C16.8033438,6.49855088 19.3865197,4.2800264 20.3873227,4.03703476 C20.7475244,3.94931805 21.2361743,3.74500895 21.4733936,3.58319614 C22.0473112,3.1920123 25.4356116,3.18874335 26.1860773,3.57938236 C27.4672801,4.24570247 27.6919279,4.19775793 28.8971549,3.00241345 C30.1094876,1.79998625 31.2786398,0.891764169 31.6131518,0.891764169 C31.7252024,0.891764169 32.2455544,0.691813657 32.7697325,0.447732377 Z M121.22348,168.999605 C122.97196,168.642267 125.359583,170.212385 125.359583,171.719699 C125.359583,171.89945 125.500642,172.163122 125.673412,172.304974 C125.846183,172.446827 126.055585,172.869134 126.13869,173.243255 C126.221248,173.617377 126.453066,174.171249 126.653174,174.473361 C127.277554,175.416516 127.539443,175.871308 127.779462,176.426806 C127.906853,176.721879 128.083451,177.014246 128.172023,177.07651 C128.260595,177.138232 128.614884,177.676403 128.959878,178.271965 C129.304326,178.867527 129.654788,179.403533 129.738986,179.463089 C129.822637,179.522645 130.044067,179.86374 130.231053,180.221077 C130.417492,180.578414 130.849419,181.181557 131.190586,181.561092 C131.531752,181.940627 132.007964,182.524278 132.248531,182.857793 C133.642176,184.791204 137.766798,188.860517 139.673286,190.183206 C140.01664,190.421432 140.463329,190.762526 140.66617,190.941195 C140.869011,191.119863 141.183388,191.363503 141.365453,191.482615 C141.547518,191.601727 142.129251,191.988843 142.658498,192.34239 C143.817044,193.116621 145.5278,194.08089 146.570983,194.547594 C147.24949,194.850789 147.653532,195.209751 148.60213,196.352147 C148.741523,196.519849 148.810678,198.111427 148.816763,199.887021 L148.816763,200.452407 C148.80836,202.537308 148.716577,204.693945 148.552376,204.997543 C148.445214,205.195703 148.248935,209.000262 148.116076,213.451276 C147.983218,217.902291 147.782017,221.94345 147.668294,222.43127 C147.555119,222.919089 147.421714,225.046329 147.372507,227.158409 L147.283388,230.998701 L146.237471,231.977048 C143.609829,234.434553 139.50161,231.629997 140.639927,228.156246 C140.771691,227.752887 140.978906,223.91043 141.107937,219.46916 C141.235328,215.088531 141.427235,211.276392 141.534396,210.996477 C141.647413,210.70217 141.774326,208.566481 141.859495,206.263529 L141.881645,205.632561 C141.965775,203.102167 141.994206,200.553838 141.894699,200.161038 C141.807221,199.816153 141.503232,199.471269 141.151677,199.319671 C140.824725,199.17836 139.966887,198.674298 139.245735,198.200014 C137.78648,197.240076 137.774452,197.231414 136.809453,196.466929 C136.431107,196.167523 136.035266,195.92226 135.928651,195.92226 C135.822584,195.92226 135.582017,195.751712 135.395031,195.543265 C135.207499,195.334819 134.208055,194.451763 133.173619,193.580617 C132.139183,192.709473 130.527934,191.150183 129.592458,190.11553 C128.656983,189.080876 127.740644,188.071127 127.555299,187.871343 C127.029879,187.305559 126.041916,186.058127 125.494628,185.269278 C124.646612,184.047013 123.973947,183.065411 123.468406,182.312182 L123.246917,181.98071 C122.757658,181.244901 122.460757,180.771757 122.345941,180.545929 C122.194494,180.248148 121.831457,179.614686 121.539496,179.138237 C121.246989,178.661787 120.902542,178.040779 120.773511,177.758698 C120.499046,177.157723 119.8189,177.212948 118.148056,177.97256 C116.711219,178.625512 115.938125,178.945492 115.135508,179.219992 C113.331806,179.837211 112.945807,179.982311 112.104371,180.359681 C111.610116,180.581121 110.970428,180.765745 110.682842,180.770077 C110.395256,180.774408 109.914122,180.917343 109.613415,181.087349 C109.312706,181.257355 108.820638,181.404621 108.51993,181.413826 C108.219223,181.423571 107.579535,181.581666 107.098401,181.765749 C106.617269,181.949832 105.642428,182.190222 104.931663,182.299589 C104.221446,182.408956 103.524896,182.593038 103.383836,182.708902 C103.243324,182.824225 102.414463,183.019136 101.541863,183.142038 C100.669263,183.264399 99.7911955,183.451189 99.5905407,183.557307 C99.3898867,183.663426 98.5364228,183.816648 97.6944402,183.898403 C96.8524576,183.979616 95.7699082,184.177775 95.2887757,184.338577 C94.8076422,184.499378 93.4429745,184.688876 92.2554511,184.760343 C91.0684743,184.83127 89.8940726,184.997485 89.645305,185.12905 C89.3850558,185.267112 86.8279437,185.459858 83.6027129,185.584384 C80.5278362,185.703497 77.9133163,185.890287 77.793033,185.999654 C77.6514268,186.128511 77.5360643,194.067354 77.4649879,208.55359 L77.3556395,230.908825 L76.8477162,231.548242 C75.5492041,233.182248 73.6033495,233.469742 72.1397213,232.243426 C72.0787049,232.192294 72.0202542,232.145453 71.9642614,232.100964 L71.8821021,232.035751 C71.8687116,232.025096 71.8554713,232.014526 71.8423797,232.004013 L71.7655988,231.941366 C71.7155819,231.899727 71.667888,231.858015 71.6224092,231.814293 L71.5558388,231.74696 C70.7657824,230.90349 70.6955027,229.06743 70.6890776,214.453447 L70.6880839,206.158348 C70.6880839,205.903334 70.6880839,205.650909 70.6880839,205.401049 L70.6880839,199.257612 C70.6880839,199.051663 70.6880839,198.848032 70.6880839,198.646688 L70.6889599,197.465871 C70.6991692,183.043499 70.7889092,181.187014 71.466526,180.329425 L71.5219991,180.262729 C71.5409147,180.241061 71.5602578,180.219885 71.5800384,180.19898 L71.6407016,180.13686 C71.6716987,180.105988 71.7037017,180.075234 71.7367427,180.043857 L71.8042189,179.980054 L71.8390132,179.947119 L72.4628458,179.354805 L77.6432257,179.29579 C80.492298,179.263305 83.1182996,179.143651 83.4791493,179.029953 C83.839999,178.915713 85.5622361,178.722426 87.3063429,178.600065 C89.0504497,178.477705 91.0154403,178.2319 91.6731708,178.053773 C92.3309014,177.876187 93.3150373,177.728379 93.8601389,177.725131 C94.4052405,177.722424 95.2450364,177.615764 95.726169,177.487989 C96.2073015,177.359673 97.3390573,177.135524 98.2411816,176.989882 C99.1433059,176.843699 100.078235,176.622799 100.318801,176.498815 C100.559368,176.37537 101.33082,176.209696 102.032291,176.131731 C102.734307,176.053767 103.590505,175.84532 103.935499,175.668818 C104.279947,175.492855 104.837076,175.347755 105.17387,175.347213 C105.510663,175.346131 106.069979,175.198865 106.416615,175.020196 C106.763249,174.840986 107.452143,174.635246 107.947492,174.562696 C108.44284,174.490146 109.066125,174.296318 109.332389,174.131726 C109.598652,173.967134 109.996133,173.83232 110.215378,173.83232 C110.435167,173.83232 111.000499,173.637409 111.472337,173.399184 C111.944175,173.16096 112.470688,172.966048 112.642912,172.966048 C112.814588,172.966048 113.408897,172.759226 113.963293,172.505841 C116.395749,171.395389 116.781201,171.233504 116.991697,171.233504 C117.114167,171.233504 117.336691,171.08732 117.486499,170.908652 C117.636306,170.729983 117.928266,170.5838 118.135481,170.5838 L118.219245,170.574959 C118.427595,170.534395 118.717624,170.35911 118.908028,170.150664 L118.995423,170.063655 C119.211615,169.866756 119.504933,169.717528 119.691508,169.717528 C119.905285,169.717528 120.218568,169.580007 120.388058,169.412167 C120.557548,169.244326 120.93316,169.05862 121.22348,168.999605 Z M34.9271535,35.4999078 C35.6659265,35.1829818 42.5602368,35.2079412 43.2219299,35.5300912 C44.6886196,36.2446256 42.609633,40.3333184 40.5708149,40.7431163 C38.5667371,41.1459489 35.3695488,40.2833996 35.3114675,39.3239151 C35.303868,39.1962161 35.1062829,38.8305323 34.8728718,38.5112845 C34.2361483,37.6406089 34.2692602,35.7831676 34.9271535,35.4999078 Z M25.5671189,10.9452024 C24.3811345,10.0819285 23.5398504,9.98370858 22.8822269,10.6314295 C21.9283766,11.5722175 22.1249635,12.1764031 24.0073501,14.0935507 C26.1353357,16.2602302 26.8382011,17.0369644 27.6250872,18.0897763 C27.9740963,18.5569848 28.3085632,18.987029 28.3688858,19.04543 C28.6667284,19.3358426 29.4035252,20.483689 29.5300948,20.8548012 C30.0159068,22.2771325 30.8178735,22.620637 32.0749523,21.9453083 C34.5400979,20.621197 34.7216041,20.4305971 34.1329207,19.7786289 C33.9848073,19.6151058 33.6697297,19.2270042 33.4327482,18.9169477 C31.8180429,16.8044219 27.2362222,12.1604755 25.5671189,10.9452024 Z" transform="translate(86.5, 116.5) scale(-1, 1) translate(-86.5, -116.5)"></path>
                    </g>
                </g>
            </g>
            <path d="M299.522945,2.43542964 C297.892089,3.15033942 296.941584,3.92168945 295.55883,5.64920365 C295.258902,6.02436528 294.101094,8.31296192 294.099991,8.53429622 C294.099991,8.64717671 293.975389,8.97807149 293.82322,9.27023276 C293.671051,9.56350071 293.494623,10.1445032 293.43177,10.5617184 C293.367815,10.9800402 293.232186,11.4846824 293.129637,11.6838833 C293.027089,11.8841908 292.884844,12.5481937 292.814272,13.160183 C292.742598,13.7721724 292.593737,14.6453362 292.48347,15.1023915 C292.3721,15.5583402 292.193466,16.4713441 292.085404,17.1309204 C291.905668,18.2243118 291.768937,19.0432487 291.16026,22.6642778 C291.049993,23.323854 290.844895,24.4449122 290.704856,25.1542887 C290.564816,25.8647717 290.360821,26.98583 290.250554,27.6442995 C290.068612,28.7376909 289.924162,29.5986814 289.322102,33.177657 C289.211834,33.8372332 289.029893,34.7502371 288.918523,35.2072925 C288.807153,35.6632411 288.659394,36.5762451 288.589926,37.2358213 C288.520457,37.8953975 288.372699,38.7254011 288.262431,39.0806427 C288.151061,39.4347776 287.974633,40.3068347 287.870982,41.0173178 C287.76733,41.7266942 287.590902,42.9307528 287.479532,43.6910361 C287.369265,44.4524261 287.159757,45.497124 287.014203,46.0128329 C286.86865,46.5296485 286.746254,47.2766517 286.741843,47.6728401 C286.737432,48.0701352 286.615035,48.7263914 286.469482,49.1325398 C286.323929,49.5386883 286.203738,50.0300504 286.201532,50.2259312 C286.186095,52.2290066 283.334578,57.7634708 281.490906,59.3692511 C280.504012,60.2280282 278.524711,61.3977799 278.057177,61.3977799 C277.917137,61.3977799 277.560973,61.5161938 277.267662,61.6589544 C276.781382,61.8979954 274.727099,62.0385427 272.689357,61.9743558 C271.346299,61.9323023 268.466112,59.6060788 266.453731,56.9378938 C266.095362,56.4631318 265.553949,55.8024489 265.24961,55.4682341 C264.945272,55.1340193 264.69717,54.8042312 264.69717,54.7356176 C264.69717,54.6681106 264.241766,54.0207078 263.686018,53.299158 C263.13027,52.5765015 262.674865,51.9036452 262.674865,51.8040448 C262.674865,51.7044444 262.606499,51.6225507 262.523799,51.6225507 C262.439995,51.6225507 262.047443,51.156642 261.65048,50.5878128 C261.253517,50.0189837 260.784881,49.4191677 260.60735,49.256487 C260.430922,49.0926996 260.286472,48.8979255 260.286472,48.8248851 C260.286472,48.7518448 259.994263,48.3755765 259.639202,47.9904548 C258.126332,46.3503677 258.451621,46.0559931 261.985693,45.8667522 C263.527232,45.7848586 264.954094,45.6332446 265.155883,45.5292174 C265.358775,45.426297 265.937679,45.268043 266.442704,45.1772959 C267.327049,45.0190419 268.614974,44.6106801 269.383538,44.2432652 C269.585327,44.1469848 269.958031,43.9820907 270.210544,43.8769569 C270.463056,43.7718231 270.917358,43.5217154 271.220594,43.3214078 C271.523829,43.1211003 271.896533,42.9019793 272.0476,42.8333657 C272.199769,42.7647521 272.447871,42.596538 272.598937,42.4593107 C272.751106,42.3209768 273.23518,41.9015483 273.675148,41.5274933 C274.881474,40.5005022 276.78469,37.8588774 277.296331,36.4976714 C277.35367,36.3460574 277.508045,35.9720025 277.639263,35.6676678 C277.859798,35.1563856 277.982195,34.7380638 278.50376,32.7172816 C279.103615,30.3921648 278.310792,28.9523852 276.425218,28.9413185 C275.23433,28.9346785 273.647581,30.1675105 273.431457,31.267542 C273.335524,31.7600108 273.194382,32.3321599 272.780879,33.9158068 C272.455589,35.1619189 271.347401,36.94034 270.444311,37.6652098 C270.213852,37.850024 269.921643,38.1034518 269.795938,38.2285056 C269.221445,38.7973348 266.998452,39.760139 265.70722,39.9980733 C265.202195,40.0921404 264.415988,40.2515011 263.961686,40.3544216 C263.506282,40.4562353 261.22154,40.5436624 258.883869,40.5480891 C254.103775,40.5569424 254.118109,40.5602625 254.431269,39.3506705 C254.536023,38.9478421 254.695911,37.9972113 254.78633,37.2358213 C254.877852,36.475538 255.031124,35.6720945 255.128159,35.4529735 C255.224092,35.2327459 255.356413,34.5277962 255.423676,33.88482 C255.489837,33.2429506 255.659649,32.3078132 255.801894,31.8075976 C255.943036,31.3073821 256.058817,30.6157125 256.058817,30.2693243 C256.058817,29.9240428 256.179008,29.1305593 256.325664,28.5052899 C256.592511,27.3676316 256.777761,26.3406405 257.244192,23.4024277 C257.488986,21.8564076 257.684159,20.7829363 258.082225,18.7909276 C258.193595,18.2331652 258.360099,17.132027 258.453826,16.3440769 C258.546451,15.5561268 258.696415,14.7670701 258.786834,14.5911093 C258.877253,14.4162552 259.008472,13.7323322 259.079043,13.0738627 C259.148511,12.4142865 259.318323,11.459229 259.455055,10.9523734 C260.035062,8.80321739 259.938026,5.69568385 259.290756,5.69568385 C259.155127,5.69568385 258.941208,5.57062997 258.815504,5.41901598 C258.333635,4.83690677 256.473422,5.25412193 255.586872,6.1438858 C254.990325,6.74259508 254.570206,7.81827977 254.418037,9.13521884 C254.334234,9.86008867 254.20081,10.559505 254.12252,10.6878789 C254.043127,10.8162528 253.920731,11.4680823 253.851262,12.1365119 C253.782896,12.8038348 253.634035,13.7234788 253.522665,14.1805342 C253.303233,15.0813648 253.059542,16.4779842 252.669195,19.0675955 C252.53136,19.9805994 252.328468,20.9611104 252.217098,21.2477383 C252.106831,21.5332595 252.012001,22.1552089 252.00759,22.6310777 C252.003179,23.1058397 251.880782,23.8262829 251.735229,24.2324313 C251.589676,24.6385797 251.467279,25.2605291 251.462869,25.6157707 C251.459561,25.9710122 251.368039,26.5929616 251.261079,26.99911 C251.153017,27.4052585 250.957844,28.4422096 250.825523,29.3043067 C250.596166,30.80938 250.434073,31.7079972 249.993003,33.9158068 C249.881633,34.4735693 249.715129,35.5747074 249.621402,36.3637642 C249.528777,37.1517143 249.377711,37.9396644 249.286189,38.1156251 C249.19577,38.2915859 249.063449,38.9876823 248.99398,39.6627519 C248.923409,40.3378215 248.748084,41.2840256 248.603633,41.7665344 C248.459183,42.2490432 248.340094,42.9927264 248.340094,43.4210083 C248.340094,43.8481835 248.216594,44.5509198 248.064425,44.9825217 C247.913359,45.4141236 247.788757,46.0858732 247.788757,46.4743149 C247.788757,46.8638633 247.674078,47.5389329 247.532936,47.9738548 C247.391794,48.40767 247.221982,49.2133268 247.154719,49.7633426 C247.087456,50.314465 246.952929,50.9142809 246.854791,51.0979884 C246.756653,51.2828025 246.603381,51.786338 246.515167,52.2190466 C245.640746,56.4874785 243.052769,60.1029743 239.818624,61.5737407 C238.398379,62.2200369 234.185059,62.1813033 233.052612,61.5128738 C231.629059,60.6718034 229.857061,58.6930748 229.314545,57.3407223 C229.253898,57.1880016 229.090702,56.8150533 228.951765,56.5107186 C228.812828,56.206384 228.643016,55.6663283 228.57465,55.3110867 C228.506284,54.9558452 228.38499,54.5828969 228.304495,54.4810831 C228.225102,54.380376 228.101603,53.7993735 228.029929,53.1907042 C227.958255,52.5820348 227.785135,51.6302974 227.643993,51.0769616 C227.503953,50.5225192 227.387069,49.5265149 227.382659,48.8636186 C227.379351,48.1996157 227.256954,47.1593445 227.110298,46.5506752 C226.963642,45.9420059 226.842348,44.9161214 226.841245,44.270932 C226.840143,43.6257425 226.717746,42.5467378 226.569987,41.8738815 C226.422229,41.1999186 226.219337,40.1496873 226.118994,39.541018 C225.852146,37.9164243 225.445259,36.249777 225.208184,35.8048951 C225.093506,35.5913075 225.000881,35.2072925 225.000881,34.952758 C225.000881,34.6993302 224.928105,34.4459025 224.840994,34.3916756 C224.75278,34.3374487 224.446236,33.8283798 224.160643,33.2606573 C223.362307,31.6770104 220.473299,28.9357851 219.603289,28.9357851 C219.463249,28.9357851 219.24492,28.8118379 219.119215,28.6591173 C218.99351,28.5075033 218.753127,28.3824494 218.58552,28.3824494 C218.416811,28.3824494 217.809237,28.2164487 217.233641,28.0139278 C215.919253,27.5502324 211.540531,27.4816188 210.258121,27.9043673 C209.825872,28.0471279 209.18191,28.2241954 208.827952,28.2972357 C208.473993,28.370276 208.021896,28.5440234 207.822312,28.6823574 C207.622728,28.821798 207.343752,28.9357851 207.202609,28.9357851 C207.061467,28.9357851 206.457201,29.2345864 205.859551,29.5986814 C204.659841,30.3301912 204.23862,30.2604709 204.227593,29.3286535 C204.20995,27.8767005 201.756499,27.0610836 200.423365,28.0626213 C199.226963,28.9612386 198.910495,29.6440549 198.516841,32.1639459 C198.422011,32.7726152 198.253301,33.6435656 198.143034,34.100621 C198.031664,34.5565696 197.880597,35.4695736 197.807821,36.1291498 C197.733942,36.788726 197.581772,37.70173 197.470402,38.1576787 C197.25097,39.0585092 197.006176,40.4562353 196.615829,43.0458466 C196.479098,43.9588506 196.275103,44.9393615 196.164836,45.2248828 C196.054568,45.510404 195.963046,46.1146467 195.963046,46.568382 C195.963046,47.0210106 195.839546,47.6905469 195.687377,48.0546418 C195.536311,48.4187367 195.411709,48.9764991 195.411709,49.2941139 C195.411709,49.6128352 195.323495,50.162851 195.21433,50.5169858 C195.105165,50.8711207 194.907786,51.5760705 194.77326,52.0840327 C193.715795,56.1001435 191.217134,60.2158548 189.50468,60.7614438 C189.317226,60.8212041 189.163954,60.9473646 189.163954,61.0414317 C189.163954,61.1366055 189.076843,61.2140725 188.969883,61.2140725 C188.862924,61.2140725 188.398698,61.3856065 187.938882,61.5958741 C186.574874,62.2200369 182.628401,62.1635966 181.317321,61.5018071 C180.254342,60.9650714 178.688544,59.3094908 178.688544,58.7218483 C178.688544,58.5149007 178.542991,58.1397391 178.366563,57.8885246 C177.911159,57.2433352 177.931007,49.94705 178.391925,48.6942979 C178.555121,48.2505226 178.688544,47.558853 178.688544,47.1571312 C178.688544,46.7554095 178.808736,45.9143391 178.955392,45.2890697 C179.216725,44.1724382 179.369997,43.3158745 179.868406,40.1873142 C180.005138,39.3241104 180.205825,38.1621053 180.312784,37.6043429 C180.420846,37.0465805 180.596172,36.1335765 180.703131,35.5758141 C180.81009,35.0180516 180.981005,33.9102735 181.082451,33.11347 C181.183897,32.3177732 181.348196,31.5143297 181.447436,31.3273022 C182.328473,29.677255 181.230209,27.6442995 179.460417,27.6454062 C177.285942,27.6487262 176.32441,28.990012 175.757635,32.8091353 C175.187552,36.6636721 175.030972,37.5545427 174.846826,38.0315181 C174.735456,38.3170393 174.645036,38.9091086 174.645036,39.3473505 C174.645036,39.7855924 174.52705,40.5480891 174.383702,41.0416646 C174.240355,41.53524 174.031949,42.5622312 173.920579,43.3225145 C173.491638,46.261834 173.202738,47.9229479 173.08806,48.1099754 C173.023002,48.2162158 172.898399,48.6976179 172.811288,49.17902 C172.521285,50.7936537 170.941152,54.5740435 170.556318,54.5740435 C170.480234,54.5740435 170.418484,54.6570439 170.418484,54.7599643 C170.418484,55.606568 166.693649,59.4622115 165.252453,60.1085076 C165.010967,60.2169615 164.358184,60.5500696 163.802436,60.8488709 C163.245585,61.1476722 162.658962,61.3933532 162.497972,61.3955666 C162.336981,61.3966733 161.944429,61.5283672 161.626859,61.6866212 C160.813085,62.094983 155.652567,62.1071564 154.763811,61.7043279 C154.428598,61.5516073 153.94673,61.3678998 153.694217,61.2959662 C152.407396,60.9285512 149.981511,58.7517284 149.248233,57.3064154 C148.617503,56.0636234 148.180844,54.9525252 148.180844,54.5928569 C148.180844,54.3892294 148.057344,53.7451466 147.905175,53.160824 C147.592015,51.9534454 147.560038,50.2613447 147.826885,49.0406861 C147.927228,48.5836308 148.088219,47.5212261 148.185254,46.6801558 C148.28229,45.8379788 148.434459,45.0079752 148.523775,44.8353344 C148.613092,44.6626937 148.74431,43.9400372 148.814882,43.2306608 C148.885453,42.5201777 149.060778,41.5297067 149.205228,41.0294912 C149.349679,40.5292757 149.467665,39.837606 149.467665,39.4923245 C149.467665,39.147043 149.587856,38.3524528 149.734512,37.7271834 C149.881168,37.1019141 150.089573,36.0505761 150.197636,35.3909999 C150.305698,34.7314237 150.520719,33.4454715 150.675094,32.5324675 C151.359855,28.5008632 151.055516,27.6431928 148.942792,27.6454062 C147.63502,27.6476195 145.975494,28.7343709 145.975494,29.5887213 C145.975494,29.7137752 145.851995,30.0535233 145.700928,30.3445779 C145.549862,30.6345259 145.426362,31.2575819 145.42526,31.7279173 C145.424157,32.197146 145.306171,32.9862028 145.162823,33.4797783 C144.920235,34.3164219 144.82761,34.8487309 144.309353,38.388973 C144.202393,39.1238029 143.99509,40.1485807 143.85064,40.6642896 C143.705087,41.1799985 143.585998,41.9458152 143.585998,42.364137 C143.585998,42.7824588 143.47132,43.4807685 143.330178,43.9156904 C143.190138,44.3506123 143.020326,45.2835364 142.954166,45.9884861 C142.888005,46.6945425 142.764505,47.3585454 142.681805,47.4647859 C142.598002,47.5699197 142.472297,48.0723485 142.401726,48.5792041 C142.256172,49.6161553 141.832745,51.0847083 141.45122,51.8682317 C141.31118,52.1548597 141.197605,52.4968211 141.197605,52.6263017 C141.197605,52.8775161 140.034283,55.2148063 139.448763,56.1410904 C138.436507,57.742444 136.982079,59.4245847 135.400844,60.8212041 C134.90023,61.2649794 134.282732,61.8105684 134.030219,62.034116 C133.777707,62.2576637 133.170133,62.6837322 132.681648,62.9803202 C132.192061,63.2769081 131.572357,63.6587098 131.303305,63.8280305 C130.414549,64.3902196 127.822161,65.6407584 127.546492,65.6407584 C127.396528,65.6407584 127.171583,65.7647056 127.045878,65.9174263 C126.920173,66.0690403 126.638991,66.1940942 126.421764,66.1940942 C126.203434,66.1940942 125.862708,66.3080813 125.663124,66.4464153 C125.46354,66.5858559 125.01034,66.7618166 124.657484,66.8370703 C124.303526,66.912324 123.920898,67.0484446 123.808425,67.1402983 C123.694849,67.2310454 123.281346,67.3251124 122.888794,67.3494592 L122.176466,67.3926194 L122.12023,66.4032551 C122.088252,65.8421726 122.187493,65.0509025 122.349586,64.5728204 C122.507269,64.1091251 122.635179,63.3809352 122.635179,62.95376 C122.635179,62.5276915 122.753165,61.7740482 122.896513,61.2804728 C123.039861,60.7880039 123.248266,59.7610128 123.359636,59.0007295 C123.730135,56.4620251 124.080785,54.4877232 124.278164,53.8370003 C124.385124,53.4828654 124.473338,52.8487427 124.473338,52.4293142 C124.473338,52.008779 124.591324,51.2606691 124.734672,50.7670936 C124.878019,50.2746248 125.086425,49.2476336 125.197795,48.4873503 C125.627838,45.5380708 125.915636,43.8858103 126.031417,43.6976761 C126.09868,43.5892223 126.22659,42.8588191 126.315907,42.0741891 C126.406326,41.289559 126.561804,40.3156881 126.662147,39.9106463 C126.867244,39.0773227 127.155043,37.395182 127.417479,35.4839603 C127.515617,34.7734772 127.719612,33.729886 127.871781,33.1654836 C128.374601,31.3018488 128.328288,28.6945307 127.781362,28.1057815 C126.247541,26.4524143 122.819326,28.6602239 122.819326,31.3007421 C122.819326,31.6991438 122.695826,32.3775335 122.543657,32.8091353 C122.392591,33.2407372 122.267988,33.9467936 122.267988,34.3783955 C122.267988,34.8111041 122.150002,35.5680674 122.006654,36.0616429 C121.863307,36.5552183 121.653798,37.5822095 121.542428,38.3424928 C120.985578,42.1184559 120.816868,43.0879001 120.631619,43.5648756 C120.521352,43.8503968 120.426522,44.4734528 120.422111,44.9482149 C120.4177,45.4240837 120.295303,46.1445268 120.14975,46.5506752 C120.003094,46.955717 119.880698,47.6197199 119.87739,48.0258683 C119.872979,48.4320168 119.781457,49.0960197 119.672292,49.5010614 C119.56423,49.9072099 119.364646,50.9862146 119.229017,51.8992185 C119.093388,52.8122225 118.894906,53.8491737 118.787947,54.2033086 C118.679885,54.5574435 118.592774,55.1251659 118.592774,55.4649141 C118.592774,55.8035556 118.472582,56.5926123 118.325926,57.2178817 C118.040334,58.4319003 117.813183,59.7355594 117.414014,62.4413711 C117.277283,63.3709752 117.108573,64.2231122 117.039105,64.3348861 C116.969636,64.4477666 116.838418,65.1814898 116.747999,65.9661198 C116.418299,68.8213323 115.782056,69.8826302 114.401507,69.8826302 C114.218463,69.8826302 113.907509,70.0043641 113.711233,70.1537648 C113.514957,70.3020587 113.247007,70.4271126 113.114686,70.4304326 C112.895253,70.435966 112.218211,70.7104205 110.505757,71.4884106 C110.151799,71.6499846 109.738296,71.8525055 109.587229,71.9399325 C109.43506,72.0273596 109.186958,72.1457734 109.035892,72.2022137 C108.883723,72.2597606 108.635621,72.3837078 108.484555,72.4788816 C108.332386,72.5729486 108.010405,72.7356293 107.766713,72.8407631 C107.523022,72.9447903 106.960658,73.2767917 106.517383,73.5778063 C106.073005,73.878821 105.67494,74.1245021 105.633038,74.1245021 C104.310931,74.1245021 99.2717076,79.551619 97.8481545,82.5086453 C96.8392072,84.6057877 96.629699,85.2554039 96.1511382,87.7741882 C95.8468,89.3722218 96.03646,95.1103135 96.4146774,95.7975565 C96.5833867,96.1018912 96.721221,96.4372126 96.721221,96.5423464 C96.7234264,96.7824941 97.2350674,97.7796052 97.8680027,98.7722895 C99.4282874,101.220247 103.565523,102.660026 106.279205,101.699436 C106.709248,101.546715 107.219787,101.422768 107.41496,101.422768 C107.764508,101.422768 109.232168,100.842872 109.771376,100.493164 C109.922442,100.39467 110.170544,100.258549 110.322713,100.192149 C110.868537,99.9508946 112.088096,98.9283302 113.0794,97.8792056 C114.672765,96.1937449 115.041058,95.6625426 116.087497,93.5443734 C116.376397,92.9578375 116.728151,92.2573144 116.86819,91.9872866 C117.00823,91.7183654 117.122908,91.386364 117.122908,91.2502434 C117.124011,91.1130161 117.239792,90.779908 117.379831,90.5098801 C117.520974,90.2387456 117.695196,89.6577431 117.767973,89.2183945 C117.839647,88.7790459 117.970865,88.3297373 118.057976,88.2201768 C118.14619,88.111723 118.293949,87.488667 118.387676,86.8368375 C118.481403,86.1861146 118.64901,85.4191913 118.759277,85.13367 C118.869545,84.8481488 118.959964,84.2494395 118.959964,83.8023442 C118.959964,83.3563556 119.075745,82.6359125 119.216887,82.2009906 C119.35803,81.7660687 119.527842,80.8840515 119.595105,80.2399687 C119.662368,79.5969926 119.794689,78.8654827 119.890622,78.6142683 C119.985452,78.3619472 120.143134,77.5197702 120.241272,76.7406735 C120.550021,74.2993562 120.946984,73.2026447 121.52258,73.2026447 C121.70783,73.2026447 122.094868,73.0786975 122.384872,72.9270835 C122.674875,72.7754695 123.158949,72.6482023 123.462185,72.6448823 C123.765421,72.6404556 124.174513,72.5154017 124.370789,72.3671077 C124.567065,72.2177071 124.897867,72.0959732 125.106273,72.0948666 C125.313576,72.0937599 125.720463,71.9698127 126.010466,71.8181987 C126.30047,71.6665847 126.631272,71.5393175 126.74595,71.5359974 C126.860628,71.5326774 127.285158,71.3699967 127.68984,71.1741159 C128.093419,70.978235 128.506922,70.8144476 128.608368,70.8111276 C128.709814,70.8078076 129.371419,70.5156463 130.078233,70.1626181 C130.78615,69.8084833 131.468706,69.5185353 131.594411,69.516322 C131.721218,69.5152153 131.82487,69.438855 131.82487,69.3470012 C131.82487,69.2562542 132.052021,69.0891468 132.329895,68.977373 C132.607769,68.8667058 133.083022,68.609958 133.386257,68.4085438 C133.689493,68.2071296 134.062197,67.9846886 134.213263,67.9138617 C135.830887,67.1568984 139.82698,63.71515 141.563693,61.5825941 C142.017995,61.0248316 142.49435,60.4582158 142.621158,60.3243086 C142.747965,60.1904013 142.851617,59.9978405 142.851617,59.8982401 C142.851617,59.416838 144.020452,59.8395865 144.19688,60.3840688 C144.296121,60.6884035 144.426236,60.9783514 144.486883,61.0292583 C144.548633,61.0801652 144.823199,61.4531135 145.098868,61.8592619 C145.829941,62.9382666 147.233646,64.3669795 148.180844,64.9966756 C148.636248,65.2999036 149.049751,65.5887449 149.099372,65.6396518 C149.206331,65.7481056 150.594598,66.4220685 151.397346,66.7562833 C153.904828,67.7998745 160.346653,67.8363947 162.635806,66.8193636 C162.953376,66.6788163 163.35475,66.5626158 163.525665,66.5626158 C163.696579,66.5626158 164.057154,66.4475219 164.325104,66.3080813 C164.593054,66.1675341 165.291047,65.8145058 165.876567,65.5234512 C168.047734,64.4433399 169.379765,63.4960291 171.050317,61.8415552 C172.586343,60.3187752 173.128858,60.1406011 173.37696,61.0779519 C173.499357,61.5394339 173.931606,62.4646112 174.538077,63.560216 C176.526199,67.1491517 184.113704,68.8146923 189.071329,66.7507499 C190.424311,66.1874541 191.300937,65.7503189 191.599762,65.4924644 C192.097069,65.0619692 192.761981,65.4481976 192.913048,66.2560678 C193.056396,67.0185644 193.982642,67.6692873 194.924326,67.6692873 C195.841752,67.6692873 197.617058,66.6234827 197.617058,66.083427 C197.617058,65.9661198 197.74166,65.766919 197.892727,65.6407584 C198.044896,65.5145979 198.168395,65.1814898 198.168395,64.9015019 C198.168395,64.6204073 198.285279,63.9873912 198.428627,63.4938157 C198.570872,63.0013469 198.778175,61.9743558 198.887339,61.2140725 C199.329512,58.1618725 199.49381,57.2046017 199.744118,56.2218774 C199.888568,55.6574749 200.009862,54.8274713 200.014273,54.377056 C200.018684,53.9277474 200.142183,53.2272243 200.287736,52.8210759 C200.433289,52.4160341 200.553481,51.7487112 200.554583,51.3381361 C200.556789,50.9286676 200.674775,50.1407175 200.818123,49.5862751 C200.96147,49.0329394 201.166568,47.9982015 201.273527,47.2877184 C201.479728,45.9209792 201.754294,44.6958938 202.058632,43.7839965 C202.16118,43.4796618 202.324376,42.8986593 202.422514,42.4925109 C202.520652,42.0863624 202.678335,41.6757873 202.774268,41.5795069 C202.869098,41.4832265 202.947388,41.2818123 202.947388,41.1324116 C202.947388,40.7517166 204.435998,37.789157 204.627864,37.789157 C204.713872,37.789157 204.784444,37.6629965 204.784444,37.5091692 C204.784444,36.9912469 207.384551,34.5499296 208.460761,34.0574608 C211.546045,32.6464546 213.746983,32.6265345 216.516902,33.9855271 C217.370373,34.4049556 219.119215,36.0339761 219.119215,36.4091377 C219.119215,36.5352982 219.234995,36.7333924 219.376138,36.8506996 C219.51728,36.9680068 219.685989,37.3487018 219.749945,37.6961966 C219.815002,38.0425848 219.989225,38.5582937 220.135881,38.8416016 C220.283639,39.1249095 220.403831,39.6317651 220.404933,39.9681932 C220.406036,40.3046213 220.498661,40.7528233 220.611133,40.9641976 C220.723606,41.1744651 220.883494,42.0620157 220.966195,42.9340728 C221.048895,43.8072366 221.20327,45.0610954 221.306921,45.7206716 C221.411675,46.3791411 221.587001,47.7492005 221.697268,48.7640182 C222.078793,52.2865536 222.373208,54.299589 222.583818,54.8164046 C222.699599,55.1019258 222.795532,55.6464082 222.795532,56.0259965 C222.795532,56.4055848 222.916826,56.8781336 223.064585,57.0740144 C223.213446,57.2710019 223.340253,57.6406302 223.346869,57.894058 C223.353485,58.1474858 223.518887,58.6864348 223.71406,59.0925832 C223.909233,59.4987317 224.072429,59.9757071 224.075737,60.1527745 C224.079045,60.3309486 224.162849,60.4759226 224.262089,60.4759226 C224.36133,60.4759226 224.498062,60.7038969 224.565325,60.9827781 C224.633691,61.2616593 224.739547,61.5316872 224.799092,61.5825941 C224.859739,61.633501 225.157461,62.0440761 225.460697,62.4955981 C226.610786,64.2087255 229.25059,66.5626158 230.023565,66.5626158 C230.151475,66.5626158 230.35988,66.6666429 230.485585,66.7928034 C232.080053,68.3941571 241.032669,67.4866865 243.442013,65.4791844 C243.88198,65.1139828 244.4675,65.4581576 244.665982,66.1985209 C245.350743,68.7493986 249.994106,67.4202862 249.994106,64.6735275 C249.994106,64.4189931 250.118708,63.8579107 250.269775,63.4274154 C250.421944,62.9958136 250.545443,62.2997172 250.545443,61.8813954 C250.545443,61.4619669 250.636965,60.8289508 250.748335,60.4748159 C250.859706,60.120681 251.058187,59.1246767 251.189405,58.2625796 C251.320624,57.4004825 251.5169,56.3624247 251.624962,55.9573829 C251.734127,55.5512345 251.825649,54.8772715 251.827854,54.4589497 C251.830059,54.0406279 251.955764,53.3445315 252.107933,52.9140363 C252.259,52.4824344 252.383602,51.7608846 252.383602,51.3104693 C252.383602,49.9481567 253.258023,49.3638342 253.852365,50.3288517 C253.905293,50.4151721 254.174346,50.7626669 254.448912,51.1002017 C254.906522,51.6646042 256.500989,53.7894134 260.102325,58.6355279 C260.860965,59.655879 261.687971,60.7182836 261.940484,60.9971649 C262.192996,61.2771527 262.854601,62.030796 263.410349,62.6737722 C268.53117,68.5911446 276.145139,69.3160144 282.982825,64.5374069 C284.04029,63.7981504 283.971924,63.8556973 285.432968,62.4590779 C286.655834,61.2893261 287.039565,61.1664856 287.303104,61.8636886 C287.801513,63.1773077 289.805073,65.6363317 290.69824,66.0292001 C290.902234,66.1188405 291.193341,66.2627078 291.344407,66.3490282 C292.289399,66.8835505 292.661001,67.0285245 293.733903,67.2764189 C299.132598,68.5236377 305.633968,66.5083889 308.579212,62.6737722 C308.955224,62.1835167 309.358803,61.7795816 309.47679,61.7751549 C309.71607,61.7663015 310.641214,62.8032527 310.641214,63.0799206 C310.641214,63.6576031 313.035121,65.8786928 314.335174,66.5072822 C317.026803,67.8098345 322.670292,67.9846886 325.251654,66.8459237 C327.980774,65.6418651 329.002953,65.0110623 330.400042,63.6675632 C331.179633,62.9161332 331.63173,62.3827176 332.554668,61.1211121 C333.835976,59.3703578 333.76761,59.359291 335.268351,61.5892341 C335.873719,62.488958 338.037167,64.5197002 338.922615,65.018809 C339.438666,65.3098636 339.862093,65.6108783 339.862093,65.686132 C339.862093,65.7624923 339.965745,65.8255726 340.092552,65.8255726 C340.218257,65.8266792 340.570011,65.9583731 340.873246,66.1177338 C344.026896,67.7799544 350.109249,68.0699023 353.829674,66.7374699 C357.791584,65.3176103 360.052067,63.9730045 362.94328,61.3180996 C364.749461,59.6580924 365.407758,59.5263984 365.407758,60.8256308 C365.407758,61.4575402 366.87211,63.9796445 367.746531,64.853915 C368.30669,65.4138908 369.954086,66.5626158 370.196674,66.5626158 C370.304736,66.5626158 370.574892,66.6655362 370.795427,66.7905901 C372.557501,67.7910211 379.072103,67.8164746 380.873873,66.8293236 C381.141823,66.683243 381.524451,66.5626158 381.724036,66.5626158 C381.92362,66.5626158 382.189364,66.4386686 382.315069,66.2859479 C382.440774,66.1332272 382.688876,66.00928 382.866406,66.00928 C383.043937,66.00928 383.28432,65.8941862 383.401204,65.7525322 C383.983416,65.0486892 384.888712,65.4006107 384.888712,66.3313214 C384.888712,68.000182 387.632167,68.2746366 389.108648,66.7540699 C390.08231,65.7503189 390.001814,66.0524402 391.139775,59.184437 C391.24894,58.5248607 391.420957,57.6539103 391.520197,57.2477618 C391.619438,56.8427201 391.782634,55.8566758 391.881875,55.057659 C391.982218,54.2575355 392.11895,53.5127456 392.187316,53.4020784 C392.255681,53.2914113 392.414467,52.534448 392.541274,51.7199378 C392.666979,50.9054275 392.862153,49.782156 392.973523,49.2243935 C393.421209,46.9922372 393.548016,46.3249142 393.702391,45.3875635 C393.791707,44.8497212 393.942774,44.3107721 394.037604,44.1890383 C394.132434,44.0673044 394.265857,43.7187029 394.334223,43.4143682 C394.459928,42.8510724 394.512857,42.7260186 395.57363,40.463982 C398.572905,34.0696342 404.240653,31.190075 407.557498,34.3772888 C408.327165,35.1165454 409.142042,36.17231 409.153068,36.4445512 C409.156377,36.5242315 409.319572,36.9226333 409.514746,37.327675 C409.709919,37.7338235 409.873115,38.1742787 409.876423,38.308186 C409.879731,38.4409866 410.014257,38.9544821 410.175248,39.4480576 C410.517077,40.4982889 410.464149,47.0486774 410.105779,48.0258683 C409.994409,48.330203 409.820187,49.1602066 409.717638,49.8706897 C409.320675,52.6318351 409.11668,53.7794534 408.861962,54.6824973 C408.715307,55.1982062 408.591807,55.987263 408.587396,56.4343583 C408.582986,56.8814536 408.460589,57.5797633 408.315036,57.9859117 C408.169483,58.3920602 408.049291,59.0029428 408.047086,59.3437976 C408.045983,59.6857591 407.887198,60.63971 407.69423,61.4652869 C407.01829,64.3614462 407.057987,67.1159515 407.775828,67.1159515 C407.898225,67.1159515 408.10222,67.2398987 408.227924,67.3926194 C409.422121,68.835719 412.622083,66.2051609 412.647445,63.7594169 C412.651855,63.3233883 412.774252,62.633932 412.919805,62.2277836 C413.065358,61.8227418 413.18555,61.1410321 413.187755,60.7127503 C413.188858,60.2855751 413.306844,59.5795187 413.447986,59.1445968 C413.590231,58.7107816 413.764454,57.7734308 413.835025,57.0640544 C413.905596,56.3535713 414.035712,55.6353415 414.125029,55.4682341 C414.214345,55.30002 414.367617,54.5120699 414.466858,53.7152665 C414.566099,52.9195697 414.729294,51.9357387 414.828535,51.5306969 C414.927776,51.1245485 415.097588,50.2524914 415.20565,49.5940218 C415.736036,46.3348743 416.339199,43.5958624 416.657872,42.9982597 C416.772551,42.7846722 416.866278,42.4703774 416.866278,42.3021634 C416.866278,42.0122155 417.109969,41.367026 417.702105,40.0943538 C417.843248,39.7900191 418.047243,39.3340704 418.155305,39.0806427 C419.298778,36.3969643 421.691582,34.2743684 424.676523,33.2938575 C427.877587,32.2425195 432.292697,34.2090748 432.965328,36.9868202 C433.0359,37.2756615 433.204609,37.6762766 433.341341,37.8765841 C433.478072,38.0768916 433.589442,38.3967197 433.589442,38.5892805 C433.589442,38.7818414 433.709634,39.3230037 433.85629,39.7933391 C434.17386,40.8136902 434.444015,42.4183639 434.699836,44.7977076 C434.803487,45.7616185 434.976607,46.945757 435.083567,47.4282657 C435.190526,47.9107745 435.350414,49.1978334 435.437525,50.2867982 C435.524636,51.3768696 435.682319,52.7037687 435.788176,53.2360777 C435.89293,53.7694934 436.063844,54.6404438 436.168598,55.1727528 C436.583204,57.290922 436.738681,57.8995914 436.995604,58.3931668 C437.14226,58.6764747 437.263554,59.0848365 437.264657,59.3006375 C437.264657,59.5164384 437.389259,59.7964263 437.541428,59.9225868 C437.692495,60.0487474 437.817097,60.272295 437.817097,60.420589 C437.817097,60.875431 439.272628,63.1750943 440.174616,64.1445386 C441.318089,65.3729439 441.980797,65.8034391 444.295311,66.8260036 C446.534843,67.8164746 453.12553,67.8175812 454.936122,66.8293236 C455.205174,66.6821363 455.587802,66.5626158 455.787387,66.5626158 C455.986971,66.5626158 456.252715,66.4375619 456.37842,66.2859479 C456.504125,66.1332272 456.701504,66.00928 456.816182,66.00928 C457.679576,66.00928 461.076917,63.0168403 462.258984,61.2140725 C463.480748,59.3515443 463.513828,59.355971 465.015671,61.5892341 C465.622142,62.488958 467.784487,64.5197002 468.669935,65.018809 C469.187089,65.3098636 469.610517,65.6108783 469.610517,65.686132 C469.610517,65.7624923 469.714168,65.8255726 469.839873,65.8255726 C469.96668,65.8266792 470.318434,65.9583731 470.621669,66.1177338 C473.775319,67.7799544 479.85657,68.0699023 483.578097,66.7374699 C487.538904,65.3176103 489.80049,63.9730045 492.690601,61.3180996 C494.497884,59.6580924 495.156181,59.5263984 495.156181,60.8256308 C495.156181,61.4575402 496.620533,63.9796445 497.494954,64.853915 C498.05401,65.4138908 499.701406,66.5626158 499.943995,66.5626158 C500.053159,66.5626158 500.322212,66.6655362 500.54385,66.7905901 C502.335696,67.8087279 508.754365,67.8297546 510.621194,66.8248969 C510.890246,66.6810296 511.228767,66.5626158 511.374321,66.5626158 C511.518771,66.5626158 512.002845,66.3556682 512.448326,66.1033471 C512.893806,65.851026 513.458376,65.541158 513.702067,65.4149974 C514.596336,64.9513021 517.944056,61.6921545 517.944056,61.2848994 C517.944056,61.2439526 518.213109,60.8167774 518.541706,60.3353753 C519.975183,58.2371262 521.382196,54.7975912 522.255514,51.2540291 C522.393349,50.6962666 522.596241,49.9492634 522.706508,49.5940218 C523.266667,47.791254 523,45.816952 522.114372,45.2127094 C520.494543,44.1093579 517.980445,45.6642314 517.657361,47.9705348 C517.595611,48.4065633 517.429107,49.0760996 517.28576,49.4590079 C517.142412,49.8419162 517.025528,50.398572 517.025528,50.6973733 C517.025528,50.9961746 516.913056,51.5140969 516.775221,51.847205 C516.63849,52.1803131 516.34187,53.0335568 516.116924,53.7440399 C515.027482,57.1824682 512.927989,60.1262144 510.869296,61.104512 C510.464614,61.2970728 509.900044,61.5748474 509.614452,61.720928 C508.839271,62.1204364 504.320511,62.0994097 503.704115,61.6932612 C503.457116,61.5305805 503.140649,61.3977799 503.000609,61.3977799 C502.154857,61.3977799 500.759974,59.426798 500.030003,57.2012816 C499.666121,56.0901835 499.698098,50.937521 500.078521,49.4092077 C500.192096,48.9521524 500.372935,47.9572547 500.480997,47.1958647 C500.863625,44.4856262 501.188914,42.599858 501.309106,42.4061905 C501.375266,42.2977367 501.503177,41.5673335 501.592493,40.7838101 C501.682913,39.99918 501.83839,39.0253091 501.938733,38.6191607 C502.12288,37.8721574 502.303719,36.8318862 502.77015,33.8239531 C502.911292,32.9109491 503.117492,31.8739979 503.226657,31.5187564 C503.335822,31.1646215 503.426241,30.4087649 503.426241,29.8399357 C503.426241,26.534308 498.664892,27.0212435 498.06614,30.3877381 C497.521418,33.4565382 497.343888,33.5826987 495.808965,31.9957318 C495.161695,31.3273022 494.547505,30.7806065 494.443853,30.7806065 C494.340202,30.7806065 494.189135,30.6765794 494.10864,30.5493122 C493.943239,30.290351 493.49004,29.9826964 492.675163,29.5743346 C492.371928,29.4227206 491.999224,29.2290531 491.848157,29.144946 C491.162293,28.7598244 490.232739,28.3957294 489.642808,28.2806356 C489.288849,28.212022 488.884168,28.0626213 488.744128,27.9486342 C488.375834,27.6498329 482.425802,27.5535524 481.372748,27.8302203 C480.917343,27.9497408 480.132238,28.1456217 479.626111,28.2651422 C479.121086,28.3857694 478.526744,28.5849703 478.306209,28.7100241 C478.085674,28.8339714 477.786849,28.9357851 477.642399,28.9357851 C477.293954,28.9357851 473.394896,30.9432872 473.316606,31.1624082 C473.283526,31.2564752 473.173258,31.3339422 473.074018,31.3339422 C472.392565,31.3339422 468.19358,35.1940124 466.755692,37.1439676 C466.455764,37.5490093 466.14481,37.9640111 466.064315,38.0658249 C465.613321,38.6335474 464.649583,40.292448 464.024367,41.5761869 C463.629609,42.3840571 463.196258,43.2660742 463.059526,43.5349954 C462.922795,43.8050233 462.810322,44.1525181 462.810322,44.3074521 C462.810322,44.4623861 462.713286,44.823161 462.594197,45.1086823 C462.382484,45.6166445 462.129971,46.7222093 461.63487,49.317354 C461.499242,50.0267304 461.295247,50.8412406 461.180569,51.1278685 C461.066993,51.4133898 460.973266,51.8737651 460.973266,52.1526463 C460.973266,52.4315275 460.851971,52.8199692 460.70311,53.0169567 C460.554249,53.2139443 460.43075,53.5691858 460.427442,53.8071202 C460.424134,54.0450546 460.301737,54.4600564 460.153978,54.7300842 C460.007323,54.9990054 459.668802,55.6762883 459.401954,56.2340508 C458.516506,58.0844055 458.356619,58.3201265 457.225274,59.4478248 C456.07739,60.5932298 455.71461,60.8743243 454.908555,61.2406326 C453.305266,61.9699291 453.197204,61.9887425 450.547476,61.9798891 L447.883414,61.9721424 L446.514995,61.2837928 C444.287592,60.1649479 441.859503,56.7995599 441.859503,54.831898 C441.859503,54.5751502 441.770186,54.1955619 441.659918,53.989721 C441.549651,53.7827734 441.336835,52.7712757 441.187974,51.7420712 C441.03801,50.7128667 440.846145,49.4136344 440.760136,48.8558719 C440.674127,48.2981095 440.59694,47.2866118 440.589221,46.6082221 C440.5804,45.9298325 440.491083,45.1573758 440.389637,44.890668 C440.289294,44.6239602 440.160281,43.6855027 440.104044,42.8034856 C440.046705,41.9225751 439.885715,40.6620762 439.744572,40.0025 C439.43031,38.5262003 439.144717,37.2203279 438.898821,36.1291498 C438.726804,35.3633331 438.357408,34.407169 437.973677,33.7309927 C437.886566,33.5793787 437.731089,33.2562306 437.627437,33.0127629 C437.215037,32.0499587 435.504788,30.1309903 434.410935,29.4039072 C433.662219,28.9070117 432.633423,28.3824494 432.401862,28.3813427 C432.297108,28.380236 431.962997,28.2374754 431.659762,28.063728 C430.322217,27.2968047 424.282868,27.6752863 422.103983,28.6624373 C421.800747,28.7996645 421.428043,28.9623452 421.276977,29.0232122 C420.143427,29.4802675 418.529111,30.735233 416.845327,32.4671739 C414.768991,34.6030498 414.851691,34.5798097 414.176854,33.2241372 C413.565973,31.9946251 413.644263,32.1063989 412.434628,30.7407663 C410.352779,28.3890894 408.377888,27.5778992 404.958494,27.6719663 C403.523914,27.7118065 402.485195,27.8213669 402.329717,27.9508475 C402.187472,28.0681547 401.743095,28.2264087 401.341721,28.3016624 C400.939245,28.376916 400.499278,28.5506635 400.363649,28.6878907 C400.226917,28.8240113 399.966686,28.9357851 399.783642,28.9357851 C399.6017,28.9357851 399.349188,29.060839 399.223483,29.212453 C399.097778,29.3651737 398.925761,29.4891209 398.841957,29.4891209 C398.758154,29.4891209 398.334727,29.7303753 397.900273,30.0236432 C396.582577,30.9156204 396.397328,30.8691402 396.260596,29.6064281 C396.100708,28.134555 395.55709,27.6442995 394.083916,27.6442995 C391.860924,27.6442995 391.061485,28.8561048 390.311666,33.3624711 C389.753713,36.7156857 389.640137,37.3708352 389.394241,38.6191607 C389.254201,39.3296438 389.050206,40.4495953 388.939939,41.1091715 C388.757997,42.2025629 388.613547,43.0624467 388.011487,46.642529 C387.901219,47.3021052 387.719278,48.2151092 387.607908,48.6710578 C387.496538,49.1281131 387.345471,49.9581167 387.272695,50.5158792 C387.201021,51.0736416 387.05216,51.779698 386.941892,52.0840327 C386.832727,52.3883673 386.564777,53.1763174 386.34755,53.8358936 C384.704565,58.823662 381.715214,61.7784749 378.078593,62.0108759 C376.463175,62.1137964 373.803523,61.8670086 373.716412,61.6069408 C373.677818,61.491847 373.485953,61.3977799 373.289677,61.3977799 C372.861839,61.3977799 371.105278,59.733346 371.105278,59.3294109 C371.105278,59.1733702 370.980676,58.9420759 370.82961,58.8159153 C370.67744,58.6897548 370.553941,58.3987002 370.553941,58.1707259 C370.553941,57.9416449 370.429339,57.4558161 370.278272,57.0917212 C369.904465,56.1953173 369.90226,51.6004172 370.273861,50.0543972 C370.420517,49.4457278 370.542914,48.5736707 370.547325,48.1166154 C370.550633,47.6595601 370.64436,46.9955572 370.75573,46.6414223 C370.8671,46.2872874 371.065582,45.2912831 371.1968,44.429186 C371.602584,41.761001 371.853994,40.309048 372.042552,39.541018 C372.141792,39.1359762 372.296167,38.1621053 372.386586,37.3774753 C372.475903,36.5928452 372.612635,35.8491619 372.689822,35.724108 C372.767009,35.5990542 372.931308,34.787864 373.054807,33.9224469 C373.179409,33.0559231 373.377891,31.8917047 373.49698,31.3339422 C374.016339,28.8970516 373.43523,27.7948068 371.570607,27.683033 C369.93093,27.5845392 368.623157,28.6712906 368.318819,30.3877381 C367.772995,33.4565382 367.595465,33.5826987 366.060541,31.9957318 C365.413271,31.3273022 364.799082,30.7806065 364.69543,30.7806065 C364.591779,30.7806065 364.440712,30.6765794 364.360217,30.5493122 C364.194816,30.290351 363.741617,29.9826964 362.92674,29.5743346 C362.623504,29.4227206 362.2508,29.2290531 362.099734,29.144946 C361.41387,28.7598244 360.484316,28.3957294 359.894385,28.2806356 C359.540426,28.212022 359.136847,28.0626213 358.996807,27.9486342 C358.627411,27.6498329 352.677379,27.5535524 351.624324,27.8302203 C351.170022,27.9497408 350.383815,28.1456217 349.87879,28.2651422 C349.372663,28.3857694 348.779424,28.5849703 348.557786,28.7100241 C348.337251,28.8339714 348.026297,28.9357851 347.868614,28.9357851 C345.99517,28.9357851 339.403381,33.9180202 337.010577,37.1439676 C336.708444,37.5490093 336.396387,37.9640111 336.315892,38.0658249 C335.913415,38.5737871 334.914392,40.221621 334.810741,40.5503024 C334.745683,40.7561433 334.614465,40.9243574 334.520737,40.9243574 C334.425907,40.9243574 334.34872,41.0195311 334.34872,41.134625 C334.34872,41.3382525 333.840387,42.519071 333.315514,43.5349954 C333.176577,43.8050233 333.061899,44.1779716 333.061899,44.364999 C333.060796,44.5531332 332.948323,44.9227615 332.810489,45.187256 C332.672654,45.4517504 332.50174,46.1345667 332.431169,46.7056092 C332.359495,47.2766517 332.232687,47.7857206 332.148884,47.8377342 C332.065081,47.8908544 331.93717,48.4441901 331.864394,49.0683529 C331.79272,49.6936223 331.618497,50.479359 331.47956,50.8157872 C331.339521,51.1511086 331.224843,51.6159106 331.22374,51.847205 C331.222637,52.0784993 331.099138,52.5056745 330.948071,52.7967291 C330.797005,53.086677 330.673505,53.447452 330.673505,53.5990659 C330.673505,54.0694013 329.005158,57.6350969 328.508955,58.2249528 C328.334732,58.4319003 328.027086,58.8280887 327.825297,59.1058633 C327.398561,59.6912925 325.209752,61.3977799 324.885566,61.3977799 C324.764272,61.3977799 324.402594,61.5294738 324.080613,61.6910479 C323.111362,62.17577 319.045801,62.1038363 317.879171,61.5803807 C316.868018,61.1255387 315.28568,59.5529586 315.114765,58.8314087 C315.053016,58.5691276 314.9229,58.2537262 314.825865,58.1308857 C314.729932,58.0080452 314.541374,57.0120408 314.407951,55.9175427 C314.091483,53.3356781 314.272322,50.8921475 315.143435,45.9973395 C315.287885,45.1850426 315.496291,43.9820907 315.606558,43.3225145 C315.715723,42.6629383 315.891048,41.7919878 315.995802,41.3858394 C316.101659,40.979691 316.243904,40.1839942 316.31227,39.6162717 C316.455618,38.4476266 316.783112,38.0193447 317.660841,37.853344 C317.994952,37.7902637 318.475718,37.6353297 318.72823,37.5102758 C318.980743,37.385222 319.600446,37.081994 320.106574,36.8374196 C322.330669,35.7584149 325.804094,32.8047087 326.99829,30.9753807 C327.149357,30.7429797 327.527574,30.2106707 327.838529,29.7912422 C328.14838,29.370707 328.462642,28.9036917 328.536522,28.750971 C328.609298,28.599357 328.866221,28.1423017 329.106605,27.7372599 C330.340497,25.6533975 331.798233,22.0888086 332.159911,20.2672274 C332.25033,19.810172 332.40691,19.271223 332.507253,19.0675955 C332.606494,18.8650746 332.770793,18.0771245 332.872239,17.3157345 C332.972582,16.5554512 333.154523,15.2473655 333.274715,14.4107218 C333.543767,12.5526204 333.069617,8.67152349 332.421245,7.42541139 C332.270178,7.13325012 332.145576,6.75919515 332.144473,6.5943011 C332.144473,6.42940705 332.019871,6.19036601 331.867702,6.06420546 C331.716636,5.93804491 331.592033,5.72777732 331.592033,5.59719009 C331.592033,5.23752185 329.559804,3.24883319 328.832039,2.89691165 C327.140536,2.07908142 326.836197,2.00714778 325.06861,2.00714778 C323.260223,2.00714778 322.918394,2.09236148 321.169552,2.98101869 C319.400862,3.88074261 317.057678,6.98938282 316.611095,9.02897838 C316.543832,9.33995307 316.371814,9.81692848 316.230672,10.0891697 C316.08953,10.3603042 315.972646,10.8583063 315.972646,11.1947345 C315.971544,11.5311626 315.877816,11.9815779 315.763138,12.1962722 C315.64846,12.4109664 315.481956,13.2498234 315.390434,14.0621203 C315.300015,14.8733105 315.156667,15.6258471 315.070658,15.7343009 C314.985752,15.8438614 314.857842,16.5443845 314.787271,17.2936011 C314.715597,18.041711 314.574455,18.8717146 314.471906,19.1373158 C314.37046,19.4040236 314.214983,20.2439873 314.125666,21.0042706 C314.037452,21.7656606 313.883078,22.7196114 313.782734,23.1257598 C313.682391,23.5319082 313.511476,24.4028587 313.403414,25.0624349 C313.224781,26.1558263 313.086947,26.9780833 312.47827,30.5957924 C312.368003,31.2553686 312.162905,32.3753201 312.022865,33.0858032 C311.721835,34.6119032 311.436243,36.2984706 311.18373,38.0248781 C311.083387,38.7132277 310.879392,39.7468589 310.729428,40.3234348 C310.580567,40.9000106 310.45817,41.6757873 310.45817,42.0465223 C310.45817,42.4183639 310.333568,43.0757268 310.182501,43.5073286 C310.030332,43.9378238 309.906833,44.6449869 309.906833,45.0765888 C309.906833,45.5092974 309.789949,46.2662607 309.646602,46.7598361 C309.503254,47.2534116 309.30367,48.1553489 309.202224,48.7640182 C308.930966,50.4007853 308.528489,52.0298058 308.283696,52.4868611 C308.165709,52.7081954 308.068674,53.086677 308.068674,53.3279314 C308.068674,53.5680791 307.94738,53.9266407 307.798519,54.1236282 C307.65076,54.3206158 307.526158,54.6304838 307.52285,54.8119779 C307.509618,55.6087814 305.839066,58.3599667 304.580914,59.659199 C302.912567,61.3811799 301.380952,61.9798891 298.631984,61.9843158 C296.309751,61.9876358 295.203768,61.8603686 295.203768,61.5881274 C295.203768,61.5051271 295.008595,61.3889266 294.769315,61.3291663 C292.494497,60.7559105 290.815123,55.0100721 291.690647,50.792547 C291.795401,50.2856915 291.963007,49.2066868 292.062248,48.3943899 C292.249703,46.8572232 292.518756,45.2912831 292.837429,43.8758502 C292.94108,43.4187949 293.10207,42.438284 293.195798,41.6957074 C293.289525,40.9531308 293.449413,40.1917409 293.550859,40.0025 C293.651202,39.8132592 293.733903,39.4414176 293.733903,39.1758164 C293.733903,38.5671471 294.494749,37.789157 295.08909,37.789157 C295.48495,37.789157 295.896248,37.6286897 297.041927,37.0288737 C297.192994,36.9503001 297.671554,36.7068323 298.104906,36.4877114 C299.811846,35.6256143 303.363561,32.4804539 304.163,31.1214613 C304.332812,30.8326201 304.536807,30.5957924 304.6162,30.5957924 C304.695592,30.5957924 304.76065,30.4685251 304.76065,30.3135911 C304.76065,30.1575505 304.88415,29.9826964 305.036319,29.9251494 C305.187385,29.8664959 305.311987,29.7093485 305.311987,29.5743346 C305.311987,29.4404273 305.434384,29.2080263 305.583245,29.0586257 C305.733209,28.9081183 306.064011,28.3924094 306.318729,27.912114 C306.573447,27.4307119 306.854629,26.9459898 306.942843,26.834216 C307.03216,26.7224422 307.167789,26.4225342 307.243873,26.1691064 C307.319958,25.9156786 307.434636,25.6666776 307.497489,25.6157707 C307.561444,25.5648638 307.802929,25.0259148 308.035594,24.4172454 C308.268258,23.8085761 308.572596,23.0615729 308.711533,22.7572382 C308.85047,22.4529035 309.020282,21.9128479 309.088648,21.5576063 C309.158117,21.2023648 309.28713,20.8205631 309.376446,20.7098959 C309.465763,20.5981221 309.591468,20.10012 309.656526,19.6032245 C309.720481,19.1052223 309.859418,18.5330731 309.964172,18.3305522 C310.607031,17.0844401 310.578362,8.69476359 309.928886,8.04293408 C309.815311,7.92894692 309.722686,7.68990587 309.722686,7.51283844 C309.722686,6.88424903 308.572596,4.9951608 307.493078,3.84975581 C305.942717,2.20524197 301.745937,1.46045206 299.522945,2.43542964 M302.200471,8.17609757 C304.562182,9.0641122 305.630994,13.291976 304.618204,17.7342256 C303.908592,20.8455416 303.624088,21.8837352 303.429659,22.0785325 C303.334092,22.1732105 303.257199,22.3647431 303.257199,22.5040395 C303.257199,22.8392215 301.781954,25.8787128 301.582032,25.957067 C301.496351,25.9897146 301.426049,26.1192167 301.426049,26.2421893 C301.426049,26.8298461 297.913141,30.8846776 297.403451,30.8846776 C297.300195,30.8846776 297.215612,30.9586788 297.215612,31.0479156 C297.215612,31.1382406 296.839936,31.4309807 296.380775,31.6965145 C295.136208,32.4202029 294.689131,31.8271049 295.219692,30.1577244 C295.330637,29.8094834 295.528362,28.8300555 295.65908,27.9823062 C296.063317,25.3585277 296.313768,23.9307395 296.501607,23.1754917 C296.600469,22.7771911 296.754255,21.8195282 296.844329,21.0479567 C296.933305,20.2763852 297.061827,19.558138 297.127735,19.450401 C297.194741,19.3437521 297.362807,18.5057972 297.501215,17.5883997 C297.64072,16.6710022 297.848331,15.3085092 297.962572,14.5608792 C298.077912,13.812161 298.286621,12.892587 298.426127,12.5160514 C298.565632,12.1406041 298.679873,11.60736 298.679873,11.3320319 C298.679873,11.0577921 298.790819,10.6714622 298.927029,10.4744884 C299.06324,10.2775145 299.229109,9.91294971 299.295017,9.66373972 C299.661906,8.28165813 300.855943,7.67005982 302.200471,8.17609757 M325.598476,8.3511126 C326.348915,8.65566042 327.058096,9.44358309 327.562106,10.5360536 C328.088417,11.6751275 328.160896,16.9564854 327.666922,18.1063973 C327.508583,18.4748893 327.37812,19.029795 327.37812,19.3408456 C327.377005,19.6518962 327.263268,20.1168465 327.125,20.3747909 C326.986732,20.6316515 326.813897,21.1497079 326.741418,21.5257866 C326.668939,21.9007814 326.538476,22.3408043 326.450386,22.5022905 C326.362296,22.6637767 326.111406,23.2024253 325.891738,23.6988058 C325.673185,24.19627 325.415605,24.7240807 325.318595,24.8736451 C325.222699,25.0221257 325.053209,25.3678579 324.941702,25.6409756 C324.831311,25.9140932 324.665166,26.137356 324.572616,26.137356 C324.48118,26.137356 324.405356,26.251155 324.405356,26.3898814 C324.405356,27.0412453 321.752616,29.9555837 320.037645,31.1878645 C318.292568,32.442905 317.669246,32.2434857 318.164335,30.588523 C318.32602,30.0477068 318.458713,29.2803763 318.458713,28.8847892 C318.458713,28.490286 318.576909,27.7706427 318.721868,27.2872679 C318.968297,26.467915 319.061963,25.9466072 319.584929,22.4795307 C319.694205,21.7598874 319.902722,20.7562885 320.049911,20.2512377 C320.197099,19.7461868 320.316411,19.0276274 320.316411,18.6548001 C320.316411,18.2830567 320.437954,17.4767094 320.586257,16.8643624 C320.734561,16.2520153 320.938618,15.2635896 321.038974,14.6674996 C321.730314,10.5577296 322.452877,8.79113544 323.680564,8.20588338 C324.315036,7.90350316 324.538049,7.91976016 325.598476,8.3511126 M129.193256,7.25857536 C127.907965,7.82723234 127.024136,9.08880007 127.024136,10.3570842 C127.024136,10.6861889 126.939133,11.1910398 126.835695,11.4798459 C126.731233,11.768652 126.575564,12.6753689 126.488513,13.4936528 C126.401461,14.3130562 126.256034,15.0641759 126.16591,15.1638028 C126.074762,15.2634297 126,15.8970121 126,16.5720124 C126,18.3272371 126.555082,19.001118 127.996041,19 C130.020758,18.9977598 130.893322,17.7451473 131.309121,14.2436532 C131.394124,13.5249961 131.546721,12.7302196 131.647086,12.4772344 C132.265664,10.9235024 132.032161,7.98842644 131.249721,7.47014262 C130.390471,6.90260505 130.075037,6.87014235 129.193256,7.25857536 M356.370237,33.3015804 C357.237219,33.5409852 358.661545,34.1195469 359.134847,34.4254531 C359.286347,34.5240968 359.556173,34.6526661 359.733108,34.7125173 C359.911149,34.7723685 360.056015,34.8832041 360.056015,34.9596806 C360.056015,35.0350488 360.380027,35.3232213 360.777025,35.5980935 C362.146059,36.5490628 364.094556,39.4673635 364.379864,40.9935694 C364.45285,41.384819 364.601033,41.8126443 364.7083,41.9434303 C364.985866,42.2803704 365.111933,46.5076393 364.876388,47.6171034 C364.544635,49.1887519 364.207352,50.3702592 363.969596,50.7914344 C363.844635,51.0131055 363.741792,51.3145783 363.741792,51.4608812 C363.741792,51.6082926 363.617938,51.8310721 363.465331,51.9574246 C363.31383,52.0837772 363.18887,52.2954731 363.18887,52.4262591 C363.18887,52.5570451 362.904668,53.1078979 362.556327,53.6498839 C360.116836,57.4515441 356.755071,60.0872142 352.531853,61.5092346 C350.862029,62.071171 346.186521,62.1797898 345.086207,61.6821381 C344.754453,61.5314017 344.282258,61.3507397 344.038972,61.279805 C343.417488,61.099143 341.851613,60.1526072 341.202483,59.5640702 C339.980526,58.4590395 339.044982,57.4094266 339.044982,57.1467463 C339.044982,57.0359107 338.979737,56.9450256 338.89901,56.9450256 C338.71544,56.9450256 337.754462,55.0619291 337.754462,54.7006051 C337.754462,54.5531938 337.664889,54.3437146 337.556516,54.2339874 C336.814495,53.491389 336.814495,46.7304188 337.556516,45.9867121 C337.664889,45.8780932 337.754462,45.6264965 337.754462,45.4292092 C337.754462,45.2319218 337.913703,44.7298367 338.108332,44.3119866 C338.30296,43.8941364 338.510859,43.4275186 338.571681,43.2756739 C338.631396,43.1227208 338.844824,42.7492049 339.044982,42.4444071 C339.245139,42.1396093 339.467414,41.764985 339.537082,41.6131403 C339.813543,41.0157365 340.658408,39.8974055 341.808485,38.6106045 C342.668832,37.6485517 345.504216,35.3320881 345.822699,35.3320881 C345.922225,35.3320881 346.102477,35.2134941 346.223014,35.0671911 C346.343551,34.9208881 346.686363,34.7479847 346.982729,34.6825917 C347.280201,34.6171987 347.523486,34.4941712 347.523486,34.4088278 C347.523486,34.3234844 347.792206,34.1949151 348.121748,34.122872 C348.451289,34.0508289 348.88478,33.8779254 349.084938,33.7382725 C349.285096,33.5997281 349.657765,33.4844591 349.914321,33.4822424 C350.169771,33.481134 350.753656,33.3581065 351.209264,33.2095868 C352.182406,32.8925971 355.071976,32.9446898 356.370237,33.3015804 M486.366616,33.3015602 C487.234572,33.540949 488.658682,34.1194721 489.130806,34.4253578 C489.283389,34.5239949 489.553174,34.6525555 489.730082,34.7124027 C489.90699,34.7722499 490.052939,34.8830781 490.052939,34.9595495 C490.052939,35.0349127 490.392382,35.3330405 490.808116,35.622302 C492.159252,36.5610165 494.132883,39.5289947 494.401562,41.0284998 C494.469008,41.4008824 494.613852,41.8187046 494.725525,41.9583481 C495.004155,42.3096734 495.108089,46.8702523 494.859312,47.8466484 C494.74985,48.2788783 494.575153,48.9848537 494.471219,49.4170835 C494.367286,49.8482051 494.164947,50.4511103 494.022315,50.7558877 C493.878577,51.0606652 493.714937,51.4341561 493.658548,51.587099 C493.602158,51.7389336 493.472794,52.0093543 493.371072,52.1877876 C493.268244,52.3651127 493.104604,52.6565908 493.007305,52.8339158 C490.735141,56.954507 487.09194,59.9712496 482.529922,61.5073279 C480.827181,62.0803095 476.141327,62.1800549 475.148431,61.6658122 C474.842158,61.5062197 474.491659,61.3765507 474.370035,61.3765507 C474.043861,61.3765507 472.17748,60.4001546 472.17748,60.2305875 C472.17748,60.1496829 472.086815,60.0842943 471.976247,60.0842943 C471.566041,60.0842943 469.045101,57.5563039 469.045101,57.1451314 C469.045101,57.0343032 468.97876,56.9434241 468.899151,56.9434241 C468.715609,56.9434241 467.754777,55.0604536 467.754777,54.6991538 C467.754777,54.5517524 467.665217,54.3422871 467.555755,54.2325673 C466.830432,53.5055345 466.808319,46.9101505 467.529219,45.9924933 C467.625413,45.869474 467.761411,45.519257 467.832174,45.2144796 C468.074317,44.1649368 469.718457,41.1116209 470.703614,39.8825366 C472.029319,38.2267638 475.284429,35.3319322 475.820681,35.3319322 C475.920192,35.3319322 476.101523,35.213346 476.222042,35.0670529 C476.34256,34.9207597 476.684214,34.7478677 476.981641,34.6824791 C477.279068,34.6170905 477.521211,34.4940713 477.521211,34.4087336 C477.521211,34.3233959 477.790996,34.1948352 478.120487,34.1227969 C478.449978,34.0507586 478.883403,33.8778667 479.082425,33.7382232 C479.282552,33.599688 479.656271,33.4844267 479.911682,33.4822101 C480.168198,33.4811018 480.750889,33.3580826 481.207534,33.2095728 C482.180528,32.8926043 485.069659,32.9446935 486.366616,33.3015602 M114.974646,75.4499188 C115.043814,75.7248445 114.966708,76.5429159 114.801158,77.2659926 C114.635607,77.990187 114.408825,79.1267697 114.295434,79.7928497 C113.257907,85.9105038 113.143382,86.5095287 112.8497,87.3432463 C112.70456,87.7567523 112.586633,88.2350782 112.586633,88.4083037 C112.586633,89.1548497 111.041115,92.2025009 109.957098,93.5950104 C107.692681,96.5029636 103.407638,96.8460618 102.040144,94.2286804 C101.00942,92.2572625 100.679453,88.791635 101.347325,86.9643854 C101.497001,86.5542321 101.620598,86.0680831 101.621731,85.8836818 C101.625133,85.5461714 102.231775,84.0441387 102.577617,83.5188743 C102.678535,83.3646477 102.816872,83.1131914 102.883772,82.9600824 C103.943977,80.5416309 109.348188,76.744081 113.908771,75.2118735 C114.840845,74.89895 114.832907,74.8967148 114.974646,75.4499188" id="path0" fill="#070707"></path>
        </g>
    </g>
</svg>