<?xml version="1.0" encoding="UTF-8"?>
<svg width="193px" height="45px" viewBox="0 0 193 45" version="1.1" xmlns="http://www.w3.org/2000/svg" xmlns:xlink="http://www.w3.org/1999/xlink">
    <title>logo-bloomcu</title>
    <g id="Page-1" stroke="none" stroke-width="1" fill="none" fill-rule="evenodd">
        <g id="logo-bloomcu" fill="#000000">
            <path d="M0,18.3241008 L0,36.6477109 L2.33014869,36.626118 L4.65981111,36.604525 L4.70065679,34.1095538 C4.72399718,32.6706759 4.76921918,31.6931026 4.80714731,31.7991045 C4.84361666,31.9001989 4.90294015,31.9831356 4.9394095,31.9831356 C4.9753926,31.9831356 5.05027635,32.0935543 5.10570977,32.2285104 C5.16114319,32.3634666 5.23602693,32.4738853 5.27201003,32.4738853 C5.30847938,32.4738853 5.36099525,32.5470069 5.38871196,32.6363234 C5.41691493,32.7256398 5.58370145,32.9405882 5.75924062,33.1143135 C5.93477978,33.2880389 6.07919843,33.4632365 6.07968469,33.5039687 C6.0806572,33.544701 6.21000185,33.6884906 6.36657695,33.8234468 C6.52315205,33.9584029 6.82220076,34.2253707 7.03031922,34.4162723 C7.23892393,34.6076647 7.44752864,34.7642138 7.49420942,34.7642138 C7.54089019,34.7642138 7.62452658,34.8378263 7.68044626,34.9276335 C7.73587968,35.0174406 7.83604884,35.0910531 7.90217994,35.0910531 C7.9687973,35.0910531 8.0232582,35.1273686 8.0232582,35.1720268 C8.0232582,35.2161942 8.14190517,35.3094367 8.28681008,35.3791231 C8.71228589,35.5842565 9.03321622,35.7668153 9.07697945,35.8286498 C9.09886106,35.8600578 9.25397739,35.9356332 9.42125016,35.9959954 C9.58852294,36.0563576 9.72516146,36.1280071 9.72516146,36.1554891 C9.72516146,36.182971 9.91674714,36.2546205 10.1506373,36.3144919 C10.3845274,36.3743634 10.5955634,36.4533741 10.6198763,36.4906711 C10.643703,36.5274773 10.9354578,36.6040342 11.2680583,36.6599797 C11.6006588,36.7159251 11.8919274,36.7885561 11.9152678,36.8214363 C12.0883757,37.0648481 16.7491593,37.0569961 17.059392,36.8126028 C17.1041277,36.7772689 17.3958826,36.7021842 17.7080602,36.6452572 C18.0197517,36.5883302 18.3115065,36.5156993 18.3562423,36.4838006 C18.400978,36.4514111 18.6105552,36.3777986 18.8220775,36.3203809 C19.034086,36.2624725 19.2071939,36.182971 19.2071939,36.1437111 C19.2071939,36.1049418 19.2742975,36.0725524 19.3559889,36.0725524 C19.5300692,36.0725524 21.0272578,35.3104182 21.204742,35.1317853 C21.2713594,35.0645526 21.3540233,35.0095886 21.3885476,35.0095886 C21.4230719,35.0095886 21.530535,34.9448097 21.6268141,34.8662898 C21.7230931,34.7877698 21.8971735,34.6493784 22.0138755,34.5595712 C22.7525015,33.9883386 24.3129036,32.4027266 24.3129036,32.2231122 C24.3129036,32.1818892 24.3858424,32.101897 24.4748276,32.0459516 C24.5642991,31.9895154 24.6372378,31.9065787 24.6372378,31.8614297 C24.6372378,31.81579 24.728168,31.6715096 24.8400074,31.5409702 C24.9513605,31.4104308 25.0422908,31.2558446 25.0422908,31.1974454 C25.0422908,31.1390462 25.089944,31.0619985 25.148295,31.0261738 C25.206646,30.9903491 25.3024388,30.8411612 25.3607898,30.6949178 C25.4191408,30.5486744 25.4935382,30.4289315 25.5256313,30.4289315 C25.5572381,30.4289315 25.6316355,30.2817066 25.6904728,30.1020922 C25.74931,29.9219871 25.8237075,29.7747622 25.8553143,29.7747622 C25.886921,29.7747622 25.9588872,29.6093796 26.0148069,29.4067 C26.0707266,29.2040204 26.1426928,29.0386378 26.1742995,29.0386378 C26.2059063,29.0386378 26.2803038,28.8359582 26.339141,28.5886203 C26.3979783,28.3412825 26.4723757,28.1390937 26.504955,28.1390937 C26.5370481,28.1390937 26.6095005,27.8902836 26.6659065,27.5870003 C26.7218261,27.2832263 26.7967099,27.0157677 26.8317205,26.9922118 C26.866731,26.9691465 26.9411285,26.5461203 26.9965619,26.0519354 C27.0524816,25.5577506 27.1336867,25.1293261 27.1769637,25.0998811 C27.2975557,25.017926 27.2844267,20.7547838 27.1633485,20.7140516 C27.1113189,20.6968754 27.0685281,20.5471967 27.0685281,20.3823048 C27.0685281,19.9229632 26.8895852,18.7328953 26.8200503,18.7328953 C26.7864985,18.7328953 26.715991,18.4752517 26.6629889,18.1601905 C26.610473,17.8456199 26.5375343,17.5879764 26.501065,17.5879764 C26.4641094,17.5879764 26.4096485,17.43977 26.3790142,17.2591741 C26.3488662,17.0780875 26.2798176,16.8847322 26.2258429,16.8297682 C26.171382,16.7743135 26.078993,16.5539669 26.0196695,16.3404908 C25.9608323,16.1270147 25.8864348,15.9518171 25.8543417,15.9518171 C25.8222487,15.9518171 25.7352085,15.8139164 25.660811,15.6450986 C25.4794368,15.2353226 25.2732633,14.8569546 25.2042147,14.8068982 C25.1730942,14.7843237 25.1006417,14.6763588 25.0432633,14.5664308 C24.9333689,14.35639 24.9114873,14.3254728 24.6192462,13.9677163 C24.5176183,13.8435566 24.3615295,13.6438215 24.2725442,13.5240786 C23.9117407,13.039218 22.3586325,11.5350703 22.2185901,11.5350703 C22.1714231,11.5350703 22.1038332,11.4894306 22.0678501,11.4329944 C21.9803237,11.2950937 21.2694144,10.7989459 21.1590338,10.7989459 C21.1108942,10.7989459 21.0710211,10.7690101 21.0710211,10.7326947 C21.0710211,10.6958884 20.9436215,10.6154055 20.7875326,10.553571 C20.6314438,10.4917366 20.5040442,10.4127259 20.5040442,10.3783734 C20.5040442,10.3435302 20.3581667,10.2708992 20.17971,10.2169168 C20.0012533,10.1629343 19.8553759,10.0957016 19.8553759,10.0677289 C19.8553759,10.0397562 19.682268,9.96614371 19.4707458,9.90381851 C19.2587372,9.8414933 19.0671516,9.76346411 19.0447837,9.72960238 C19.0224158,9.69623141 18.7671303,9.62065596 18.4773205,9.56176601 C18.187997,9.50287605 17.9307664,9.42631911 17.905481,9.39098513 C17.8806819,9.35565116 17.4887579,9.28203871 17.0345928,9.22707475 C16.5804278,9.17211079 16.2084403,9.09849835 16.2084403,9.06365512 C16.2084403,9.02832115 15.4061145,8.99985767 14.4258182,8.99985767 C13.4450357,8.99985767 12.6427099,9.0288119 12.6427099,9.06512737 C12.6427099,9.10095209 12.288714,9.17505529 11.8559443,9.23051 C11.4236609,9.28547396 11.0497284,9.3620309 11.0254155,9.40080012 C11.0011026,9.4390786 10.7715888,9.51759854 10.5153308,9.575507 C10.2590728,9.63292471 10.0494956,9.7031019 10.0494956,9.73107463 C10.0494956,9.75904736 9.88514036,9.83069681 9.68480204,9.89056827 C9.48397745,9.95043972 9.32010848,10.0260152 9.32010848,10.0588954 C9.32010848,10.0917756 9.17423106,10.1673511 8.99577435,10.2267318 C8.81731764,10.2861125 8.67144021,10.3611972 8.67144021,10.3930959 C8.67144021,10.4254854 8.5532795,10.5005701 8.4083746,10.55946 C8.26346969,10.61835 8.11564724,10.7150277 8.0801504,10.7739176 C8.0441673,10.8328076 7.96344846,10.880901 7.90072117,10.880901 C7.83750762,10.880901 7.74657736,10.9545135 7.69892407,11.0443207 C7.65127078,11.1346186 7.56812065,11.2087218 7.51365974,11.2097033 C7.4596851,11.2101941 7.32936793,11.302455 7.22482245,11.4138552 C7.1197907,11.5257461 7.00454754,11.6170255 6.96856444,11.6170255 C6.87520289,11.6170255 5.84725333,12.6677205 5.73881778,12.8743261 C5.68824694,12.9700223 5.58029764,13.0966357 5.49812003,13.1550349 C5.41594242,13.2139248 5.3488388,13.2968615 5.3488388,13.339066 C5.3488388,13.3817612 5.28513899,13.4872724 5.20685144,13.5741351 C4.98074144,13.8258896 4.9000226,13.9372898 4.81784499,14.1115059 C4.76824666,14.2170171 4.72642847,11.7421667 4.70065679,7.15954651 L4.65981111,0.0436767181 L2.33014869,0.0215929842 L0,0 L0,18.3241008 M30.8773876,18.3241008 L30.8773876,36.6452572 L33.1871135,36.6452572 L35.4968393,36.6452572 L35.4968393,18.3241008 L35.4968393,0.00245374821 L33.1871135,0.00245374821 L30.8773876,0.00245374821 L30.8773876,18.3241008 M50.8139686,9.08034061 C50.746865,9.11910983 50.3184716,9.19468528 49.8618753,9.24817699 C49.4047927,9.3016687 49.0308603,9.37479039 49.0308603,9.41061512 C49.0308603,9.44643984 48.7755748,9.51907079 48.4638834,9.57207175 C48.1517057,9.62556346 47.8964202,9.69574066 47.8964202,9.72862089 C47.8964202,9.76101036 47.7140734,9.83805806 47.4913672,9.89940176 C47.2681748,9.96074547 47.085828,10.0348487 47.085828,10.0647844 C47.085828,10.0947201 46.9399506,10.1629343 46.7619801,10.2169168 C46.5835234,10.2708992 46.437646,10.3445117 46.437646,10.3803364 C46.437646,10.4166519 46.2917685,10.4902643 46.1133118,10.5442468 C45.9353414,10.5977385 45.789464,10.6703694 45.789464,10.7052127 C45.789464,10.7400559 45.6615781,10.8190666 45.5054892,10.880901 C45.3498867,10.9427355 45.2220008,11.0241999 45.2220008,11.0619877 C45.2220008,11.0992846 45.1310705,11.1655358 45.0192312,11.2082311 C44.9078781,11.2509263 44.8169478,11.3235572 44.8169478,11.3696877 C44.8169478,11.4158182 44.7712395,11.4536059 44.7153199,11.4536059 C44.6598864,11.4536059 44.5047701,11.5434131 44.3710492,11.6538317 C44.2373282,11.7637596 44.0258059,11.9384665 43.9008376,12.0420147 C43.3314294,12.5146066 41.9801182,13.9176598 41.9801182,14.0364212 C41.9801182,14.070283 41.9246848,14.1561641 41.8570949,14.2273228 C41.5881942,14.5095039 41.2507311,14.999272 41.2507311,15.1067462 C41.2507311,15.1695622 41.1982152,15.2412116 41.1345154,15.2662398 C41.0703294,15.2907773 40.9949594,15.4159185 40.9667564,15.5440041 C40.9390397,15.6720898 40.866101,15.8188239 40.8053187,15.8703526 C40.7440502,15.9213906 40.6711115,16.0686155 40.6429085,16.1971919 C40.6151918,16.3262591 40.5427393,16.4729932 40.4819571,16.5235404 C40.4216611,16.5740876 40.3258682,16.7978695 40.2694623,17.0201791 C40.2130564,17.2424886 40.1430352,17.424066 40.1138597,17.424066 C40.0846842,17.424066 40.0141768,17.6360699 39.9572846,17.8946949 C39.9003924,18.15332 39.8255087,18.3829908 39.7909844,18.4055653 C39.75646,18.4281398 39.6801175,18.741238 39.6217666,19.1009575 C39.5634156,19.460677 39.4899906,19.7737753 39.4588701,19.7963498 C39.1792717,19.9980479 39.1826755,26.1530299 39.4622739,26.3385332 C39.4972845,26.3615985 39.5682782,26.6732245 39.6203078,27.030981 C39.6723374,27.3892282 39.7443036,27.7018357 39.7802867,27.7263732 C39.8162698,27.7509107 39.8935848,28.0007023 39.9514495,28.2819018 C40.0098005,28.5631014 40.086143,28.7932629 40.1211536,28.7932629 C40.1556779,28.7932629 40.20868,28.9036816 40.2378555,29.038147 C40.2981515,29.3159113 40.9448748,30.6512411 41.2283632,31.0835915 C41.3314499,31.2406314 41.4607946,31.439385 41.5157417,31.5242847 C41.5706889,31.6091844 41.6976023,31.7799653 41.7977714,31.9041249 C41.8984269,32.0277938 41.9801182,32.152935 41.9801182,32.1813985 C41.9801182,32.2913264 43.3717888,33.7360933 43.9008376,34.1753143 C44.0258059,34.2788624 44.2373282,34.4540601 44.3710492,34.563988 C44.5047701,34.6739159 44.6598864,34.7637231 44.7153199,34.7637231 C44.7712395,34.7642138 44.8169478,34.802983 44.8169478,34.850095 C44.8169478,34.897207 44.9263559,34.9747454 45.0600768,35.0218574 C45.1937978,35.0689694 45.3032059,35.1381651 45.3032059,35.1759528 C45.3032059,35.2132497 45.4306055,35.2907882 45.5866943,35.3477151 C45.7427832,35.4046421 45.8701828,35.4748193 45.8701828,35.5032828 C45.8701828,35.532237 46.0160602,35.6043772 46.1945169,35.6637579 C46.3729736,35.7231386 46.5188511,35.7987141 46.5188511,35.8315943 C46.5188511,35.8639838 46.68272,35.94005 46.8835446,35.9999214 C47.0838829,36.0593021 47.2482382,36.1314423 47.2482382,36.1594151 C47.2482382,36.1873878 47.4578154,36.257565 47.7140734,36.3149827 C47.9703314,36.3724004 48.2003315,36.4519018 48.2251306,36.4911618 C48.2499298,36.5309125 48.578154,36.6059972 48.9545177,36.6589982 C49.3308815,36.7115084 49.6586194,36.7846301 49.6829323,36.8204548 C49.84437,37.0623944 55.11249,37.0574869 55.2695513,36.8160381 C55.2928917,36.7802134 55.6021519,36.7075824 55.956634,36.6550722 C56.3111161,36.602562 56.6213488,36.529931 56.6456617,36.4936156 C56.6699746,36.4573001 56.91748,36.3792709 57.1961058,36.3208717 C57.4747317,36.2619817 57.7027867,36.1859155 57.7027867,36.1515631 C57.7027867,36.1172106 57.8851335,36.0450704 58.1078397,35.9910879 C58.3305459,35.9371055 58.5128927,35.8625115 58.5128927,35.8257053 C58.5128927,35.7884083 58.6500175,35.7133236 58.816804,35.6583597 C58.9840768,35.6033957 59.1391931,35.5307648 59.161561,35.4973938 C59.1834426,35.4640228 59.3298063,35.3761786 59.4854088,35.3020754 C59.9366563,35.0876178 60.2459165,34.9080035 60.3567833,34.7961126 C60.4131892,34.7396763 60.5284324,34.6709714 60.6130413,34.6434894 C60.6981365,34.6164982 60.787608,34.540432 60.8128934,34.4746715 C60.8376925,34.4089111 60.9125763,34.3549286 60.9796799,34.3549286 C61.0462972,34.3549286 61.1396588,34.2813162 61.1873121,34.191509 C61.2349654,34.1017018 61.3186018,34.0280894 61.3730627,34.0280894 C61.4275236,34.0280894 61.5821536,33.9083465 61.7168471,33.7621031 C61.8515406,33.6158597 62.1316253,33.3675403 62.3392575,33.2100097 C62.5473759,33.0524791 62.7652195,32.8326232 62.8235705,32.7207323 C62.8819215,32.6093322 63.0666995,32.3899671 63.2339723,32.2334179 C63.4007588,32.0768688 63.5378836,31.9188474 63.5378836,31.8815504 C63.5378836,31.8442535 63.6380528,31.7137141 63.7605898,31.5910266 C63.8831268,31.4683392 64.0382432,31.2578076 64.1048605,31.1233422 C64.1714779,30.9888768 64.2721333,30.8495039 64.3275667,30.8136792 C64.3834864,30.7773637 64.4291947,30.700316 64.4291947,30.6419168 C64.4291947,30.5835176 64.5031059,30.4500337 64.5935499,30.3445226 C64.6839939,30.2395021 64.7788142,30.0682305 64.8050722,29.9641916 C64.8308438,29.8601527 64.8784971,29.7747622 64.9110764,29.7747622 C64.9436557,29.7747622 65.0185394,29.6275373 65.0773767,29.4474322 C65.1362139,29.2678178 65.2072076,29.120593 65.2349243,29.120593 C65.262641,29.120593 65.336066,28.9463768 65.398307,28.7338822 C65.460548,28.5208969 65.5587722,28.2549106 65.6166369,28.1430197 C65.6740153,28.030638 65.7454953,27.7720129 65.7756433,27.5683518 C65.805305,27.3646907 65.8568484,27.1796781 65.8908864,27.1575944 C65.9244382,27.1350199 65.9964044,26.8219216 66.0508653,26.4622021 C66.1053262,26.1024827 66.1913939,25.7192072 66.2419648,25.6112423 C66.3654743,25.3467282 66.3713094,20.4696583 66.2477999,20.3862308 C66.2001466,20.3543321 66.1165102,19.9793994 66.061563,19.5534287 C66.0061296,19.1269673 65.9302733,18.758905 65.8918589,18.735349 C65.8539308,18.7113023 65.7839097,18.4811407 65.7367426,18.2234972 C65.6895756,17.9658536 65.5986453,17.6714038 65.5344593,17.5693279 C65.4702732,17.4667612 65.3929582,17.2635909 65.3628102,17.1173475 C65.3326622,16.9711041 65.2782013,16.8518519 65.2422182,16.8518519 C65.2062351,16.8518519 65.1527467,16.724257 65.1240574,16.5681986 C65.094882,16.4121402 65.0253471,16.2374334 64.9694274,16.1795249 C64.913994,16.1216165 64.8196599,15.9552523 64.7603364,15.8090089 C64.7010129,15.6627655 64.6280742,15.5430226 64.5979262,15.5430226 C64.567292,15.5430226 64.4967845,15.4144462 64.4403786,15.2569156 C64.3839727,15.099385 64.3061714,14.9703178 64.2672707,14.9703178 C64.2288563,14.9703178 64.1753679,14.9011221 64.1486238,14.8167132 C64.1218796,14.7318135 64.0372707,14.5880238 63.9609281,14.4962536 C63.7328731,14.2238876 63.591372,14.0491807 63.2932958,13.6713035 C62.9120695,13.1869336 62.0183271,12.2878803 61.8053461,12.1740263 C61.7105258,12.1234791 61.5855575,12.014042 61.5272065,11.9311053 C61.4688555,11.8481686 61.3871642,11.7804451 61.3448597,11.7804451 C61.3030415,11.7804451 61.1980098,11.7161569 61.1124283,11.637637 C60.8240773,11.3736137 60.7083479,11.2896955 60.5016882,11.1944901 C60.3883901,11.1424706 60.296001,11.0737657 60.296001,11.0413762 C60.296001,11.0089867 60.186593,10.9368465 60.052872,10.880901 C59.919151,10.8249556 59.809743,10.7528154 59.809743,10.7204259 C59.809743,10.6880364 59.6638655,10.6173685 59.4854088,10.563386 C59.3074384,10.5094036 59.161561,10.4357911 59.161561,10.3999664 C59.161561,10.3636509 59.0156835,10.2900385 58.8372268,10.236056 C58.6587701,10.1825643 58.5128927,10.1089519 58.5128927,10.0726364 C58.5128927,10.0368117 58.3125544,9.95878247 58.0674803,9.89940176 C57.82192,9.84002105 57.6215816,9.76542711 57.6215816,9.73401913 C57.6215816,9.7021204 57.3935266,9.62850796 57.1149007,9.569618 C56.8362749,9.51072804 56.5902283,9.4390786 56.5678604,9.41012437 C56.5182621,9.34534542 55.3313061,9.16180505 54.9675851,9.16278655 C54.8226802,9.1632773 54.7040332,9.12647108 54.7040332,9.08132211 C54.7040332,8.97924618 50.9895078,8.97777393 50.8139686,9.08034061 M79.989453,9.06365512 C79.989453,9.0989891 79.5819687,9.17162004 79.0840405,9.224621 C78.5861122,9.27811271 78.1577188,9.35368816 78.1319472,9.39245738 C78.1061755,9.4312266 77.8572113,9.51072804 77.5785855,9.569618 C77.2999596,9.62850796 77.0719046,9.7021204 77.0719046,9.73401913 C77.0719046,9.76542711 76.87108,9.83707656 76.6260059,9.89204052 C76.3809318,9.94749523 76.1805935,10.0220892 76.1805935,10.0584046 C76.1805935,10.0942294 76.0162383,10.1698048 75.8159,10.2267318 C75.6150754,10.283168 75.4512064,10.3548174 75.4512064,10.3857347 C75.4512064,10.4161611 75.3233205,10.4917366 75.1672317,10.553571 C75.0111428,10.6154055 74.8837432,10.6958884 74.8837432,10.7326947 C74.8837432,10.7690101 74.838035,10.7999274 74.7826015,10.8004181 C74.6474218,10.8023811 73.7969564,11.3701784 73.3996836,11.7235182 C73.3019457,11.8098901 73.0991761,11.976745 72.9484361,12.0940342 C72.5545671,12.4002619 71.3136365,13.6865167 71.0748837,14.0354397 C70.9635306,14.1988594 70.8084143,14.391724 70.7301268,14.4648457 C70.6523255,14.5379674 70.5886257,14.6429878 70.5886257,14.6984425 C70.5886257,14.7534065 70.5409724,14.8280004 70.4826214,14.8643159 C70.4242704,14.9001406 70.3284776,15.0493285 70.2701266,15.1955719 C70.2112894,15.3418153 70.1330019,15.4610674 70.09556,15.4610674 C70.0581181,15.4610674 69.9837206,15.6082923 69.9307185,15.7883975 C69.8772301,15.9685026 69.8057502,16.1157275 69.7717121,16.1157275 C69.7371878,16.1157275 69.6647353,16.2526466 69.6097882,16.4199922 C69.5553273,16.5873379 69.464397,16.7708782 69.4084773,16.8273144 C69.3525576,16.8837507 69.281564,17.0780875 69.251416,17.2591741 C69.221268,17.43977 69.1682658,17.5879764 69.1337415,17.5879764 C69.0992172,17.5879764 69.0243334,17.8088137 68.9674413,18.078726 C68.9110353,18.3486383 68.8380966,18.5694757 68.8060036,18.5694757 C68.7743968,18.5694757 68.7004856,18.9095652 68.6421346,19.3257209 C68.5837836,19.7418766 68.4962572,20.1089573 68.4481176,20.140856 C68.3124516,20.2306632 68.3250943,25.9464243 68.4612466,25.992064 C68.51668,26.0107125 68.5623883,26.1196589 68.5623883,26.2344943 C68.5623883,26.5564261 68.7457076,27.4844336 68.8089211,27.4844336 C68.8400416,27.4844336 68.8886674,27.6596313 68.9173567,27.8731074 C68.9455596,28.0865835 69.0165533,28.3545328 69.0753905,28.4678959 C69.1337415,28.5812591 69.2329382,28.8482269 69.2951792,29.0607215 C69.3574202,29.2737068 69.4308452,29.4474322 69.4585619,29.4474322 C69.4862786,29.4474322 69.552896,29.5946571 69.6063844,29.7747622 C69.6598728,29.9548673 69.7328115,30.1020922 69.7683083,30.1020922 C69.8038051,30.1020922 69.8806339,30.2473541 69.9384986,30.4250055 C69.9968496,30.6026569 70.0902111,30.7655858 70.1466171,30.7871787 C70.203023,30.8092625 70.2730442,30.9368574 70.3022197,31.070832 C70.3313951,31.2052974 70.4077377,31.3353461 70.4719237,31.3603743 C70.5361098,31.3849118 70.5886257,31.4604872 70.5886257,31.5277199 C70.5886257,31.5949526 70.6615644,31.6896673 70.7505496,31.7377608 C70.8395348,31.7858543 70.9124735,31.8776244 70.9124735,31.9409311 C70.9124735,32.0047286 70.9620719,32.086193 71.0223679,32.1220178 C71.0826639,32.1583332 71.1726216,32.2653167 71.2217337,32.3600313 C71.3267654,32.5627109 72.5608884,33.8219745 72.9528124,34.12673 C73.1011211,34.2420562 73.3019457,34.4074388 73.3996836,34.4938108 C73.786745,34.8378263 74.1125379,35.0517931 74.6201914,35.2947142 C74.7650963,35.3639099 74.8837432,35.4507726 74.8837432,35.4880695 C74.8837432,35.5253665 75.0296207,35.6043772 75.2080774,35.6637579 C75.3860478,35.7231386 75.5319252,35.8026401 75.5319252,35.8404278 C75.5319252,35.8782155 75.5970838,35.9091327 75.6768301,35.9091327 C75.7565765,35.9091327 75.96664,35.9842174 76.1431516,36.0754969 C76.3196633,36.167267 76.6279509,36.283084 76.8287755,36.3326497 C77.0291138,36.3827061 77.2299384,36.4514111 77.2746742,36.4852728 C77.3189237,36.5196253 77.6471479,36.5952007 78.0040613,36.6540907 C78.3604884,36.7124899 78.6712074,36.7880653 78.695034,36.8214363 C78.8593892,37.0550332 84.1994754,37.0550332 84.3638306,36.8214363 C84.387171,36.7880653 84.6978899,36.7124899 85.0548033,36.6540907 C85.4112305,36.5952007 85.7394547,36.5196253 85.7841904,36.4852728 C85.8284399,36.4514111 86.0467698,36.3787801 86.2689897,36.3238162 C86.4916959,36.2688522 86.7105121,36.1952398 86.7552478,36.1603966 C86.8004698,36.1250626 87.0110196,36.0465426 87.2225418,35.9851989 C87.4340641,35.9238552 87.6076582,35.8507335 87.6076582,35.8227608 C87.6076582,35.7947881 87.7535356,35.7231386 87.9315061,35.6637579 C88.1099628,35.6043772 88.2558402,35.5317463 88.2558402,35.5023013 C88.2558402,35.4728563 88.3832398,35.3982624 88.5393287,35.3364279 C88.6954175,35.2745935 88.8233034,35.1980365 88.8233034,35.165647 C88.8233034,35.1337483 88.9327115,35.0689694 89.0664324,35.0218574 C89.2001534,34.9747454 89.3095615,34.9065312 89.3095615,34.8702157 C89.3095615,34.8339003 89.4243184,34.7524358 89.564847,34.6901106 C89.8332614,34.569877 89.8916124,34.5262002 90.3900269,34.0678401 C90.5611898,33.9108002 90.7289488,33.7827145 90.7625006,33.7827145 C90.8558621,33.7827145 92.3773637,32.2397977 92.4838542,32.0371181 C92.5349113,31.9399496 92.6438331,31.8123547 92.7260107,31.7534648 C92.8081883,31.6945748 92.8752919,31.5934804 92.8752919,31.5287014 C92.8752919,31.4639225 92.9127338,31.4104308 92.9584421,31.4104308 C93.0041503,31.4104308 93.0761165,31.3186606 93.118421,31.2062789 C93.1607254,31.0938973 93.225884,31.0016363 93.2633259,31.0016363 C93.3007677,31.0016363 93.3814866,30.8725692 93.4427551,30.7155293 C93.5040236,30.5579987 93.5789074,30.4289315 93.6095416,30.4289315 C93.6839391,30.4289315 94.3958209,28.9768033 94.461952,28.691187 C94.490155,28.5675181 94.5412121,28.4659329 94.5747639,28.4659329 C94.6083157,28.4659329 94.6836857,28.2362621 94.7420367,27.9550626 C94.7999014,27.673863 94.8772164,27.4235807 94.9131995,27.3990432 C94.9491826,27.3749965 95.0211488,27.0618982 95.0731784,26.7041417 C95.125208,26.3458945 95.1991193,26.0327962 95.2370474,26.007768 C95.4928191,25.8389501 95.4889291,20.2522562 95.2331573,19.9234539 C95.1962017,19.8758512 95.1203454,19.533308 95.0644258,19.1623012 C95.0085061,18.7912945 94.9355674,18.4875205 94.9025018,18.4875205 C94.8694363,18.4875205 94.7960113,18.2666831 94.7391191,17.9967708 C94.6827132,17.7268585 94.6092882,17.5060212 94.5762227,17.5060212 C94.5431571,17.5060212 94.4935588,17.390695 94.4658421,17.2498499 C94.4060323,16.9485296 93.6975543,15.4610674 93.6139179,15.4610674 C93.5823112,15.4610674 93.5098587,15.332491 93.4534528,15.1749604 C93.3970468,15.0174298 93.3168143,14.8888534 93.2754823,14.8888534 C93.2336641,14.8888534 93.1996261,14.8338894 93.1996261,14.7666567 C93.1996261,14.699424 93.1266873,14.5988203 93.0372159,14.5423841 C92.9482306,14.4864387 92.8748057,14.4030112 92.8738332,14.3578622 C92.8718881,14.2552956 92.5285899,13.8209821 92.125482,13.4112062 C91.9586955,13.2414068 91.8215707,13.0637554 91.8215707,13.0166435 C91.8215707,12.9700223 91.7398793,12.8875763 91.6392239,12.8340846 C91.5390547,12.7801022 91.2633464,12.5415978 91.0265387,12.3030935 C90.7897311,12.0650799 90.5290967,11.8486593 90.4464329,11.8221589 C90.3642552,11.7961491 90.2762425,11.7205737 90.2514434,11.6548132 C90.2266442,11.5890528 90.1512742,11.5350703 90.0846568,11.5350703 C90.0180395,11.5350703 89.9241917,11.4614579 89.8765384,11.3716507 C89.8288851,11.2818435 89.7355235,11.2082311 89.6689062,11.2082311 C89.6018026,11.2082311 89.5274051,11.1552301 89.5026059,11.0904511 C89.478293,11.0256722 89.3489484,10.9486245 89.2161999,10.9191795 C89.0829652,10.8897345 88.9565381,10.8190666 88.9351428,10.7621396 C88.9132611,10.7052127 88.7518235,10.6109887 88.575798,10.5520988 C88.3997726,10.4936996 88.2558402,10.4191056 88.2558402,10.3862254 C88.2558402,10.3533452 88.091485,10.277279 87.8911467,10.2178983 C87.6908084,10.1580268 87.5264531,10.0839236 87.5264531,10.0534971 C87.5264531,10.0225799 87.3441063,9.95338422 87.1214001,9.89940176 C86.8982077,9.8454193 86.7158609,9.7713161 86.7158609,9.73500063 C86.7158609,9.69868516 86.4605754,9.62261896 86.148884,9.5666735 C85.8367063,9.51023729 85.5814208,9.43760635 85.5814208,9.40570762 C85.5814208,9.33454892 84.4887989,9.1632773 84.038524,9.1632773 C83.8620123,9.1632773 83.7175936,9.12647108 83.7175936,9.08132211 C83.7175936,9.02930265 83.0421812,8.99985767 81.8532802,8.99985767 C80.8282482,8.99985767 79.989453,9.02832115 79.989453,9.06365512 M110.623712,9.06512737 C110.623712,9.10095209 110.269716,9.17505529 109.836946,9.23051 C109.404663,9.28547396 109.03073,9.3620309 109.006417,9.40080012 C108.982104,9.4390786 108.752591,9.51759854 108.496333,9.575507 C108.240075,9.63292471 108.030497,9.7050649 108.030497,9.73598213 C108.030497,9.76640861 107.88462,9.83560431 107.706163,9.88958677 C107.527706,9.94356923 107.381829,10.0201262 107.381829,10.0598769 C107.381829,10.0991369 107.272421,10.1560638 107.138214,10.1859996 C107.004006,10.2154445 106.848404,10.283168 106.792484,10.3356782 C106.736565,10.3881884 106.508996,10.5589693 106.286776,10.7150277 C105.731469,11.1051736 105.738763,11.0987939 105.107114,11.7186107 C104.79834,12.021894 104.545486,12.3070195 104.545486,12.3516777 C104.545486,12.3968267 104.472547,12.4797634 104.383562,12.5357088 C104.29409,12.592145 104.221152,12.6770447 104.221152,12.7256289 C104.221152,12.7737224 104.15502,12.8846318 104.074302,12.972476 C103.993097,13.0603202 103.884661,13.2050913 103.833604,13.2948985 C103.761151,13.4210212 103.73927,13.011736 103.737325,11.4737266 L103.734893,9.49060731 L101.384808,9.49060731 L99.0347229,9.49060731 L99.0347229,23.0676869 L99.0347229,36.6452572 L101.384808,36.6452572 L103.734893,36.6452572 L103.735866,29.1407137 C103.736352,22.0758819 103.804915,19.0700403 103.96927,18.8634347 C104.008657,18.813869 104.084513,18.5071505 104.138488,18.180802 C104.191976,17.8544534 104.267832,17.5879764 104.306733,17.5879764 C104.345147,17.5879764 104.416627,17.4392792 104.465253,17.2572111 C104.55278,16.9288996 104.902885,16.2030809 105.014238,16.118672 C105.046331,16.0946252 105.12705,15.9660488 105.194154,15.8330557 C105.3376,15.5479301 106.225994,14.6174688 106.429736,14.5394396 C106.507537,14.5095039 106.571723,14.4515954 106.571723,14.4103725 C106.571723,14.3696402 106.681131,14.2901388 106.814852,14.2341933 C106.948573,14.1782479 107.057981,14.1031632 107.057981,14.0673385 C107.057981,14.031023 107.193647,13.956429 107.359461,13.9009743 C107.525275,13.8460104 107.707136,13.7542402 107.763055,13.697804 C107.818975,13.6413678 108.011533,13.5697183 108.190962,13.5392918 C108.369905,13.5088654 108.516755,13.4568459 108.516755,13.4234749 C108.516755,13.3518255 109.640498,13.1697574 110.076671,13.1707389 C110.243944,13.1707389 110.380583,13.1344234 110.380583,13.0892744 C110.380583,13.0416717 110.650942,13.0073192 111.028765,13.0073192 C111.407073,13.0073192 111.677433,13.0416717 111.677433,13.0892744 C111.677433,13.1344234 111.814071,13.1707389 111.981344,13.1707389 C112.393691,13.1697574 113.54126,13.3503532 113.54126,13.4156229 C113.54126,13.4450679 113.723607,13.5186804 113.946313,13.5800241 C114.169505,13.6413678 114.351852,13.7184155 114.351852,13.7517864 C114.351852,13.7851574 114.460774,13.8366861 114.594495,13.8661311 C114.72773,13.8955761 114.864368,13.9632995 114.898406,14.0158097 C114.931958,14.0688107 115.069083,14.1669606 115.202804,14.2346841 C115.336525,14.3019168 115.493586,14.4216597 115.551451,14.5001796 C115.609802,14.5786996 115.691979,14.6434785 115.733798,14.6434785 C115.833481,14.6434785 116.458808,15.2740918 116.458808,15.3746955 C116.458808,15.4173907 116.529316,15.5017997 116.614897,15.5621619 C116.700965,15.6230148 116.816208,15.7722027 116.871155,15.8943994 C116.926102,16.0161053 116.999041,16.1157275 117.032593,16.1157275 C117.066631,16.1157275 117.13957,16.2526466 117.194031,16.4199922 C117.248978,16.5873379 117.341367,16.7728412 117.399718,16.8317312 C117.458069,16.8906211 117.529549,17.0663095 117.558724,17.2223679 C117.5879,17.3784263 117.640416,17.5060212 117.675912,17.5060212 C117.711896,17.5060212 117.787266,17.772989 117.843671,18.0988468 C117.900564,18.4251953 117.975447,18.7117931 118.009972,18.7358398 C118.189887,18.8599995 118.241431,21.0664098 118.241917,28.6092318 L118.241917,36.6452572 L120.504476,36.6452572 L122.767034,36.6452572 L122.793779,28.1361492 C122.812256,22.3021174 122.847267,19.6083927 122.906104,19.5681512 C122.952785,19.5362525 123.038853,19.1603382 123.09769,18.7328953 C123.156041,18.3054524 123.229952,17.9373901 123.262531,17.9148156 C123.294624,17.8922412 123.371453,17.6993766 123.432722,17.4854097 C123.494477,17.2719336 123.567901,17.0972267 123.595618,17.0972267 C123.623335,17.0972267 123.689466,16.9500019 123.742954,16.7698967 C123.796443,16.5897916 123.866464,16.4425667 123.898071,16.4425667 C123.930164,16.4425667 124.006993,16.3267498 124.069234,16.1849232 C124.199064,15.8890011 124.225322,15.8556302 124.912891,15.1136167 C125.194435,14.8098427 125.466253,14.5615234 125.517796,14.5615234 C125.568853,14.5615234 125.650059,14.4879109 125.697712,14.3981037 C125.745365,14.3078058 125.836295,14.2341933 125.899023,14.2341933 C125.962236,14.2341933 126.042955,14.1841369 126.078452,14.1232839 C126.114435,14.0619402 126.280249,13.9672255 126.447522,13.9122616 C126.614308,13.8577884 126.751433,13.7812314 126.751433,13.7429529 C126.751433,13.7046745 126.951771,13.6281175 127.196845,13.5726628 C127.44192,13.5176989 127.642744,13.4455587 127.642744,13.4131692 C127.642744,13.3425012 128.735366,13.1712296 129.185641,13.1712296 C129.362153,13.1712296 129.506571,13.1344234 129.506571,13.0892744 C129.506571,13.0416717 129.776931,13.0073192 130.15524,13.0073192 C130.533062,13.0073192 130.803422,13.0416717 130.803422,13.0892744 C130.803422,13.1344234 130.94006,13.1712296 131.107333,13.1717204 C131.526487,13.1727019 132.451836,13.3302325 132.50338,13.4092432 C132.52672,13.4450679 132.73727,13.5201526 132.97116,13.5760981 C133.205536,13.6325343 133.396636,13.7086005 133.396636,13.7454067 C133.396636,13.7822129 133.531329,13.8577884 133.696171,13.9122616 C133.993761,14.011393 134.076911,14.0634125 134.374987,14.33676 C134.461055,14.41528 134.554903,14.4795682 134.583592,14.4795682 C134.676467,14.4795682 135.827926,15.6799418 135.827926,15.7766195 C135.827926,15.8281482 135.865368,15.8703526 135.911076,15.8703526 C135.956785,15.8703526 136.028751,15.9621228 136.071055,16.0745045 C136.11336,16.1873769 136.179977,16.2791471 136.218392,16.2791471 C136.257292,16.2791471 136.332176,16.426372 136.385664,16.6064771 C136.439153,16.7860915 136.512091,16.9333164 136.547588,16.9333164 C136.583571,16.9333164 136.660886,17.135996 136.719724,17.3833338 C136.778561,17.6306716 136.852472,17.8333512 136.884565,17.8333512 C136.916658,17.8333512 136.989111,18.1366345 137.045516,18.508132 C137.102409,18.8791387 137.188963,19.2089225 137.238075,19.2413119 C137.301774,19.2830256 137.334354,21.7632743 137.351859,27.9722388 L137.376172,36.6452572 L139.688329,36.6452572 L142,36.6452572 L141.973742,27.5526478 C141.952347,20.3705269 141.925603,18.453168 141.84537,18.4261768 C141.789937,18.4075283 141.744228,18.2642294 141.744228,18.108171 C141.744228,17.7347105 141.570148,16.6584966 141.501099,16.6064771 C141.471437,16.5839026 141.399958,16.3355833 141.341607,16.0543838 C141.283256,15.7731842 141.208858,15.5430226 141.175793,15.5430226 C141.143213,15.5430226 141.094101,15.4321132 141.067357,15.2961756 C141.008034,14.9963275 140.62,14.1527289 140.47315,14.003541 C140.414312,13.9441603 140.366659,13.8504271 140.366659,13.7954632 C140.366659,13.6928965 140.194038,13.4357437 139.941183,13.1614146 C139.862896,13.0765149 139.799196,12.978365 139.799196,12.943031 C139.799196,12.7580184 138.163424,11.1262759 137.978159,11.1262759 C137.931479,11.1262759 137.847842,11.0526634 137.791923,10.9628562 C137.736489,10.8725583 137.63632,10.7989459 137.569703,10.7989459 C137.503572,10.7989459 137.449111,10.7626304 137.449111,10.7184629 C137.449111,10.6738047 137.330464,10.5805623 137.185559,10.5108758 C136.749385,10.3013257 136.43818,10.1231836 136.395389,10.0588954 C136.373022,10.0255244 136.201372,9.95632872 136.013677,9.90578151 C135.826468,9.85474354 135.65336,9.7811311 135.629047,9.74187113 C135.60522,9.70261115 135.393698,9.62507271 135.159808,9.569618 C134.925431,9.51416329 134.697376,9.44251384 134.653127,9.41012437 C134.539342,9.32767843 133.667482,9.1632773 133.342661,9.1632773 C133.194353,9.1632773 133.072788,9.12647108 133.072788,9.08132211 C133.072788,9.0297934 132.45135,8.99985767 131.370885,8.99985767 C130.289933,8.99985767 129.668982,9.0297934 129.668982,9.08132211 C129.668982,9.12647108 129.554711,9.1632773 129.414669,9.1632773 C129.087417,9.1632773 128.100799,9.34191017 128.047797,9.41110587 C128.025429,9.4400601 127.830926,9.5082743 127.615027,9.56225676 C127.399129,9.61623922 127.143843,9.71046315 127.047564,9.77180685 C126.951285,9.83315056 126.754351,9.90823525 126.609446,9.93866173 C126.464541,9.96908821 126.345894,10.0240522 126.345894,10.0608584 C126.345894,10.0971739 126.261771,10.1482118 126.158198,10.1747123 C126.055112,10.200722 125.885407,10.296909 125.781348,10.3876977 C125.677289,10.4789771 125.544541,10.553571 125.486676,10.553571 C125.428811,10.553571 125.352469,10.5997015 125.316972,10.6561377 C125.280989,10.7125739 125.143864,10.8136683 125.011115,10.880901 C124.615301,11.0825991 122.780163,12.8178899 122.780163,12.9911245 C122.780163,13.0416717 122.707225,13.1231362 122.618239,13.1712296 C122.528768,13.2193231 122.455829,13.297843 122.455829,13.3459365 C122.455829,13.3945207 122.364899,13.5432178 122.253546,13.6767017 C122.142193,13.8101857 122.050776,13.972133 122.050776,14.0359305 C122.050776,14.1002187 122.013334,14.1527289 121.967626,14.1527289 C121.921918,14.1527289 121.849952,14.2444991 121.807647,14.3568808 C121.701157,14.6395525 121.615575,14.6130521 121.488176,14.2577493 C121.428366,14.0908944 121.338894,13.9098078 121.289782,13.8553346 C121.240184,13.8013522 121.076801,13.5515606 120.926061,13.3002968 C120.775321,13.0495237 120.620691,12.8438996 120.581791,12.8438996 C120.54289,12.8438996 120.510797,12.8016951 120.510797,12.7501664 C120.510797,12.5636816 119.625321,11.6724802 118.775342,11.0035885 C118.661071,10.9137813 118.487477,10.7744084 118.389739,10.6944162 C118.292001,10.6149147 118.127646,10.5280521 118.024073,10.5015516 C117.920986,10.4755418 117.836378,10.4240131 117.836378,10.3867162 C117.836378,10.3494192 117.708978,10.2723715 117.552889,10.2154445 C117.3968,10.1585176 117.269401,10.0873589 117.269401,10.0574231 C117.269401,10.0269967 117.105045,9.95583797 116.904707,9.89940176 C116.703883,9.84296555 116.540014,9.7703346 116.540014,9.73843588 C116.540014,9.7060464 116.32995,9.63292471 116.073692,9.575507 C115.817434,9.51759854 115.588407,9.43956935 115.564094,9.40178162 C115.540267,9.36350315 115.184812,9.28596471 114.773924,9.2295285 C114.363522,9.17309229 114.027518,9.09849835 114.027518,9.06316437 C114.027518,9.02832115 113.261662,8.99985767 112.325615,8.99985767 C111.389568,8.99985767 110.623712,9.0288119 110.623712,9.06512737 M53.9950689,12.970513 C54.3403122,12.9984857 54.6228281,13.0485422 54.6228281,13.0814224 C54.6228281,13.1143027 54.860122,13.1884059 55.1499319,13.2468051 C55.4397417,13.3047135 55.6765493,13.378326 55.6765493,13.4097339 C55.6765493,13.4416327 55.8588961,13.5142636 56.0816023,13.5721721 C56.3047948,13.6295898 56.4871416,13.7046745 56.4871416,13.7385362 C56.4871416,13.7728887 56.6237801,13.8587699 56.7910529,13.9299286 C57.3089177,14.1507659 57.5389178,14.3107503 58.2294042,14.9295856 C58.4521104,15.1293207 58.6801655,15.2942126 58.7360851,15.2951941 C58.7915186,15.2966663 58.8372268,15.3290558 58.8372268,15.3673343 C58.8372268,15.4056127 59.059933,15.6907383 59.3322375,16.0013828 C59.6045421,16.3115366 59.858855,16.6481908 59.8977557,16.7492853 C59.9361701,16.8508704 59.9984111,16.9333164 60.035853,16.9333164 C60.0732948,16.9333164 60.1535274,17.0623835 60.2147959,17.2199142 C60.2760645,17.376954 60.3519207,17.5060212 60.3830412,17.5060212 C60.414648,17.5060212 60.4885592,17.6714038 60.5478827,17.8740834 C60.6072062,18.0762723 60.6806312,18.2421457 60.7107792,18.2421457 C60.7414134,18.2421457 60.8099758,18.4261768 60.8634642,18.6514309 C60.9169526,18.8761942 60.9894051,19.078383 61.0239294,19.099976 C61.05894,19.1220598 61.1333374,19.3885368 61.1887709,19.6928016 C61.2442043,19.9970664 61.3181155,20.2826827 61.3531261,20.3278316 C61.6025765,20.6512356 61.6050078,25.2387633 61.3555574,25.5597136 C61.3195743,25.6063348 61.2442043,25.8934233 61.1887709,26.1971973 C61.1333374,26.5014621 61.05894,26.7684299 61.0239294,26.7900229 C60.9894051,26.8121066 60.9169526,27.0138047 60.8634642,27.2390588 C60.8099758,27.4638222 60.7414134,27.648344 60.7107792,27.648344 C60.6806312,27.648344 60.6076925,27.8112729 60.5498278,28.0105173 C60.4914768,28.2092709 60.3956839,28.3908482 60.3368467,28.4139135 C60.2784958,28.436488 60.2065296,28.5650644 60.1773541,28.699039 C60.1476923,28.8335044 60.0713498,28.9635531 60.0071637,28.9885813 C59.9434639,29.0131188 59.8909481,29.0886942 59.8909481,29.1559269 C59.8909481,29.2231596 59.8180094,29.3178743 59.7285379,29.3659678 C59.6395526,29.4140612 59.5666139,29.4984702 59.5666139,29.5539249 C59.5666139,29.8763474 57.074055,31.9747929 56.5260422,32.113675 C56.4151754,32.1416477 56.3247314,32.1966117 56.3247314,32.2363624 C56.3247314,32.2756224 56.1608624,32.3497256 55.9600378,32.4007636 C55.7596995,32.4518015 55.5953443,32.5205065 55.5953443,32.5543682 C55.5953443,32.5877392 55.3677755,32.6633146 55.0891496,32.7217138 C54.8105237,32.7806038 54.5635046,32.85667 54.5406505,32.8910224 C54.3728915,33.140814 50.5722984,33.1378695 50.4094019,32.8875872 C50.3865478,32.8532347 50.2221925,32.79778 50.0442221,32.7653905 C49.8657654,32.7325103 49.5920021,32.6490829 49.4363995,32.5798872 C48.7298665,32.2667889 48.2416634,32.0140528 48.0102046,31.8422905 C47.8725935,31.7397238 47.7262299,31.6558056 47.6853842,31.6558056 C47.6445385,31.6558056 47.5657647,31.5821932 47.509845,31.492386 C47.4544116,31.4025788 47.372234,31.3289663 47.3279845,31.3289663 C47.236568,31.3289663 46.1133118,30.2473541 46.1133118,30.1590192 C46.1133118,30.1276112 46.049612,30.0309335 45.9718107,29.9440709 C45.7102039,29.6535471 45.6270538,29.5367486 45.5327197,29.3281801 C45.4811763,29.2138354 45.4111552,29.120593 45.3776034,29.120593 C45.3435653,29.120593 45.2706266,28.9831831 45.2161657,28.8158374 C45.1612185,28.6484918 45.0688295,28.4634792 45.0104785,28.4045892 C44.9521276,28.3456993 44.8806476,28.1695201 44.8514721,28.0134618 C44.8222966,27.8574034 44.7688083,27.7298085 44.7323389,27.7298085 C44.6963558,27.7298085 44.6204995,27.5182954 44.5640936,27.2596703 C44.5081739,27.0010453 44.4332902,26.7694114 44.3982796,26.7448739 C44.363269,26.7203365 44.2947066,26.4077289 44.2455946,26.0494817 C44.1964825,25.6917252 44.1138186,25.3104127 44.0613028,25.2024478 C43.9329306,24.9379338 43.926123,20.879925 44.0540089,20.7950253 C44.1026347,20.7631266 44.1896749,20.3965366 44.2480259,19.9803809 C44.3063768,19.5642252 44.3812606,19.2236449 44.4143261,19.2236449 C44.4473917,19.2236449 44.4994213,19.0857443 44.5300555,18.9169264 C44.5606898,18.7481085 44.6341148,18.5341417 44.6934383,18.4408993 C44.753248,18.3476568 44.8470958,18.1174953 44.9030155,17.9295381 C44.9589352,17.741581 45.0338189,17.5879764 45.0693157,17.5879764 C45.1052988,17.5879764 45.1782376,17.4407515 45.2317259,17.2606464 C45.2852143,17.0805413 45.3600981,16.9333164 45.3989987,16.9333164 C45.4374131,16.9333164 45.5040305,16.8415462 45.5463349,16.7291645 C45.5886394,16.6167828 45.6606056,16.5245219 45.7063138,16.5245219 C45.7520221,16.5245219 45.789464,16.471521 45.789464,16.4062513 C45.789464,16.3414723 45.8565676,16.2403779 45.9387452,16.1814879 C46.0204365,16.122598 46.1293583,15.9954938 46.1804154,15.8983254 C46.3000349,15.6706175 46.969126,14.995346 47.1947498,14.8746216 C47.2910289,14.8230929 47.417456,14.713165 47.4753207,14.6302283 C47.5336717,14.5472916 47.6338408,14.4795682 47.6985131,14.4795682 C47.7626992,14.4795682 47.8152151,14.4417804 47.8152151,14.3961407 C47.8152151,14.3500103 47.9066316,14.2768886 48.0179847,14.2341933 C48.1293378,14.1914981 48.2207543,14.1247562 48.2207543,14.0859869 C48.2207543,14.046727 48.3666317,13.9706608 48.5446022,13.9166783 C48.7230589,13.8631866 48.8689363,13.7895742 48.8689363,13.7532587 C48.8689363,13.717434 49.0240527,13.6413678 49.213207,13.5844408 C49.4028477,13.5280046 49.5944334,13.4524292 49.6386829,13.4170952 C49.6834186,13.3817612 49.9387041,13.3052043 50.206146,13.2468051 C50.473588,13.1879151 50.7128269,13.1103767 50.7381124,13.0735704 C50.7988946,12.984254 52.359783,12.8537146 52.9209248,12.8905208 C53.1659989,12.9067156 53.6493394,12.9425403 53.9950689,12.970513 M82.6390732,12.933216 C83.2099402,12.9827818 83.6952258,13.0480515 83.7175936,13.0794594 C83.7394753,13.1103767 83.9908707,13.1830076 84.2758179,13.2409161 C84.5607651,13.2983338 84.841336,13.39403 84.899687,13.4529199 C84.9585242,13.5118099 85.1355222,13.5849316 85.2935561,13.6148673 C85.4520762,13.644803 85.5814208,13.6968225 85.5814208,13.7306842 C85.5814208,13.7650367 85.7088204,13.8391399 85.8649093,13.8960668 C86.0209981,13.9529938 86.148884,14.0305322 86.148884,14.0678292 C86.148884,14.1056169 86.2582921,14.1748126 86.392013,14.2219246 C86.525734,14.2690366 86.6351421,14.346575 86.6351421,14.393687 C86.6351421,14.4407989 86.6857129,14.4795682 86.7479539,14.4795682 C86.810195,14.4795682 86.9468335,14.5713383 87.0518652,14.6827385 C87.156897,14.7946294 87.2726264,14.8863996 87.3086095,14.8873811 C87.473451,14.8908164 88.9011047,16.4852619 88.9030497,16.6678208 C88.903536,16.7237663 88.9380603,16.7698967 88.9793922,16.7698967 C89.0207242,16.7698967 89.1072781,16.8709912 89.1724367,16.9946601 C89.6693925,17.9432791 89.7958196,18.1989597 89.7958196,18.2578496 C89.7958196,18.2951466 89.8668132,18.4816315 89.9538534,18.6725331 C90.5903652,20.0642991 90.8558621,24.6528082 90.367659,25.8080329 C90.3297309,25.8978401 90.2563059,26.1805119 90.2047626,26.4357017 C90.1532192,26.6908915 90.0399211,27.0481572 89.9533672,27.2292438 C89.8668132,27.4103305 89.7958196,27.5894541 89.7958196,27.6272418 C89.7958196,27.6650295 89.687384,27.8971541 89.5556081,28.1425289 C89.4233459,28.3879037 89.2589906,28.7083633 89.189942,28.8546066 C89.1208933,29.00085 89.0280181,29.120593 88.9842548,29.120593 C88.9400053,29.120593 88.9040222,29.1716309 88.9040222,29.2344469 C88.9040222,29.2972628 88.8135782,29.4351635 88.7031977,29.5411654 C88.5923308,29.6471673 88.5009143,29.7639657 88.500428,29.800772 C88.4989693,29.8778196 87.4685884,30.9211534 87.2735989,31.0423685 C86.9696876,31.2322887 86.6701527,31.4457648 86.5933239,31.5277199 C86.4741907,31.6543334 86.1060933,31.8658464 85.4598563,32.1769817 C84.522837,32.6289621 84.3414627,32.6996301 83.9607227,32.7614645 C83.7598981,32.7943448 83.5760925,32.8522532 83.5517796,32.8905317 C83.3971496,33.1354158 79.6685227,33.134925 79.5036812,32.8900409 C79.4813133,32.8561792 79.2347805,32.7806038 78.9561546,32.7217138 C78.6775287,32.6633146 78.4494737,32.5877392 78.4494737,32.5543682 C78.4494737,32.5205065 78.2856047,32.4518015 78.0847801,32.4007636 C77.8844418,32.3497256 77.7200866,32.2761131 77.7200866,32.2373439 C77.7200866,32.1985747 77.6019259,32.1180918 77.457021,32.0592018 C77.312116,32.0003118 77.1642936,31.9036342 77.1287968,31.8447442 C77.0928137,31.7858543 77.0266826,31.7377608 76.9814606,31.7377608 C76.7329827,31.7377608 75.0592824,30.1231945 74.8769356,29.7070388 C74.8142083,29.5642306 74.734462,29.4474322 74.6999377,29.4474322 C74.6649271,29.4474322 74.6017135,29.355662 74.5594091,29.2432804 C74.5171046,29.1308987 74.4509735,29.0386378 74.4125592,29.0386378 C74.3741448,29.0386378 74.2943984,28.8914129 74.2355612,28.7113078 C74.176724,28.5316934 74.099409,28.3844685 74.0639121,28.3844685 C74.0284153,28.3844685 73.9754131,28.2534383 73.9457514,28.0939447 C73.9160897,27.9344511 73.8436372,27.7553275 73.7852862,27.6964375 C73.7269353,27.6375475 73.6321149,27.3538942 73.5752228,27.0668057 C73.5178443,26.7792264 73.4424743,26.5235459 73.4074637,26.4980269 C73.3724531,26.4729986 73.2995144,26.0774544 73.2450535,25.6190943 C73.1905926,25.1607341 73.1176539,24.7853106 73.0831296,24.7853106 C73.048119,24.7853106 73.019916,23.9942222 73.019916,23.0269547 C73.019916,21.909027 73.0490915,21.2685987 73.1006349,21.2685987 C73.1453706,21.2685987 73.18184,21.1689765 73.18184,21.0477614 C73.18184,20.6816621 73.3724531,19.4690198 73.4303178,19.4690198 C73.4594933,19.4690198 73.530487,19.2481824 73.5868929,18.9782701 C73.6437851,18.7083578 73.7172101,18.4875205 73.7507619,18.4875205 C73.7838275,18.4875205 73.8523899,18.3216471 73.9029607,18.1194582 C73.9530453,17.9167786 74.0250115,17.751396 74.0614808,17.751396 C74.0984364,17.751396 74.1723477,17.6041711 74.2258361,17.424066 C74.2793244,17.2444516 74.3522632,17.0972267 74.38776,17.0972267 C74.4232568,17.0972267 74.4947368,17.0034936 74.5462801,16.8896396 C74.6406142,16.6805803 74.7232781,16.5642726 74.9848849,16.2732581 C75.0631725,16.1863954 75.1268723,16.0897177 75.1268723,16.0588005 C75.1268723,16.008744 76.4042722,14.7480082 76.7558368,14.4506139 C76.8273167,14.3902517 77.0004246,14.289648 77.1409532,14.2268321 C77.2809955,14.1640161 77.3962387,14.0894222 77.3962387,14.0609587 C77.3962387,14.0320045 77.5056468,13.9632995 77.6393677,13.9073541 C77.7730887,13.8514086 77.8824968,13.7802499 77.8824968,13.7493327 C77.8824968,13.7179247 78.0648435,13.6457845 78.2875497,13.5878761 C78.5102559,13.5304584 78.6926027,13.4548829 78.6926027,13.4200397 C78.6926027,13.3851965 78.9206577,13.3091303 79.1992836,13.2502403 C79.4779095,13.1913504 79.7249286,13.1147934 79.7487552,13.0794594 C79.7725819,13.0441255 80.1737448,12.9818003 80.6400663,12.9405773 C81.106874,12.8998451 81.5138721,12.8615666 81.5449926,12.8551868 C81.5761131,12.8488071 82.0682063,12.8841411 82.6390732,12.933216 M14.1826892,13.0892744 C14.1826892,13.1344234 14.3086301,13.1712296 14.4627739,13.1712296 C14.8872772,13.1712296 15.9653113,13.3464272 15.9653113,13.4151322 C15.9653113,13.4485032 16.1841274,13.5226064 16.4515694,13.5800241 C16.7190113,13.6374418 16.9378275,13.7100727 16.9378275,13.7419715 C16.9378275,13.7733794 17.0837049,13.8435566 17.2621616,13.8975391 C17.4406183,13.9515215 17.5864957,14.0280785 17.5864957,14.0673385 C17.5864957,14.1070892 17.6954175,14.1640161 17.8291385,14.1934611 C17.9623732,14.2229061 18.0990117,14.2901388 18.1330498,14.3431398 C18.1666016,14.3961407 18.3037264,14.4942906 18.4374474,14.5615234 C18.5711683,14.6292468 18.7282297,14.748499 18.7860944,14.8275097 C18.8444454,14.9060296 18.926623,14.9703178 18.9689274,14.9703178 C19.1420353,14.9703178 20.8249745,16.7963972 20.8269195,16.9863173 C20.8274058,17.0373553 20.8828392,17.100662 20.9494566,17.1266717 C21.0165602,17.1526815 21.0710211,17.2243309 21.0710211,17.2866561 C21.0710211,17.3484906 21.1468773,17.4873727 21.2392664,17.5948469 C21.3316554,17.7023211 21.4274482,17.8917504 21.4517611,18.0159101 C21.4765603,18.1405605 21.5251861,18.2421457 21.5601967,18.2421457 C21.5952073,18.2421457 21.670091,18.4261768 21.7274695,18.6509401 C21.7843617,18.8761942 21.8573004,19.0602253 21.8893934,19.0602253 C21.9214864,19.0602253 21.9934526,19.3178689 22.0493723,19.6324394 C22.105292,19.9475007 22.1762857,20.2051442 22.2074062,20.2051442 C22.4918672,20.2051442 22.4996473,25.3226815 22.2156726,25.5199628 C22.1816345,25.5435188 22.1077233,25.8291351 22.0508311,26.1554836 C21.9944252,26.4818321 21.9205139,26.7483092 21.8869621,26.7483092 C21.8538966,26.7483092 21.7785266,26.9509888 21.7196893,27.1983266 C21.6608521,27.4456644 21.5835371,27.648344 21.547554,27.648344 C21.5120571,27.648344 21.4391184,27.7955689 21.38563,27.9751833 C21.3321417,28.1552884 21.2562854,28.3025133 21.2164122,28.3025133 C21.1765391,28.3025133 21.1055454,28.412932 21.0588646,28.5478881 C21.0121838,28.6828443 20.9455665,28.7932629 20.9110422,28.7932629 C20.8760316,28.7932629 20.8035791,28.9012279 20.7496045,29.0327488 C20.6951436,29.1642697 20.599837,29.2923553 20.5371097,29.3164021 C20.4743824,29.3409395 20.4228391,29.3998295 20.4228391,29.4474322 C20.4228391,29.9695898 17.4391595,32.2142787 16.4549732,32.4321715 C16.3193072,32.4621073 16.2084403,32.5170712 16.2084403,32.5538774 C16.2084403,32.5906837 15.898694,32.6672406 15.5198989,32.7241676 C15.1406176,32.7806038 14.8308712,32.8581422 14.8308712,32.8959299 C14.8308712,32.9896631 12.4326464,32.9837741 12.256621,32.8895502 C12.179306,32.8483272 11.851568,32.7712795 11.5286927,32.7187693 C11.2058173,32.6657684 10.9233013,32.5931374 10.9009335,32.5563312 C10.8785656,32.5200157 10.677741,32.4459125 10.4550348,32.3919301 C10.2318424,32.3379476 10.0494956,32.2667889 10.0494956,32.2334179 C10.0494956,32.200047 9.90361817,32.1244715 9.72516146,32.0650908 C9.54670475,32.0057101 9.40082732,31.9330791 9.40082732,31.9036342 C9.40082732,31.8741892 9.27342771,31.7995952 9.11733887,31.7377608 C8.96125003,31.6759263 8.83385041,31.5944619 8.83385041,31.5566742 C8.83385041,31.5193772 8.74146138,31.453126 8.62913576,31.40994 C8.51632389,31.3667541 8.40302576,31.2754746 8.37725408,31.2072604 C8.3514824,31.1390462 8.28292001,31.0835915 8.2250553,31.0835915 C8.0952244,31.0835915 6.72640792,29.6937885 6.72640792,29.5612861 C6.72640792,29.5082852 6.67146076,29.4435062 6.60387089,29.4174965 C6.53628102,29.3914868 6.44583701,29.2771421 6.4030463,29.1632882 C6.36025559,29.049925 6.29461075,28.9566826 6.25765514,28.9566826 C6.22021327,28.9566826 6.13949443,28.8281062 6.07822591,28.6705755 C6.01695739,28.5130449 5.94304617,28.3844685 5.91387068,28.3844685 C5.8846952,28.3844685 5.812729,28.2372436 5.75389178,28.0571385 C5.69505455,27.8770334 5.62065706,27.7298085 5.58856403,27.7298085 C5.556471,27.7298085 5.48888113,27.5644258 5.43831029,27.3617462 C5.38773945,27.1595574 5.31431448,26.993684 5.27492757,26.993684 C5.23554067,26.993684 5.16065693,26.7458554 5.10862731,26.4430629 C5.05611144,26.1402704 4.98074144,25.8526911 4.94038202,25.8041069 C4.63841576,25.4365354 4.6379295,20.4348151 4.94038202,20.2051442 C4.97004376,20.1825697 5.04055118,19.9509359 5.09695712,19.6903478 C5.15384931,19.4297598 5.25158719,19.1171523 5.31431448,18.9954464 C5.37752803,18.8732497 5.45143926,18.6543754 5.47915597,18.508132 C5.50638642,18.3618886 5.55841603,18.2421457 5.59488539,18.2421457 C5.63086848,18.2421457 5.70477971,18.104245 5.75924062,17.9354271 C5.81370152,17.7666093 5.90754933,17.5992636 5.96833159,17.5634389 C6.02862759,17.5271234 6.07822591,17.4603815 6.07822591,17.4147418 C6.07822591,17.369102 6.16964243,17.2110807 6.28099553,17.063365 C6.39234863,16.9161401 6.48327889,16.7728412 6.48327889,16.7453593 C6.48327889,16.7178773 6.5654565,16.6054956 6.66562566,16.4960584 C6.76628108,16.3861305 7.06630232,16.0534023 7.33277174,15.756008 C7.59875491,15.4591044 7.85015033,15.2156926 7.89050975,15.2156926 C7.93086917,15.2156926 8.04708485,15.1332467 8.14822653,15.0316615 C8.42053105,14.7592955 8.56154589,14.6532935 8.79008718,14.5482731 C8.90338532,14.4962536 8.99577435,14.4270579 8.99577435,14.3946685 C8.99577435,14.362279 9.10518242,14.2901388 9.23890339,14.2341933 C9.37262436,14.1782479 9.48203242,14.1061077 9.48203242,14.0737182 C9.48203242,14.0413287 9.62790984,13.9706608 9.80636656,13.9166783 C9.98433701,13.8631866 10.1302144,13.7885927 10.1302144,13.7512957 C10.1302144,13.7144895 10.3490306,13.6374418 10.6164725,13.5800241 C10.8839144,13.5226064 11.1027306,13.4514477 11.1027306,13.4220027 C11.1027306,13.3474087 12.1593694,13.1712296 12.6038092,13.1712296 C12.8036613,13.1712296 12.967044,13.1344234 12.967044,13.0892744 C12.967044,13.0421625 13.223302,13.0073192 13.5748666,13.0073192 C13.925945,13.0073192 14.1826892,13.0421625 14.1826892,13.0892744" id="path0"></path>
            <path d="M169.709177,2.01813609 C169.32168,2.03603459 169.004726,2.07957148 169.004726,2.114401 C169.004726,2.14923052 168.551519,2.22517821 167.997814,2.2832274 C167.444593,2.34127659 166.991386,2.41383808 166.991386,2.44431391 C166.991386,2.47430599 166.701489,2.54638374 166.34733,2.60394919 C165.992689,2.66151464 165.702791,2.73746233 165.702791,2.77229185 C165.702791,2.80760511 165.449131,2.87919911 165.139423,2.93144338 C164.829233,2.98368766 164.575572,3.05624915 164.575572,3.09301364 C164.575572,3.12929438 164.43014,3.18395737 164.251853,3.21394945 C164.074049,3.24394154 163.882717,3.31456806 163.82667,3.37019853 C163.771106,3.42631275 163.536289,3.52015895 163.304854,3.57965937 C163.073902,3.63915979 162.884502,3.71123754 162.884502,3.73977839 C162.884502,3.76880299 162.739554,3.84039699 162.562233,3.89892993 C162.385395,3.95746286 162.240446,4.03002435 162.240446,4.06001644 C162.240446,4.09049226 162.095498,4.16305375 161.918177,4.22158669 C161.740856,4.28011962 161.595907,4.35268111 161.595907,4.3826732 C161.595907,4.41266528 161.450958,4.48522677 161.274121,4.54375971 C161.0968,4.60229264 160.951851,4.67388665 160.951851,4.70291124 C160.951851,4.73193584 160.824779,4.80546482 160.670167,4.86641647 C160.515072,4.92736812 160.388,5.00234833 160.388,5.03282415 C160.388,5.06378372 160.279289,5.1339265 160.146419,5.18907323 C160.013549,5.24421996 159.904837,5.31678145 159.904837,5.35015974 C159.904837,5.38353803 159.796126,5.45609952 159.663256,5.51124625 C159.530386,5.56639298 159.421675,5.64088945 159.421675,5.67717019 C159.421675,5.71296719 159.354032,5.76424398 159.270445,5.79036612 C159.187341,5.816972 159.015335,5.92823295 158.888263,6.03755893 C158.760708,6.14736865 158.620108,6.23686116 158.575657,6.23686116 C158.530722,6.23686116 158.449068,6.30942265 158.393504,6.39843141 C158.338424,6.48695643 158.25387,6.55951792 158.206037,6.55951792 C158.110371,6.55951792 158.028716,6.6286932 156.965758,7.61262702 C155.961263,8.54189784 154.509842,10.1159984 154.509842,10.2756337 C154.509842,10.3153007 154.437367,10.3926996 154.348465,10.4483301 C154.260046,10.5034768 154.187572,10.5857132 154.187572,10.6302175 C154.187572,10.6752057 154.097704,10.815975 153.988509,10.9431994 C153.878831,11.0704239 153.767704,11.2431203 153.741613,11.3263241 C153.715039,11.409528 153.664307,11.4777358 153.628069,11.4777358 C153.592315,11.4777358 153.517908,11.586578 153.462828,11.7196074 C153.407747,11.8526368 153.334306,11.961479 153.300002,11.961479 C153.265214,11.961479 153.199021,12.0703213 153.152637,12.2033507 C153.106254,12.3363801 153.033296,12.4452223 152.990295,12.4452223 C152.947293,12.4452223 152.887381,12.5564832 152.857908,12.6924151 C152.827952,12.828347 152.757893,12.9575064 152.701846,12.9787911 C152.6458,13.0000758 152.553032,13.1611623 152.495053,13.3362774 C152.437556,13.5113925 152.365565,13.6545805 152.335609,13.6545805 C152.30517,13.6545805 152.232695,13.7997035 152.174233,13.9767535 C152.11577,14.1542873 152.042329,14.2994103 152.010924,14.2994103 C151.979518,14.2994103 151.90801,14.4624317 151.852446,14.6622177 C151.796399,14.8615199 151.721992,15.0250252 151.687205,15.0250252 C151.651934,15.0250252 151.598786,15.1430585 151.56883,15.287214 C151.538874,15.4313695 151.46495,15.6272855 151.404554,15.7230667 C151.344159,15.8188479 151.251392,16.0728131 151.198244,16.2875951 C151.145096,16.5018934 151.072621,16.6968419 151.037834,16.7205453 C151.002563,16.7442487 150.927673,17.0069213 150.871143,17.3049072 C150.815096,17.6028931 150.746003,17.8466997 150.71798,17.8466997 C150.689956,17.8466997 150.619898,18.1282382 150.561918,18.471696 C150.503939,18.8151537 150.432914,19.1145908 150.403441,19.136843 C150.33918,19.1852173 150.161376,20.6035526 150.161376,21.0669786 C150.161376,21.2469311 150.125139,21.3944728 150.080688,21.3944728 C150.02899,21.3944728 150,22.1737832 150,23.5713175 C150,24.7685821 150.028507,25.7481622 150.063294,25.7481622 C150.098082,25.7481622 150.172489,26.2275518 150.228053,26.8138487 C150.2841,27.4001455 150.35899,27.8988848 150.394744,27.9225883 C150.430498,27.9458079 150.505871,28.2645947 150.561918,28.6303047 C150.617965,28.9960146 150.691889,29.2954517 150.725711,29.2954517 C150.759532,29.2954517 150.831523,29.5310346 150.886121,29.8193456 C150.940235,30.1076566 151.01126,30.3437233 151.043148,30.3437233 C151.07552,30.3437233 151.146545,30.5430255 151.201143,30.7868322 C151.25574,31.0306388 151.327248,31.2304247 151.360103,31.2304247 C151.393442,31.2304247 151.469781,31.4118285 151.530177,31.6333829 C151.590572,31.855421 151.66353,32.0368248 151.693002,32.0368248 C151.722475,32.0368248 151.789635,32.1819478 151.842783,32.3589978 C151.895931,32.5365316 151.968405,32.6816546 152.003676,32.6816546 C152.03943,32.6816546 152.111905,32.8267775 152.165053,33.0043113 C152.217717,33.1813613 152.290192,33.3264843 152.325946,33.3264843 C152.361217,33.3264843 152.433691,33.4716073 152.486839,33.6491411 C152.539987,33.8266749 152.61536,33.9717979 152.654496,33.9717979 C152.693149,33.9717979 152.749196,34.0801563 152.778186,34.2131857 C152.807176,34.3457314 152.875785,34.4816633 152.930382,34.5155253 C152.98498,34.5489036 153.076781,34.6940266 153.135243,34.8381821 C153.193223,34.9823375 153.268113,35.1003709 153.301935,35.1003709 C153.335273,35.1003709 153.407747,35.2092131 153.462828,35.3422425 C153.517908,35.4752719 153.590383,35.5841142 153.623721,35.5841142 C153.657542,35.5841142 153.730017,35.6929564 153.785097,35.8259858 C153.840178,35.9590152 153.917967,36.0678574 153.957587,36.0678574 C153.997689,36.0678574 154.064849,36.1583174 154.106884,36.2695784 C154.148919,36.3803556 154.22091,36.4708156 154.266328,36.4708156 C154.311262,36.4708156 154.348465,36.5235436 154.348465,36.5873977 C154.348465,36.6512518 154.415142,36.7509029 154.496796,36.8089521 C154.578451,36.8670013 154.688612,36.9961608 154.741277,37.0962956 C154.794424,37.1959468 154.963048,37.4034726 155.116694,37.5568192 C155.269857,37.7106496 155.395479,37.8596425 155.395479,37.8881834 C155.395479,37.9742897 157.149843,39.695932 157.238262,39.695932 C157.283196,39.695932 157.348906,39.7472088 157.38466,39.8100954 C157.447955,39.9223238 157.805978,40.2241796 158.253387,40.5424827 C158.378043,40.6310077 158.54715,40.7674233 158.628804,40.8448222 C158.710459,40.9222212 158.804676,40.9875265 158.838014,40.9889777 C158.871352,40.9909127 159.024032,41.099755 159.177194,41.2308494 C159.330357,41.3624275 159.498981,41.4698186 159.551162,41.4698186 C159.603344,41.4698186 159.665672,41.5206116 159.68983,41.5830145 C159.713505,41.6454174 159.844442,41.7208813 159.980211,41.7508734 C160.11598,41.7803817 160.227107,41.8403659 160.227107,41.8834191 C160.227107,41.9264722 160.335819,41.9995174 160.468688,42.0459568 C160.601558,42.0923961 160.71027,42.1606039 160.71027,42.1978522 C160.71027,42.2351004 160.836858,42.3115318 160.991954,42.3676461 C161.147049,42.4237603 161.274121,42.4929356 161.274121,42.5209927 C161.274121,42.5495335 161.41907,42.6206438 161.595907,42.6791767 C161.773228,42.7377097 161.918177,42.8102712 161.918177,42.8402632 C161.918177,42.8702553 162.063126,42.9428168 162.240446,43.0013498 C162.417284,43.0598827 162.562233,43.1338954 162.562233,43.1663062 C162.562233,43.1982333 162.725542,43.2654736 162.924605,43.3157829 C163.124151,43.3656084 163.286977,43.4367187 163.286977,43.4734832 C163.286977,43.5102477 163.486523,43.5881303 163.730037,43.6466633 C163.973551,43.7051962 164.173098,43.7782414 164.173098,43.8096848 C164.173098,43.8406443 164.390521,43.9127221 164.65626,43.9688363 C164.922,44.0254343 165.139423,44.1004145 165.139423,44.1362115 C165.139423,44.1715247 165.410961,44.2460212 165.743377,44.3021354 C166.07531,44.3577659 166.34733,44.4288761 166.34733,44.4603195 C166.34733,44.491279 166.664285,44.5609381 167.051782,44.6151173 C167.439278,44.6692965 167.79247,44.7413743 167.836921,44.7752363 C168.22635,45.0732222 174.995944,45.0756409 175.205154,44.7781388 C175.227379,44.7466955 175.580571,44.6731665 175.990293,44.615601 C176.400015,44.5575519 176.73533,44.4849904 176.73533,44.4540308 C176.73533,44.4230712 176.988991,44.3524447 177.298698,44.297298 C177.608889,44.2416675 177.862549,44.1681385 177.862549,44.1337927 C177.862549,44.099447 178.079973,44.0254343 178.345712,43.9688363 C178.611452,43.9127221 178.828875,43.8406443 178.828875,43.8096848 C178.828875,43.7782414 179.027938,43.7051962 179.271935,43.6466633 C179.515449,43.5881303 179.714512,43.5141176 179.714512,43.4821906 C179.714512,43.4497798 179.877821,43.3825394 180.076884,43.3322301 C180.276431,43.2824046 180.439257,43.2108106 180.439257,43.1745298 C180.439257,43.1377654 180.584205,43.0642364 180.761526,43.0110246 C180.938847,42.9578129 181.083796,42.8852514 181.083796,42.8499381 C181.083796,42.8141411 181.228745,42.7415796 181.405582,42.6883679 C181.582903,42.6356398 181.727852,42.5601759 181.727852,42.5209927 C181.727852,42.4818095 181.836563,42.426179 181.96895,42.3971544 C182.101337,42.3676461 182.237588,42.2994383 182.270927,42.2447753 C182.304265,42.1901123 182.449697,42.0977173 182.593679,42.0396681 C182.737662,41.9816189 182.855071,41.9056712 182.855071,41.8708417 C182.855071,41.836496 182.963782,41.7702231 183.096652,41.7237838 C183.229522,41.6773444 183.338233,41.6101041 183.338233,41.5743071 C183.338233,41.5385101 183.452743,41.4582087 183.591894,41.3967733 C183.731528,41.3348542 183.906916,41.2260119 183.981323,41.1553854 C184.056213,41.0842752 184.201162,40.971563 184.304076,40.9052902 C184.406989,40.8385336 184.607985,40.6847032 184.751001,40.5627999 C184.893534,40.4408966 185.034135,40.3407618 185.063125,40.3407618 C185.091631,40.3407618 185.242378,40.214021 185.39699,40.0587394 C185.552085,39.9034578 185.699933,39.7767171 185.726024,39.7767171 C185.781104,39.7767171 187.722936,37.7953047 187.992541,37.4639405 C188.094005,37.3391348 188.285337,37.1098405 188.417724,36.9545589 C188.55011,36.7992773 188.719217,36.5728854 188.794108,36.4509821 C188.868515,36.3290788 188.953551,36.228944 188.983024,36.228944 C189.012014,36.228944 189.081106,36.1201017 189.136187,35.9870723 C189.191268,35.8540429 189.263742,35.7452007 189.297563,35.7452007 C189.330902,35.7452007 189.403376,35.6363584 189.458457,35.5033291 C189.513537,35.3702997 189.586012,35.2614574 189.61935,35.2614574 C189.653171,35.2614574 189.725646,35.1526152 189.780726,35.0195858 C189.835807,34.8865564 189.905865,34.7777141 189.936305,34.7777141 C189.967227,34.7777141 190.041634,34.6509734 190.102513,34.4956918 C190.163391,34.3404102 190.236832,34.2136695 190.265822,34.2136695 C190.294811,34.2136695 190.365836,34.0704815 190.423333,33.8953664 C190.481312,33.7202514 190.574079,33.5591648 190.630126,33.5378801 C190.686173,33.5165954 190.756232,33.387436 190.786188,33.2515041 C190.815661,33.1155723 190.865427,33.0043113 190.896832,33.0043113 C190.927755,33.0043113 191.001679,32.8408061 191.060141,32.6415039 C191.119087,32.4417179 191.194944,32.2786964 191.228282,32.2786964 C191.262103,32.2786964 191.335544,32.1151912 191.391108,31.915889 C191.446671,31.716103 191.51818,31.5530815 191.549585,31.5530815 C191.580991,31.5530815 191.654915,31.3532955 191.713377,31.1094889 C191.77184,30.8656823 191.845764,30.6658963 191.878619,30.6658963 C191.910991,30.6658963 191.983949,30.4303134 192.041445,30.1420024 C192.098458,29.8536914 192.172865,29.6181084 192.20572,29.6181084 C192.239058,29.6181084 192.312016,29.345761 192.368063,29.0134293 C192.423627,28.680614 192.494652,28.4087502 192.525091,28.4087502 C192.556013,28.4087502 192.627521,28.0367517 192.684535,27.582033 C192.741065,27.1277981 192.817404,26.735966 192.853158,26.7112951 C193.04594,26.5811682 193.050289,20.5624344 192.85799,20.4337587 C192.818854,20.4076365 192.741548,20.0056459 192.685984,19.5402849 C192.63042,19.0749238 192.559395,18.6758356 192.52799,18.6535834 C192.496101,18.6313312 192.422177,18.3589838 192.363231,18.0484206 C192.304285,17.7378574 192.228429,17.4476115 192.194607,17.4035908 C192.161269,17.3590864 192.087829,17.1143123 192.031298,16.8593796 C191.975252,16.6044469 191.901811,16.3954698 191.868473,16.3954698 C191.835134,16.3954698 191.783436,16.2498631 191.752997,16.0713619 C191.723041,15.8933443 191.652982,15.701782 191.596935,15.6456678 C191.541371,15.5900373 191.447155,15.3549381 191.387726,15.123225 C191.32878,14.8919958 191.25244,14.7023684 191.218135,14.7023684 C191.183831,14.7023684 191.112323,14.5572454 191.059658,14.3801954 C191.00651,14.2026616 190.934036,14.0575386 190.898282,14.0575386 C190.863011,14.0575386 190.790536,13.9124156 190.737388,13.7348819 C190.684241,13.5578318 190.613699,13.4127088 190.580844,13.4127088 C190.547989,13.4127088 190.483245,13.3038666 190.436861,13.1708372 C190.390478,13.0378078 190.320419,12.9289656 190.2808,12.9289656 C190.24118,12.9289656 190.165324,12.7838426 190.112176,12.6063088 C190.059028,12.428775 189.985104,12.283652 189.948384,12.283652 C189.91118,12.283652 189.835807,12.1748098 189.780726,12.0417804 C189.725646,11.908751 189.653171,11.7999088 189.61935,11.7999088 C189.586012,11.7999088 189.513537,11.6910665 189.458457,11.5580371 C189.403376,11.4250077 189.330902,11.3161655 189.297563,11.3161655 C189.263742,11.3161655 189.192234,11.2102257 189.138603,11.0800988 C189.084972,10.9504556 188.990272,10.8246823 188.927461,10.8004952 C188.865133,10.7767918 188.814401,10.702779 188.814401,10.6365062 C188.814401,10.5702334 188.741926,10.4768709 188.653024,10.4294641 C188.564605,10.3820572 188.492131,10.2915973 188.492131,10.2291944 C188.492131,10.1663077 188.446714,10.0860064 188.391633,10.0506931 C188.336069,10.0148961 188.164063,9.82285002 188.009451,9.62306405 C187.854839,9.42376182 187.591999,9.13496709 187.425791,8.98162047 C187.259099,8.82827386 187.123331,8.67541098 187.123331,8.6420327 C187.123331,8.55737763 186.428059,7.84966122 186.344472,7.84966122 C186.307269,7.84966122 186.167635,7.73162786 186.034282,7.58747237 C185.900929,7.44331687 185.556917,7.13468867 185.269435,6.90152441 C184.982436,6.66787641 184.696887,6.43471215 184.634559,6.38295162 C184.373651,6.16429966 183.738775,5.75311788 183.662436,5.75311788 C183.617018,5.75311788 183.579815,5.71586965 183.579815,5.66991404 C183.579815,5.62444217 183.51652,5.56349052 183.439214,5.53494967 C183.361425,5.50640882 183.186037,5.39853407 183.048819,5.29549675 C182.912084,5.19245943 182.757955,5.1082881 182.70674,5.1082881 C182.655524,5.1082881 182.613489,5.07877976 182.613489,5.04249902 C182.613489,5.00670202 182.4869,4.92736812 182.331805,4.86641647 C182.17671,4.80546482 182.050121,4.72758215 182.050121,4.69323638 C182.050121,4.65889061 181.905172,4.5872966 181.727852,4.53456858 C181.550531,4.48135682 181.405582,4.40879533 181.405582,4.37299833 C181.405582,4.33768507 181.260633,4.26512358 181.083796,4.21191182 C180.906475,4.15870006 180.761526,4.08613857 180.761526,4.05082531 C180.761526,4.01502831 180.616577,3.94246682 180.439257,3.88925506 C180.262419,3.8360433 180.11747,3.76880299 180.11747,3.73929465 C180.11747,3.71027005 179.936284,3.63674107 179.714512,3.57627316 C179.493224,3.516289 179.312038,3.43937382 179.312038,3.40647928 C179.312038,3.37310099 179.112491,3.30150699 178.868977,3.246844 C178.625463,3.19218101 178.4264,3.12203823 178.4264,3.09107866 C178.4264,3.05963535 178.199797,2.98659012 177.922945,2.92902467 C177.646092,2.87097548 177.401612,2.79986521 177.379386,2.77132436 C177.357161,2.74229977 177.067263,2.67167325 176.73533,2.6141078 C176.402914,2.55654235 176.09514,2.48156214 176.050689,2.44770011 C175.955506,2.37417114 174.746149,2.20582848 174.313235,2.20582848 C174.147027,2.20582848 173.998696,2.17051522 173.983718,2.12746207 C173.954729,2.04183951 170.88133,1.9634731 169.709177,2.01813609 M165.447681,15.8309414 C165.462659,15.8754458 165.559775,15.9117266 165.663172,15.9117266 C165.917799,15.9117266 166.699556,16.0916791 166.749805,16.1613381 C166.77203,16.1922977 166.944036,16.2590542 167.13247,16.3098473 C167.32042,16.3606403 167.474549,16.4307831 167.474549,16.4665801 C167.474549,16.5023771 167.619498,16.5749386 167.796819,16.6281504 C167.973656,16.6808784 168.118605,16.7534399 168.118605,16.7892369 C168.118605,16.8245501 168.210889,16.8956604 168.322983,16.9469372 C168.550069,17.0504582 168.690187,17.1549468 168.960758,17.4234243 C169.061739,17.5235592 169.170934,17.604828 169.203789,17.604828 C169.497552,17.604828 169.725605,18.1224333 169.487888,18.2501415 C169.398986,18.2975484 169.326512,18.3759148 169.326512,18.4247729 C169.326512,18.4731472 169.163686,18.6763194 168.96414,18.8761053 C168.765077,19.0754076 168.601768,19.2713236 168.601768,19.3109905 C168.601768,19.3511412 168.456819,19.5170652 168.279981,19.6800867 C168.102661,19.8431081 167.957712,20.0056459 167.957712,20.0404754 C167.957712,20.1357728 167.649454,20.4260188 167.620464,20.3582947 C167.606453,20.3263677 167.432031,20.1744723 167.232968,20.0206419 C167.033421,19.8672953 166.852235,19.7173349 166.83001,19.6878265 C166.679746,19.490943 165.314328,18.903195 164.892527,18.8538531 C164.629686,18.8233773 164.414679,18.7658119 164.414679,18.7256612 C164.414679,18.6859942 164.052307,18.6530997 163.609247,18.6530997 C163.166186,18.6530997 162.803814,18.6821243 162.803814,18.7174375 C162.803814,18.7527508 162.562716,18.8228936 162.26847,18.8736866 C161.973741,18.9239959 161.7109,18.9999436 161.684326,19.0420293 C161.658235,19.0841149 161.509421,19.1779611 161.354326,19.2510064 C160.889523,19.4686908 160.763901,19.5615696 160.345482,19.9954873 C159.832846,20.5271211 159.585467,20.843973 159.584017,20.9711974 C159.583534,21.0263442 159.548263,21.071816 159.505745,21.071816 C159.463227,21.071816 159.383505,21.2261302 159.328424,21.4143063 C159.273344,21.6029662 159.204251,21.7751788 159.174295,21.797431 C158.860239,22.0315627 158.872802,25.7481622 159.187824,25.7481622 C159.224061,25.7481622 159.277692,25.8778054 159.307648,26.0364732 C159.337121,26.195141 159.408146,26.3431665 159.465159,26.3649349 C159.521689,26.3867034 159.588366,26.483452 159.612524,26.5802007 C159.685482,26.8704466 160.536331,27.8422869 160.909333,28.0609388 C161.492994,28.4039128 162.161208,28.6704553 162.533726,28.7091548 C162.770959,28.7338257 162.965191,28.7846188 162.965191,28.8228345 C162.965191,28.8610502 163.255088,28.8924935 163.609247,28.8924935 C163.963405,28.8924935 164.253303,28.8605665 164.253303,28.8223507 C164.253303,28.7836513 164.501648,28.7275371 164.805075,28.697545 C165.301283,28.6486869 166.657521,28.0856097 166.83001,27.8572829 C166.852235,27.8272908 167.007331,27.7005501 167.174988,27.5757443 C167.342162,27.4509386 167.545574,27.2772747 167.626262,27.1906847 C167.771211,27.0349193 167.790054,27.0484642 168.751548,28.013532 C169.905824,29.1725809 169.873452,29.0327791 169.145326,29.7153408 C168.369367,30.4424069 168.343759,30.4627242 168.050479,30.5928511 C167.910845,30.6547702 167.796819,30.7312017 167.796819,30.7631287 C167.796819,30.7950558 167.65187,30.8642311 167.474549,30.9174428 C167.297228,30.9706546 167.152279,31.0432161 167.152279,31.0785294 C167.152279,31.1143264 166.998634,31.1883391 166.8102,31.2434858 C166.621767,31.2986325 166.448311,31.371194 166.424636,31.4050561 C166.400961,31.4394018 166.111064,31.5119633 165.78058,31.5675938 C165.450097,31.6227405 165.155368,31.7030419 165.125895,31.7456113 C165.040375,31.8689659 162.22112,31.8578398 162.179568,31.7340015 C162.161208,31.6788547 162.06989,31.6333829 161.97664,31.6333829 C161.704136,31.6333829 160.871163,31.4452067 160.871163,31.3837714 C160.871163,31.352328 160.689977,31.2836365 160.468688,31.2304247 C160.2474,31.177213 160.066214,31.1027165 160.066214,31.0645008 C160.066214,31.0262851 159.921265,30.9513049 159.743944,30.8985769 C159.566623,30.8453651 159.421675,30.7703849 159.421675,30.7316854 C159.421675,30.6934697 159.331323,30.6276806 159.220679,30.585595 C159.110035,30.5435093 159.0192,30.4806227 159.0192,30.4457932 C159.0192,30.4114474 158.909039,30.3340485 158.77472,30.274548 C158.508014,30.1565147 157.32813,29.0013357 157.32813,28.8581477 C157.32813,28.8097734 157.255656,28.7246346 157.167237,28.6690041 C157.078335,28.6138574 157.005861,28.5142063 157.005861,28.4484172 C157.005861,28.3821444 156.970107,28.3279651 156.926622,28.3279651 C156.882654,28.3279651 156.790853,28.2099318 156.722244,28.0657763 C156.525597,27.6526595 156.341512,27.3237141 156.283049,27.2796934 C156.253576,27.257925 156.180135,27.058139 156.120223,26.8365846 C156.060311,26.6145464 155.981555,26.4128255 155.944835,26.3881546 C155.908115,26.3634837 155.834191,26.0640466 155.779593,25.7230076 C155.725479,25.3819686 155.653005,25.1028487 155.6187,25.1028487 C155.584396,25.1028487 155.556372,24.5223568 155.556372,23.8131892 C155.556372,23.0067891 155.586811,22.5230459 155.63706,22.5230459 C155.681511,22.5230459 155.717749,22.4253297 155.717749,22.3063289 C155.717749,21.9783509 155.901834,21.1526012 155.975274,21.1526012 C156.010545,21.1526012 156.039535,21.0887471 156.039535,21.0113481 C156.039052,20.823172 156.838203,19.2176281 156.93242,19.2176281 C156.973006,19.2176281 157.005861,19.1789286 157.005861,19.1320055 C157.005861,18.9312521 158.305085,17.5245266 158.49062,17.5245266 C158.538453,17.5245266 158.623007,17.4519651 158.67857,17.3629564 C158.733651,17.2744314 158.833182,17.2018699 158.898892,17.2018699 C158.965086,17.2018699 159.0192,17.1646216 159.0192,17.1191498 C159.0192,17.0736779 159.110035,17.0020839 159.220679,16.9599982 C159.331323,16.9179126 159.421675,16.8521235 159.421675,16.813424 C159.421675,16.7752083 159.566623,16.7002281 159.743944,16.6470163 C159.921265,16.5938046 160.066214,16.5193081 160.066214,16.4810924 C160.066214,16.4428767 160.256097,16.3664452 160.488981,16.3112985 C160.721383,16.2561518 160.929626,16.186009 160.951851,16.1550494 C161.005965,16.0795855 161.697855,15.9117266 161.953931,15.9117266 C162.066991,15.9117266 162.159758,15.8773808 162.159758,15.8357789 C162.159758,15.665985 165.391151,15.6611476 165.447681,15.8309414 M175.929898,20.9910309 C175.929898,23.7846483 175.958888,26.0703353 175.994159,26.0703353 C176.029913,26.0703353 176.103837,26.2880197 176.158434,26.5540785 C176.213515,26.8201373 176.289371,27.0378218 176.327058,27.0378218 C176.364745,27.0378218 176.41596,27.1195744 176.441084,27.2192255 C176.524188,27.5496222 177.045521,28.139789 177.420455,28.3279651 C177.552842,28.3942379 177.679431,28.4701856 177.701656,28.4963078 C177.769782,28.5766092 178.481481,28.7309233 178.783941,28.7309233 C178.941452,28.7309233 179.070456,28.767204 179.070456,28.8117084 C179.070456,28.8562128 179.233282,28.8924935 179.432828,28.8924935 C179.631891,28.8924935 179.795201,28.8610502 179.795201,28.8228345 C179.795201,28.7846188 180.030018,28.7343095 180.316533,28.7110898 C181.0722,28.6506219 182.291703,27.9225883 182.291703,27.5317237 C182.291703,27.4789957 182.340502,27.4170765 182.400897,27.3938569 C182.46081,27.3711209 182.557925,27.1998758 182.616871,27.0136346 C182.675334,26.8273935 182.747808,26.6387336 182.777764,26.594713 C182.920781,26.3842846 182.942523,25.6040068 182.937208,20.930563 L182.931893,15.9117266 L184.58431,15.9117266 L186.23721,15.9117266 L186.23721,20.0438616 C186.236727,23.9704057 186.145892,26.6962991 186.011573,26.792564 C185.977752,26.8167511 185.902861,27.0721676 185.844882,27.3599948 C185.786902,27.6483058 185.714428,27.902271 185.683022,27.9245232 C185.6521,27.9467754 185.57721,28.1194718 185.516331,28.3076479 C185.455936,28.4963078 185.382495,28.6506219 185.353505,28.6506219 C185.324999,28.6506219 185.251558,28.7773626 185.19068,28.9326442 C185.129801,29.0879258 185.049113,29.2146665 185.011909,29.2146665 C184.974706,29.2146665 184.919625,29.2775532 184.890635,29.3544683 C184.822993,29.5295834 183.774529,30.585595 183.667267,30.585595 C183.623783,30.585595 183.559039,30.6349368 183.523768,30.6949209 C183.488014,30.7553888 183.323255,30.8487513 183.157047,30.9029305 C182.991322,30.956626 182.855071,31.0296713 182.855071,31.0649845 C182.855071,31.1002978 182.683065,31.1762455 182.472889,31.2342947 C182.26223,31.2918601 182.071864,31.3649054 182.050121,31.3953812 C181.99649,31.4698777 181.219081,31.6333829 180.918554,31.6333829 C180.7881,31.6333829 180.680838,31.6696636 180.680838,31.714168 C180.680838,31.7644773 180.18463,31.7949531 179.35214,31.7949531 C178.621598,31.7949531 178.023443,31.7664123 178.023443,31.7320665 C178.023443,31.6977207 177.715185,31.6270942 177.338318,31.5758174 C176.961451,31.5240569 176.601011,31.429727 176.536751,31.3658729 C176.472973,31.3020187 176.29227,31.2255873 176.135242,31.196079 C175.978214,31.1665706 175.84921,31.1119076 175.84921,31.0741757 C175.84921,31.0369274 175.768039,30.9856506 175.668024,30.960496 C175.486355,30.9145404 175.237043,30.7486164 174.953909,30.4844926 C174.870805,30.4070937 174.77369,30.3437233 174.738902,30.3437233 C174.704114,30.3437233 174.513748,30.1603846 174.316134,29.9368952 C174.118521,29.7129221 173.901097,29.4666968 173.832972,29.3892978 C173.764362,29.3114152 173.660482,29.1319464 173.601537,28.9897259 C173.542591,28.8475054 173.463352,28.7309233 173.425182,28.7309233 C173.386529,28.7309233 173.314055,28.5679018 173.264289,28.3681158 C173.21404,28.1688136 173.145914,28.0053083 173.113059,28.0053083 C173.079721,28.0053083 173.005797,27.7789165 172.947817,27.5017316 C172.889838,27.2245467 172.813015,26.9773539 172.776294,26.9531667 C172.640043,26.8612555 172.549208,24.1237523 172.548242,20.0840123 L172.547758,15.9117266 L174.238828,15.9117266 L175.929898,15.9117266 L175.929898,20.9910309" id="path1"></path>
        </g>
    </g>
</svg>