<?xml version="1.0" encoding="UTF-8"?>
<svg width="246px" height="50px" viewBox="0 0 246 50" version="1.1" xmlns="http://www.w3.org/2000/svg" xmlns:xlink="http://www.w3.org/1999/xlink">
    <title>logo-junkllama</title>
    <defs>
        <rect id="path-1" x="0" y="0" width="50" height="50" rx="25"></rect>
    </defs>
    <g id="Page-1" stroke="none" stroke-width="1" fill="none" fill-rule="evenodd">
        <g id="logo-junkllama">
            <g id="Group-9-Copy-2">
                <mask id="mask-2" fill="white">
                    <use xlink:href="#path-1"></use>
                </mask>
                <use id="Mask" fill-opacity="0" fill="#000000" xlink:href="#path-1"></use>
                <g id="llama" mask="url(#mask-2)" fill="#000000" fill-rule="nonzero">
                    <g transform="translate(-51.0204, 4.5918)">
                        <path d="M17.9756112,0.246082216 C19.2294886,-0.339334269 21.267714,0.150559015 22.7284721,1.38846784 C22.9824758,1.6037394 23.5337481,2.13395107 24.1184838,2.71470721 L24.3897772,2.98537471 C25.0691482,3.66620211 25.7390372,4.36016768 25.9941902,4.66111069 C27.0672717,5.9271674 28.2728769,7.55884745 28.2728769,7.74540214 C28.2728769,7.83284031 28.3451353,7.94752806 28.4335843,8.00023051 C28.5220334,8.05293296 28.7487027,8.36555434 28.9375939,8.69494469 C29.1261852,9.02433505 29.3204732,9.32198413 29.3690452,9.35612097 C29.4176172,9.39055719 29.5171598,9.55225796 29.5909173,9.71545587 C29.6643751,9.87895327 29.8526665,10.228107 30.0094762,10.4916193 C30.1662858,10.7551316 30.4646139,11.3070102 30.6723941,11.7181492 C30.8801744,12.1289888 31.0957502,12.4934143 31.1512182,12.5278506 C31.206986,12.5622868 31.2873397,12.7479432 31.3296154,12.9401874 C31.371891,13.1324316 31.4783296,13.3495298 31.566179,13.4222951 L31.5960158,13.4525153 C31.676756,13.5483248 31.7644981,13.7604359 31.8015434,13.9574047 L31.8179693,14.0319577 C31.8682087,14.2319004 31.9673812,14.4352869 32.0539979,14.5068877 C32.1511419,14.5874386 32.2305961,14.7278787 32.2305961,14.8186107 C32.2305961,14.9096422 32.3385339,15.1854318 32.4704579,15.4312768 C32.6023819,15.6768223 32.7103196,15.9463235 32.7103196,16.0301683 C32.7103196,16.1137137 32.8182574,16.3832149 32.9501814,16.6290599 C33.0821054,16.8746054 33.1900432,17.1605761 33.1900432,17.2644838 C33.1900432,17.368092 33.2691976,17.5573418 33.3660418,17.6855045 C33.462886,17.8133679 33.5441391,18.0256749 33.5468376,18.1574311 C33.5492362,18.2891872 33.6388845,18.5586884 33.7462227,18.7563227 C33.853261,18.9539568 33.9836858,19.3043084 34.0358558,19.5348816 C34.0880257,19.7654549 34.2217486,20.2236069 34.3326847,20.5529973 C34.7326542,21.7397009 34.7743302,21.880141 34.9197464,22.5293394 C35.0009995,22.8916688 35.1308247,23.3058022 35.2081802,23.4498357 C35.2855356,23.5935696 35.3487991,23.851093 35.3487991,24.0217771 C35.3487991,24.1924612 35.4567369,24.6386354 35.5886609,25.0135415 C35.7205848,25.3884476 35.8309213,25.885827 35.8339195,26.1184964 C35.836618,26.3514652 35.9178712,26.7575137 36.0144155,27.021026 C36.1109599,27.2845383 36.2215961,27.8235406 36.2605737,28.2188091 L36.2740569,28.3412824 C36.3199035,28.7191231 36.4121363,29.1794311 36.4917405,29.4165921 C36.5798896,29.6801044 36.6854288,30.3269073 36.7262053,30.8539318 C36.7669818,31.3809564 36.8731207,32.1086096 36.9618695,32.470939 C37.0506184,32.8332684 37.158856,33.7744265 37.2020311,34.5625678 C37.2452062,35.3504096 37.3372532,36.0633899 37.4062135,36.1466359 C37.6026003,36.3830483 37.6986949,40.7082431 37.6964837,45.1360729 L37.6950244,45.9333296 C37.6818636,50.0935778 37.5819452,54.1331847 37.3969188,54.7413199 C37.3282584,54.9674015 37.2419081,55.8028551 37.2047295,56.5978837 C37.1678508,57.3932117 37.0500187,58.5442811 36.9432803,59.1557495 C36.7906682,60.0283347 36.7801742,60.2996327 36.8944084,60.4134219 C37.0065438,60.5257138 40.480042,60.5640429 52.1151367,60.5820097 C62.4651719,60.5975811 67.4722867,60.6466903 68.0899306,60.7383204 C68.5846454,60.8116847 69.7042005,60.9206832 70.5781964,60.9805719 C71.4518929,61.0401617 72.2692219,61.1437699 72.39425,61.2108459 C72.5192781,61.2776224 73.0997434,61.3875189 73.6838066,61.4551939 C74.2681699,61.5228684 74.9619704,61.6564214 75.2258184,61.7522439 C75.4896663,61.8477673 75.9106235,61.9283179 76.1612791,61.9310133 C76.4119347,61.9340077 76.7633321,62.0121628 76.9423291,62.1043923 C77.121326,62.1969209 77.5239939,62.3110097 77.8373133,62.3577235 C78.1506327,62.4047362 78.4342694,62.4870837 78.46755,62.5409842 C78.5008306,62.5948842 78.8375367,62.7029842 79.2156189,62.7811398 C79.593701,62.8595944 80.0095612,62.9979383 80.1396862,63.0886704 C80.2698112,63.179702 80.4575031,63.2539643 80.5570459,63.2539643 C81.0394679,63.2539643 85.0862357,65.0943582 85.8939704,65.6809724 C86.0643163,65.8046327 86.3524138,65.9966842 86.6511755,66.1895046 L86.8308556,66.304748 C87.2789719,66.5903816 87.7028944,66.8473138 87.7412056,66.8473138 C87.7873791,66.8473138 87.9115077,66.9416393 88.0170464,67.0569255 C88.1225857,67.1722122 88.4446,67.4551888 88.7327342,67.6857617 C90.2990316,68.9395413 91.6314638,70.4535393 92.9381107,72.4649163 C93.1428929,72.7799332 93.7566388,74.0085592 94.0660607,74.7227378 C94.1590071,74.9368413 94.3143173,75.2871929 94.4117612,75.5012964 C95.0656847,76.9416306 95.0584888,79.9917852 94.3991689,80.7508806 C94.3086209,80.8550878 94.2348633,80.9946291 94.2348633,81.0611061 C94.2348633,81.1275832 93.9860066,81.4195429 93.6819821,81.7103046 C93.5182765,81.8668689 93.3453556,82.0354143 93.2039918,82.1756423 L93.0428357,82.3371602 C92.9970526,82.3836837 92.960275,82.4218337 92.9357122,82.4484383 C92.8292735,82.563725 92.6583719,82.6580505 92.5558311,82.6580505 C92.4532903,82.6580505 92.2617005,82.7332112 92.130376,82.8251413 C91.6341622,83.1724985 90.2801423,83.4126541 89.2346449,83.3386908 C88.0311388,83.2539474 88.0017556,83.2853893 87.9912617,84.6565515 C87.9873638,85.171299 87.9318959,85.8621204 87.8683321,86.1915107 C87.8044694,86.520901 87.6971311,87.2755041 87.6296699,87.8684071 C87.5622087,88.4613097 87.450973,89.1889628 87.3826122,89.4854143 C87.3142515,89.7818653 87.187425,90.5634189 87.100475,91.2221995 C87.013825,91.8809801 86.8839995,92.7703342 86.8120413,93.1985418 C86.6399403,94.2208495 86.6402403,97.3967714 86.8123408,97.8321658 C86.8857985,98.0175224 87.0162235,98.4388429 87.102274,98.7682332 C87.3307423,99.6414168 87.6326684,100.41788 87.8278556,100.63408 C87.9217015,100.738287 87.9984571,100.887111 87.9984571,100.964967 C87.9984571,101.094927 88.4062224,101.71957 89.183974,102.780807 C89.3079827,102.949893 89.6120969,103.298374 89.941773,103.653124 L90.1232026,103.846205 C90.1839046,103.910079 90.244523,103.973119 90.3041286,104.034286 C90.7508709,104.493037 91.1166602,104.952687 91.1166602,105.055696 C91.1166602,105.158705 91.1979138,105.358436 91.2971561,105.500073 C91.4329781,105.693815 91.4479694,105.834255 91.3583209,106.070218 C91.2926592,106.242399 91.1856204,107.083243 91.1205582,107.93876 C91.0554954,108.794277 90.9484571,109.594395 90.8827949,109.716569 C90.8174327,109.839043 90.7295837,110.470873 90.6879077,111.12097 C90.6462316,111.771366 90.5415918,112.599633 90.4555413,112.961963 C90.3691913,113.324292 90.263352,114.105845 90.219877,114.698748 C90.176702,115.291651 90.0663658,116.181005 89.9749184,116.67509 C89.8834709,117.169176 89.7779316,118.077694 89.7404536,118.694253 C89.702975,119.310513 89.6214219,119.909704 89.5593577,120.025589 C89.4972934,120.141474 89.3926541,120.876913 89.3269918,121.659665 C89.2610296,122.442715 89.1506934,123.271881 89.0817332,123.502454 C89.012773,123.733027 88.922525,124.46068 88.8814485,125.119461 C88.833476,125.886941 88.7258383,126.49781 88.5822209,126.819714 C88.4589918,127.096103 88.35825,127.379079 88.35825,127.448551 C88.35825,127.518022 88.2991842,127.574916 88.2272255,127.574916 C88.1552668,127.574916 87.9591801,127.682717 87.7912765,127.814473 C87.4116954,128.112721 86.3128286,128.150152 86.0366878,127.874362 C85.9377449,127.775545 85.801024,127.694695 85.7326633,127.694695 C85.6643026,127.694695 85.5443714,127.573419 85.4661168,127.425193 C85.3881617,127.276968 85.2646327,127.116764 85.1920745,127.069452 C85.021473,126.957759 85.0547536,125.003875 85.23525,124.531649 C85.3084077,124.340303 85.4193439,123.516827 85.4817077,122.702035 C85.5437719,121.886944 85.6430148,121.12725 85.7020806,121.01376 C85.7611469,120.90027 85.8480964,120.247778 85.8954694,119.563544 C85.9425423,118.87961 86.0510796,118.044156 86.1368301,117.706981 L86.1530985,117.638105 C86.2355694,117.265961 86.333423,116.489303 86.3769918,115.845027 C86.4234648,115.158098 86.5125138,114.462485 86.5745781,114.299288 C86.6366423,114.13579 86.7385837,113.335671 86.8009474,112.520879 C86.8630117,111.705788 86.9652526,110.943997 87.0276168,110.827513 C87.0899811,110.711029 87.1982184,109.901627 87.2683781,109.028742 C87.3385378,108.156158 87.4521719,107.336574 87.5214321,107.207513 C87.6836388,106.905073 87.5676056,106.69067 86.5955658,105.497978 C85.9200551,104.668812 85.319801,103.842641 85.1090224,103.451565 C85.0700449,103.379099 84.9744,103.212008 84.8967449,103.080252 C84.8190898,102.948496 84.6763719,102.669113 84.5798276,102.459501 C84.4832832,102.249889 84.3492602,102.044769 84.282399,102.003445 C84.2155372,101.962121 84.1606689,101.823478 84.1606689,101.695315 C84.1606689,101.567153 84.0527311,101.261119 83.9208071,101.015274 C83.7888832,100.769729 83.6806459,100.432852 83.6803459,100.267259 C83.6797464,100.101665 83.5933959,99.8043153 83.4881566,99.6066811 C82.9655577,98.6253974 82.9301781,92.0852026 83.4401842,90.7451827 C83.5118429,90.5571306 83.6212801,89.871699 83.6830444,89.2225005 C83.7451087,88.5730031 83.850648,87.9393755 83.9175092,87.8145066 C84.3981321,86.9176668 84.3624526,79.4485908 83.8728347,78.525699 C83.7681954,78.3280648 83.6821449,78.066948 83.6815454,77.945373 C83.6812454,77.823798 83.6041898,77.5812469 83.5103439,77.4063704 C82.2528684,75.0629082 82.7277949,73.4351209 84.669176,73.4351209 C85.5086923,73.4351209 86.6792179,74.6367964 86.6792179,75.4986015 C86.6792179,75.5992153 86.753575,75.7429495 86.8441224,75.8184097 C86.9349704,75.8935704 87.0426082,76.1651679 87.0836847,76.4217929 C87.1250607,76.6784179 87.2329985,77.0413459 87.3238459,77.227901 C87.4146939,77.4147551 87.617377,77.8288888 87.7738867,78.1486964 C89.1138148,80.8853316 92.1828459,79.7438444 90.9859357,76.9539082 C90.6261429,76.1151602 89.7632403,74.3442383 89.6798883,74.2735689 C89.6642974,74.2603934 89.6160852,74.1967189 89.5473408,74.0999097 L89.4722,73.992698 C89.3775959,73.8562321 89.2605301,73.6825429 89.1401995,73.499202 C88.5939143,72.6673418 86.9100847,70.9455286 85.9596321,70.2472209 C84.9558107,69.5093867 84.1333847,68.9542143 83.8008765,68.7898184 C83.6359714,68.7080699 83.3391423,68.5349903 83.1412566,68.4050306 C82.9433704,68.2747719 82.6465418,68.110975 82.4816367,68.0406051 C81.8103235,67.7546342 81.0832423,67.4246454 80.763027,67.260549 C80.5762347,67.1650255 80.3465673,67.0868704 80.2527214,67.0868704 C80.1588755,67.0868704 79.8806357,66.9790699 79.6344776,66.8473138 C79.3886194,66.7155577 79.076799,66.6077571 78.9421765,66.6077571 C78.8075541,66.6077571 78.5907791,66.5349918 78.4606541,66.4457571 C78.3305291,66.3568214 77.9839286,66.2466255 77.690398,66.2011097 C77.3968668,66.1552944 77.0919429,66.0645622 77.0127883,65.9989837 C76.9336342,65.9334051 76.5279679,65.8247066 76.1115077,65.7579301 L76.0225633,65.7430179 C75.6391959,65.6761903 75.2889745,65.5823265 75.2213209,65.5261592 C75.1484628,65.4656709 74.6570459,65.3680515 74.12935,65.3090607 C73.6016541,65.2500699 73.0658628,65.1464617 72.9387362,65.0790862 C72.8113097,65.0114117 72.2215495,64.9164872 71.6278918,64.867977 C71.0342337,64.8194668 70.2786694,64.6987903 69.9488592,64.599973 C69.4310577,64.4445607 66.9604816,64.4134184 51.8222056,64.3696995 C34.8583688,64.3207219 33.784135,64.364898 33.3555819,63.82095 L33.3268651,63.7824954 C33.2754151,63.7102561 33.2286849,63.6283643 33.1558629,63.5354434 C32.8611328,63.1593398 32.7834775,60.9042133 33.0539216,60.5784163 C33.1246809,60.493374 33.2398145,59.5719791 33.3093744,58.5311056 C33.3792342,57.4902321 33.4880714,56.5421867 33.5510352,56.4242051 C33.6142987,56.3062235 33.7264341,54.8976306 33.8001916,53.293799 C33.8736492,51.6899673 33.9824865,50.2870641 34.0418523,50.1759698 C34.1091568,50.0498271 34.1441791,47.9138039 34.1470171,45.6762044 L34.1469668,45.0457736 C34.1437712,42.8059007 34.1084005,40.6433549 34.0409528,40.4664406 C33.9812872,40.309531 33.8712506,39.0099364 33.795994,37.5782861 L33.7883707,37.4355352 C33.7134769,36.0602658 33.6046543,34.8306216 33.5423402,34.6670743 C33.4778773,34.497588 33.3750366,33.7474764 33.3141717,33.0003591 C33.2533067,32.2529425 33.1507658,31.5435555 33.0866028,31.4237771 C33.0224398,31.3039988 32.9339908,30.8033255 32.890216,30.3113361 C32.8464412,29.8190472 32.7361048,29.1740411 32.6449573,28.8775897 C32.5538098,28.5811384 32.4464717,28.0421361 32.4065947,27.6798067 C32.3664179,27.3174773 32.2626777,26.8323752 32.1760276,26.6018019 C32.0893775,26.3712286 31.9610515,25.9130766 31.8908919,25.5836863 C31.5820698,24.1322726 31.3721908,23.3090962 31.2807435,23.1932107 C31.2267746,23.1246376 31.1437225,22.8545375 31.0966496,22.5934208 C31.0492769,22.3320046 30.9344431,21.970873 30.8411968,21.7909061 C30.7479506,21.6106397 30.6696957,21.366292 30.667297,21.2477115 C30.6651983,21.129131 30.5590594,20.8165095 30.4316329,20.5529973 C30.3042063,20.289485 30.1962685,19.9660836 30.1917711,19.8343274 C30.1872737,19.7025713 30.0793359,19.3791698 29.9519093,19.1156576 C29.8244828,18.8521453 29.7183439,18.5640785 29.7162452,18.4754425 C29.7138465,18.3868066 29.6352918,18.1712056 29.5414459,17.9963293 C29.2197313,17.3968388 28.8725314,16.5844424 28.864436,16.4128601 C28.8602385,16.3182352 28.6986316,15.9714769 28.505243,15.6420866 C28.1187658,14.9833059 28.0953792,14.9380896 27.916982,14.5041927 C27.8492211,14.3394975 27.7454809,14.1238965 27.6864149,14.0250794 C27.627349,13.9262623 27.5164129,13.7106614 27.4402568,13.5459662 C27.2183846,13.0665535 26.9380462,12.5631852 26.6058377,12.0487373 C26.4358356,11.7852251 26.228655,11.4348735 26.1456029,11.2701783 C26.0625508,11.1054832 25.9000444,10.8341853 25.7843111,10.6670945 C25.6688776,10.5 25.4664942,10.1903769 25.3345703,9.97896816 C25.2026463,9.76785888 25.0542318,9.5944798 25.0047604,9.59418036 C24.9552889,9.59358143 24.9148122,9.5336923 24.9148122,9.46092699 C24.9148122,9.38816163 24.7804896,9.15908561 24.6161843,8.95186918 C24.4515791,8.7446527 24.2222113,8.45119582 24.106478,8.29967628 C23.1335387,7.02882842 22.792935,6.63326056 21.7375432,5.54776964 C20.0447188,3.8067919 19.374605,3.48668437 18.7161844,4.10444099 C18.2168301,4.5728057 18.3511992,4.94549376 19.5493654,6.15488577 L19.7589835,6.36435827 C20.3952168,6.99469158 21.1876601,7.9139901 21.767526,8.69494469 C22.1683949,9.23484541 22.8759871,10.3403992 22.8759871,10.426939 C22.8759871,10.4859298 22.947346,10.6057082 23.0342959,10.6925474 C24.0663012,11.7235392 23.5083228,13.7418037 22.0934381,14.0963476 C21.935729,14.1358744 21.7465381,14.240381 21.6733802,14.3287174 C21.6002223,14.4167545 21.3858459,14.5227583 21.1969547,14.5640818 C21.0080636,14.6054054 20.7894896,14.7167992 20.7109348,14.811424 C20.6323802,14.9060489 20.4953591,14.9833059 20.4063104,14.9833059 C20.2545979,14.9833059 19.4363694,15.347432 19.0381988,15.5920792 C18.9392559,15.6528667 18.7233803,15.7561755 18.5584753,15.8220535 C18.3935704,15.8876321 18.1776947,15.9918393 18.0787518,16.0538245 C17.83889,16.203248 16.8425642,16.6853557 16.0998922,17.0111527 L15.9345014,17.0844933 C15.6601456,17.2076889 15.4027939,17.3307112 15.3203414,17.3788721 C15.1740779,17.4640188 14.6562043,17.7199601 14.114866,17.9779945 L13.8979045,18.08092 C13.6813419,18.1831574 13.4684521,18.2821307 13.2815164,18.3670432 C12.9846874,18.5017937 12.6608741,18.6533133 12.5619311,18.7036202 C12.546843,18.7112898 12.5300302,18.7197931 12.5115799,18.7290871 L12.3819256,18.7940015 C12.0121523,18.978309 11.313178,19.3213853 10.5792945,19.6793587 L10.2845768,19.8230016 C9.74340556,20.086553 9.2045627,20.3477996 8.78410821,20.5500028 C5.50782015,22.1257292 4.94575918,22.3985209 4.63619049,22.6966295 L4.60209134,22.7305572 C4.55771123,22.7761286 4.51696737,22.8234189 4.47139363,22.8769959 C3.15845028,24.4215372 3.57131234,26.4311178 5.37897061,27.2947194 C5.39537755,27.3025541 5.41151148,27.3101473 5.42751923,27.3175079 L5.47531061,27.3388999 C5.92852133,27.5356574 6.39845684,27.5504461 10.2832443,27.5845829 C15.3830053,27.6289009 15.7002225,27.6854961 17.3051976,28.8368652 C18.2313638,29.5013353 19.7508881,31.3779619 19.7619817,31.8711491 C19.7640805,31.9702657 19.8702193,32.2673159 19.9976459,32.5308282 C20.1250725,32.7943405 20.2312113,33.1563704 20.2333101,33.3351395 C20.2357087,33.5139087 20.3319533,33.9181605 20.4473867,34.2334768 C20.7118343,34.9554406 20.7487131,40.7036016 20.4962586,41.8136471 C20.4138061,42.1759765 20.2926759,43.0380809 20.2267139,43.7295012 C20.1610517,44.4209215 20.0285281,45.2177467 19.9325834,45.5004235 C19.8363389,45.7831003 19.7577841,46.2481396 19.7577841,46.5341103 C19.7577841,46.8197815 19.6816281,47.2695491 19.5883818,47.5333608 C19.4951355,47.7971726 19.3827003,48.3295871 19.3383259,48.7164711 L19.3232365,48.8363982 C19.2726217,49.2067926 19.1761793,49.6615219 19.0957657,49.898683 C19.006717,50.1621953 18.899079,50.7275489 18.8568034,51.1551577 C18.8145278,51.5827658 18.7242797,51.9995944 18.656219,52.0813434 C18.5881582,52.1633913 18.4862169,52.6410071 18.4298494,53.1428786 L18.4179878,53.2428867 C18.3599977,53.7070913 18.2666435,54.129073 18.2022806,54.2062102 C18.1333203,54.2891571 18.0247829,54.7700668 17.9606198,55.2752316 C17.8964568,55.7800974 17.7942158,56.2861607 17.7336507,56.3996505 C17.6730856,56.5134403 17.5831374,56.927873 17.5339657,57.3213449 C17.4850939,57.7145173 17.3717592,58.2112974 17.2821109,58.4254015 C17.1924626,58.6395051 17.1193047,58.9757827 17.1193047,59.1731173 C17.1193047,59.370452 17.0152646,59.9786265 16.8878381,60.5245163 C16.6263888,61.6456413 16.4440938,62.6601633 16.2689947,63.9726342 C16.2030328,64.4667199 16.0923965,65.1135224 16.0228366,65.409974 C15.6222674,67.1162158 15.5524077,75.8276923 15.9331883,76.566425 C15.9889561,76.6748245 16.0908973,77.2584444 16.1595578,77.863325 C16.2279184,78.4682051 16.3640399,79.1542357 16.4617836,79.3878031 C16.5595273,79.6213709 16.6395812,79.9657337 16.6395812,80.1528872 C16.6395812,80.3400408 16.747519,80.766751 16.8794429,81.1009327 C17.0113669,81.4351138 17.1193047,81.8294842 17.1193047,81.9771107 C17.1193047,82.1247378 17.1921627,82.3517173 17.2812114,82.481677 C17.3702601,82.6116362 17.4802967,82.8796403 17.5252708,83.0772745 C17.5705446,83.2749087 17.6937736,83.6252602 17.7993128,83.8558337 C17.904852,84.0864066 18.0994398,84.5176087 18.2313638,84.8140602 C18.833117,86.1660577 18.9602438,86.4427454 19.0561885,86.6107347 C19.112556,86.709552 19.211499,86.8982026 19.2762616,87.0299587 C19.3410243,87.1617148 19.5293158,87.4851163 19.6948205,87.7486286 C19.8603251,88.0121408 20.0872942,88.4029179 20.19883,88.6170214 C20.3103657,88.831125 20.4458876,89.006301 20.4995567,89.006301 C20.5532258,89.006301 20.5973004,89.0697832 20.5973004,89.1473398 C20.5973004,89.3398837 21.6793767,90.9227536 21.8110009,90.9227536 C21.8691674,90.9227536 21.9165401,90.993423 21.9165401,91.0799628 C21.9165401,91.1662031 22.0112855,91.3413791 22.1273186,91.4692423 C22.2433517,91.5968061 22.425047,91.8360633 22.530886,92.0007587 C22.6282579,92.1522781 23.1720178,92.8715276 23.7783381,93.6525179 L23.9376753,93.8573224 C25.0870929,95.3318959 25.353036,95.6750587 25.6195591,96.0315515 L25.6697548,96.0988301 L25.6952624,96.1331102 C25.7933059,96.2648663 26.1839808,96.7787153 26.563562,97.2745974 C27.5412986,98.5529316 27.7931534,98.920052 27.7931534,99.0664811 C27.7931534,99.1371505 27.872008,99.2251872 27.9685523,99.2623184 C28.0647968,99.2991505 28.1805302,99.4449806 28.2255042,99.5860194 C28.2701785,99.7273577 28.4587698,100.032194 28.644063,100.263665 C28.8293562,100.495137 29.1552684,101.008087 29.3681458,101.403356 C29.5810231,101.798624 29.8760531,102.337627 30.0238679,102.601139 C30.1716827,102.864651 30.4364301,103.376704 30.6124287,103.739033 C30.7881274,104.101362 31.0354848,104.597244 31.1617121,104.840694 C31.2879394,105.084443 31.3910799,105.387781 31.3910799,105.514746 C31.3910799,105.642011 31.4663366,105.808203 31.5583835,105.884562 C31.6504305,105.96092 31.7628657,106.220839 31.8081396,106.462193 C31.8534135,106.703546 31.967048,107.009879 32.0605941,107.143432 C32.1541402,107.276685 32.2323951,107.521931 32.2347937,107.688423 C32.2368925,107.854915 32.3430313,108.206764 32.4704579,108.470276 C32.5978844,108.733788 32.7043231,109.13804 32.7070216,109.368613 C32.70972,109.599187 32.7852765,109.928278 32.8749248,110.100159 C32.964873,110.272041 33.0755092,110.730193 33.1207831,111.118275 C33.1663568,111.506357 33.2614021,112.00733 33.3321613,112.231614 C33.6595726,113.270115 33.8151149,116.51438 33.8088967,119.720186 L33.8066652,120.212781 C33.7838828,123.408742 33.5998583,126.451156 33.2647002,127.095803 C32.5939867,128.386115 30.6439105,128.363058 30.007977,127.057174 C29.7420303,126.510986 29.7294376,125.101494 29.9866893,124.653823 C30.0876693,124.477987 30.1396443,122.197121 30.1426143,119.867144 L30.1426143,119.443428 C30.1396443,117.115048 30.0876693,114.862158 29.9866893,114.74067 C29.9069353,114.644548 29.8085919,114.110637 29.7684151,113.554266 C29.7285381,112.997896 29.6229989,112.327138 29.53425,112.063626 C29.4455012,111.800113 29.3366639,111.321 29.2928891,110.999095 C29.2488145,110.676892 29.1423759,110.24569 29.0563255,110.040869 C28.9705748,109.835749 28.8458467,109.452458 28.7795849,109.188946 C28.6395656,108.632875 28.4299864,108.022006 28.2042165,107.512049 C28.116667,107.314415 27.9022905,106.802363 27.7271914,106.374156 C27.5523921,105.945948 27.3338181,105.510554 27.2414713,105.406646 C27.1491245,105.302439 27.0699702,105.140739 27.0654728,105.047311 C27.0612752,104.953585 26.8996683,104.607426 26.7068794,104.278035 C26.5137907,103.948645 26.3039116,103.560863 26.2403483,103.41623 C26.1770847,103.271598 25.9336251,102.88142 25.6997598,102.549035 C25.4658946,102.216651 25.2746048,101.915708 25.2746048,101.880073 C25.2746048,101.844739 25.0722215,101.555175 24.824864,101.236864 C24.5775066,100.918553 24.3085616,100.556224 24.2273084,100.431954 C24.0759608,100.200105 23.9490574,100.007076 23.8415627,99.8456005 L23.7403511,99.694374 C23.5025637,99.3412556 23.3755905,99.1702066 23.2807539,99.0676791 C23.277096,99.063726 23.2726039,99.0586811 23.267308,99.0525827 L23.2261327,99.0036607 C23.0415843,98.7802107 22.4975932,98.0845383 21.9192385,97.3308934 L21.8406098,97.2285219 C21.2137273,96.4130464 20.6442533,95.6889724 20.5550247,95.5941077 C20.4620783,95.4952908 20.2581958,95.2251908 20.101686,94.9940184 C19.945476,94.7628464 19.5727908,94.2507944 19.2732634,93.8561245 C18.7713527,93.194649 18.4442411,92.7344005 18.1387172,92.2600786 C18.0727552,92.1576684 17.9774102,92.0169286 17.9270392,91.9474571 C17.6038255,91.5015827 17.2392356,90.8955041 17.2392356,90.8035745 C17.2392356,90.7439847 17.1717744,90.6520546 17.089322,90.5993526 C16.9079265,90.4834668 16.7658084,90.2307347 15.7508933,88.2169617 L15.5921126,87.8995459 C15.2328013,87.1753117 14.9605488,86.5847954 14.9605488,86.5247939 C14.9605488,86.4565199 14.8795954,86.333448 14.7806524,86.2514 C14.6817095,86.1693515 14.6007561,86.0007638 14.6007561,85.8770923 C14.6007561,85.7531219 14.4928183,85.4503821 14.3608943,85.2045372 C14.2289704,84.9589918 14.1210326,84.6745184 14.1210326,84.5730061 C14.1210326,84.4714939 14.0418782,84.2753571 13.945034,84.1373128 C13.8481898,83.9992684 13.7327563,83.6504138 13.6883819,83.3620474 C13.6443073,83.0736811 13.5408669,82.7029673 13.4590141,82.5382719 C13.3768614,82.373577 13.2704228,82.0016653 13.2221506,81.7121015 C13.1738784,81.4222378 13.0596443,81.0063077 12.9681969,80.7877122 C12.8767496,80.5688173 12.8017929,80.2127765 12.8017929,79.9965765 C12.8017929,79.780077 12.6938551,79.2261026 12.5619311,78.7652556 C12.4300071,78.3044082 12.3220693,77.6438311 12.3220693,77.297073 C12.3220693,76.9503148 12.2372182,76.1415117 12.133478,75.500099 C11.8723285,73.8848883 11.864533,68.4502469 12.1211851,66.8473138 C12.2216272,66.2214719 12.340059,65.2782179 12.3847332,64.7511934 C12.4294074,64.2241689 12.5112603,63.7372699 12.5670282,63.6692959 C12.6224962,63.6013214 12.7211393,63.0254872 12.7862018,62.3897638 C12.8512643,61.7540408 12.964599,61.1219107 13.0377569,60.9856628 C13.1109147,60.8491153 13.2032615,60.3738949 13.2428387,59.9295173 C13.2824159,59.4851398 13.3813589,58.9868622 13.4623122,58.8221668 C13.5435654,58.6574719 13.6485049,58.1184694 13.6955778,57.6243837 C13.7429505,57.1302985 13.8358969,56.6607673 13.9018589,56.5811148 C13.9681207,56.5014622 14.0709614,56.0495985 14.1303272,55.576774 C14.189693,55.1042485 14.2889358,54.6568765 14.3504004,54.5826138 C14.411865,54.5086505 14.5006138,54.0981107 14.5473869,53.670502 C14.5941599,53.2428934 14.6865067,52.7886342 14.7527685,52.6607709 C14.8190304,52.5329077 14.9419595,51.9939051 15.0256113,51.4629878 C15.1092631,50.9320704 15.2333915,50.3358738 15.3014523,50.1382396 C15.3695131,49.9406054 15.4795497,49.4555033 15.5458115,49.0602348 C15.5710892,48.9094523 15.5970624,48.7568555 15.6234527,48.6039566 L15.7035962,48.1458662 C15.8248531,47.4619085 15.9489177,46.8024597 16.0504207,46.3053337 C16.1178818,45.9759434 16.2264193,45.3291405 16.2917816,44.867994 C16.3568441,44.4068475 16.4869691,43.6522442 16.5808151,43.1910977 C17.3001005,39.6543437 17.1780708,34.983888 16.3235633,33.3468179 C15.3242392,31.4321616 15.1470413,31.3743686 10.1672112,31.3411301 C6.62171153,31.3175167 5.41956352,31.2512231 4.53310996,30.9587684 L4.42380083,30.9210204 C4.36982171,30.9015442 4.31674574,30.8811546 4.26407791,30.8598069 L4.15913972,30.8158209 L4.10680374,30.7928449 C3.8429558,30.6754622 3.50565018,30.5431071 3.35723571,30.4987892 C3.20882124,30.4547707 3.08739122,30.3718242 3.08739122,30.3149295 C3.08739122,30.2580347 2.99294565,30.1810772 2.87751218,30.1439459 C2.42507292,29.9990142 0.808704423,28.2697148 0.808704423,27.9307422 C0.808704423,27.8516885 0.706163515,27.5878768 0.581135571,27.344128 C-0.395401657,25.4441445 -0.127056303,22.973118 1.27943314,20.9144283 C1.69709245,20.3029601 2.3180346,19.6546599 2.48563801,19.6546599 C2.53660864,19.6546599 2.65024315,19.5681202 2.73809253,19.4624158 C2.82564207,19.3567114 3.00793701,19.2222603 3.14255943,19.1632694 C3.27718185,19.1045781 3.46817179,19.0069588 3.56711476,18.9464707 C3.58862411,18.9333211 3.64243997,18.9049021 3.72230929,18.8642777 L3.83025793,18.8098659 C4.149335,18.6501909 4.7095868,18.3780836 5.3061126,18.0939486 C6.16361842,17.6855045 7.45887194,17.0680474 8.18445383,16.7218881 C8.91003566,16.3760282 9.82750694,15.9391368 10.2232788,15.7513843 C10.6190508,15.5636318 10.9608538,15.3680937 10.9827412,15.316589 C11.0049284,15.2650844 11.1188627,15.2228626 11.236395,15.2228626 C11.3539272,15.2228626 11.5874927,15.115062 11.7550961,14.9833059 C11.9229993,14.8515498 12.133478,14.7437493 12.2231263,14.7437493 C12.8008934,14.7437493 13.4392255,13.9600997 13.1205092,13.6417888 C13.0320602,13.5534523 12.889942,13.351027 12.8044913,13.1917218 C12.6305915,12.8671227 12.5751235,12.7922612 12.1454711,12.3008707 C11.9787671,12.1098243 11.8423458,11.9073989 11.8423458,11.8508037 C11.8423458,11.7942084 11.2615805,11.1417161 10.5515896,10.4008872 C9.16488878,8.95456418 8.8464723,8.46766536 8.61020847,7.43427801 C8.38144031,6.43412908 8.62969724,4.53025288 9.03206536,4.19667029 C9.12651092,4.1182155 9.20566531,3.99334661 9.20776408,3.91908406 C9.21735857,3.57172696 10.6343419,2.35238378 11.1833256,2.21883096 C11.3809117,2.17062019 11.6489572,2.05832803 11.7790822,1.96939264 C12.0939008,1.75439057 13.9525297,1.7525939 14.3641924,1.96729652 C15.0669874,2.3335187 15.1902164,2.30716747 15.8513354,1.65018344 C16.5163522,0.989306622 17.1576826,0.490130521 17.3411768,0.490130521 C17.4026414,0.490130521 17.6880769,0.380233922 17.9756112,0.246082216 Z M66.4963056,92.8853918 C67.4554224,92.6889923 68.7651362,93.5519592 68.7651362,94.3804071 C68.7651362,94.479202 68.8425133,94.6241209 68.9372852,94.7020857 C69.0320577,94.7800505 69.1469235,95.0121587 69.1925102,95.2177827 C69.2377969,95.4234071 69.3649592,95.727826 69.474727,95.8938724 C69.817226,96.412248 69.9608837,96.6622107 70.0925444,96.9675224 C70.162424,97.1297005 70.2592954,97.2903908 70.3078811,97.3246122 C70.3564668,97.3585357 70.5508092,97.654325 70.7400536,97.9816571 C70.928998,98.3089893 71.1212413,98.6035883 71.1674276,98.6363214 C71.2133138,98.6690546 71.3347781,98.856527 71.437348,99.052926 C71.5396179,99.2493255 71.776548,99.580824 71.9636929,99.789424 C72.1508372,99.9980235 72.4120602,100.318809 72.5440214,100.502115 C73.3084959,101.564755 75.5710286,103.801327 76.6168199,104.528302 C76.8051643,104.659235 77.0501923,104.846707 77.1614592,104.944907 C77.2727265,105.043106 77.4451755,105.177015 77.5450464,105.242481 C77.6449168,105.307947 77.9640224,105.520714 78.2543372,105.71503 C78.8898495,106.140562 79.828273,106.670542 80.4005041,106.927052 C80.7726944,107.093694 80.9943286,107.290986 81.5146755,107.918868 C81.5911388,108.011041 81.629073,108.885802 81.6324112,109.861703 L81.6324112,110.172449 C81.6278015,111.318351 81.5774546,112.503679 81.4873832,112.670542 C81.4286005,112.779455 81.3209327,114.870513 81.2480541,117.316874 C81.1751755,119.763237 81.0648082,121.984335 81.0024265,122.252449 C80.9403449,122.520564 80.8671663,123.689736 80.8401745,124.850575 L80.7912888,126.961272 L80.2175582,127.49899 C78.7761832,128.849682 76.522648,127.308245 77.1470638,125.399005 C77.2193423,125.177312 77.3330087,123.065424 77.4037878,120.624418 C77.4736673,118.216741 77.5789362,116.121517 77.6377189,115.96767 C77.6997133,115.805914 77.7693306,114.632098 77.8160495,113.366352 L77.8282,113.01956 C77.874349,111.628808 77.8899444,110.228197 77.8353607,110.012307 C77.787375,109.822752 77.620624,109.633197 77.4277811,109.549876 C77.2484337,109.472209 76.7778724,109.195167 76.3822893,108.934491 C75.5818255,108.406891 75.5752276,108.40213 75.0458837,107.981955 C74.8383449,107.817395 74.6212087,107.682594 74.562726,107.682594 C74.5045434,107.682594 74.3725821,107.588858 74.2700122,107.474292 C74.1671429,107.359726 73.6189046,106.874381 73.0514719,106.395583 C72.4840393,105.916786 71.6002,105.05977 71.087051,104.491105 C70.5739026,103.92244 70.071251,103.367463 69.9695811,103.257658 C69.6813658,102.946692 69.1394255,102.26108 68.8392143,101.827513 C68.3740413,101.155733 68.0050551,100.616226 67.7277444,100.202237 L67.606248,100.020054 C67.3378684,99.6156393 67.1750051,99.3555903 67.112024,99.2314709 C67.0289485,99.0678051 66.8298071,98.7196423 66.6696541,98.4577765 C66.5092015,98.1959107 66.3202571,97.8545929 66.2494781,97.6995561 C66.0989224,97.3692485 65.7258327,97.399601 64.8093031,97.8170985 C64.0211357,98.1759735 63.5970607,98.3518403 63.1567903,98.5027107 C62.1673821,98.8419459 61.9556449,98.9216959 61.4940811,99.1291056 C61.2229607,99.2508133 60.8720643,99.3522862 60.7143112,99.3546668 C60.5565577,99.3570474 60.2926352,99.4356071 60.1276842,99.5290459 C59.9627327,99.6224842 59.6928122,99.7034245 59.5278607,99.7084837 C59.3629097,99.7138398 59.0120133,99.8007316 58.7480908,99.9019071 C58.4841689,100.003083 57.9494265,100.135206 57.5595413,100.195316 C57.1699566,100.255426 56.7878694,100.356601 56.7104918,100.420282 C56.6334148,100.483666 56.178749,100.590792 55.7000903,100.658342 C55.2214311,100.725594 54.7397735,100.828257 54.6297056,100.886582 C54.5196383,100.944907 54.0514765,101.02912 53.5896128,101.074054 C53.127749,101.11869 52.533924,101.227603 52.270002,101.315982 C52.0060796,101.404362 51.2575005,101.508513 50.6060927,101.547793 C49.9549847,101.586776 49.3107748,101.678131 49.1743151,101.750441 C49.0315571,101.826323 47.6288709,101.93226 45.8596928,102.000702 C44.1729903,102.066168 42.7388134,102.168832 42.6728328,102.228942 C42.5951557,102.299764 42.5318744,106.663103 42.4928859,114.625013 L42.4329036,126.911875 L42.1542858,127.263311 C41.4419959,128.161391 40.3746108,128.319404 39.5717476,127.645397 C39.5382774,127.617294 39.5062147,127.591549 39.4755003,127.567097 L39.4304323,127.531255 C39.4230871,127.525398 39.4158242,127.519589 39.4086429,127.513811 L39.3665253,127.479379 C39.3390888,127.456493 39.3129267,127.433568 39.2879796,127.409537 L39.2514629,127.37253 C38.8180829,126.908943 38.7795314,125.899809 38.776007,117.867687 L38.7754619,113.308543 C38.7754619,113.168382 38.7754619,113.029645 38.7754619,112.892317 L38.7754619,109.515767 C38.7754619,109.402574 38.7754619,109.290654 38.7754619,109.179992 L38.7759424,108.530992 C38.7815427,100.604183 38.8307689,99.5838235 39.202471,99.112476 L39.2329004,99.0758189 C39.2432763,99.0639097 39.2538869,99.0522709 39.2647374,99.0407811 L39.2980138,99.0066388 C39.315017,98.9896709 39.332572,98.9727679 39.3506965,98.9555224 L39.3877101,98.9204551 L39.4067962,98.9023536 L39.7489953,98.5768066 L42.590657,98.5443709 C44.1534961,98.5265163 45.5939712,98.4607526 45.7919128,98.3982617 C45.9898544,98.3354735 46.9345757,98.2292393 47.8912935,98.1619872 C48.8480113,98.0947357 49.9258933,97.9596367 50.2866869,97.8617347 C50.6474805,97.7641301 51.1873214,97.6828918 51.4863332,97.6811066 C51.7853449,97.6796189 52.2460092,97.6209964 52.5099311,97.5507689 C52.7738531,97.4802439 53.3946699,97.3570474 53.889524,97.277 C54.3843781,97.1966551 54.897227,97.0752444 55.0291878,97.0071 C55.161149,96.9392526 55.584324,96.8481949 55.9691107,96.8053439 C56.3541969,96.7624934 56.8238587,96.647927 57.0131026,96.5509179 C57.2020469,96.4542056 57.5076566,96.3744556 57.6924026,96.3741582 C57.877148,96.3735633 58.1839571,96.292623 58.3741015,96.194423 C58.5642454,96.095926 58.9421337,95.9828474 59.2138536,95.9429724 C59.4855735,95.9030974 59.8274724,95.7965658 59.9735296,95.7061031 C60.1195862,95.6156403 60.3376219,95.5415439 60.4578867,95.5415439 C60.578451,95.5415439 60.8885597,95.4344173 61.1473832,95.3034842 C61.4062066,95.1725515 61.6950219,95.0654245 61.7894939,95.0654245 C61.8836658,95.0654245 62.2096699,94.951751 62.5137801,94.8124857 C63.8480867,94.2021602 64.059524,94.1131852 64.1749903,94.1131852 C64.2421704,94.1131852 64.3642342,94.0328398 64.4464102,93.9346403 C64.5285857,93.8364408 64.6887388,93.7560954 64.8024051,93.7560954 L64.8483531,93.7512367 C64.9626423,93.7289418 65.1217357,93.632602 65.2261801,93.5180357 L65.2741204,93.4702143 C65.3927107,93.3619949 65.5536087,93.279976 65.6559531,93.279976 C65.7732189,93.279976 65.9450679,93.2043918 66.0380408,93.1121439 C66.1310133,93.0198954 66.3370526,92.9178276 66.4963056,92.8853918 Z M19.1590496,19.5114234 C19.5642985,19.3372349 23.3461249,19.3509531 23.7090921,19.5280128 C24.5136347,19.9207345 23.3732209,22.1679577 22.2548413,22.3931904 C21.1555182,22.6145948 19.4017226,22.1405214 19.3698624,21.6131705 C19.3656938,21.5429846 19.2573098,21.3419979 19.1292738,21.1665333 C18.7800035,20.6879934 18.7981668,19.6671084 19.1590496,19.5114234 Z M14.0246671,6.01569107 C13.3741035,5.54121934 12.9126229,5.48723582 12.5518881,5.84323551 C12.0286601,6.36031046 12.1364964,6.69238235 13.1690667,7.74608311 C14.3363585,8.93693128 14.7219105,9.36383913 15.1535514,9.94248454 C15.344998,10.1992712 15.5284675,10.4356317 15.561557,10.46773 C15.7249365,10.6273463 16.1291014,11.2582244 16.1985303,11.4621947 C16.4650191,12.2439351 16.9049324,12.4327316 17.5944943,12.0615582 C18.946733,11.3338014 19.0462969,11.2290441 18.7233787,10.87071 C18.6421321,10.7808346 18.4692985,10.5675266 18.3393039,10.3971137 C17.4535684,9.23602939 14.9402422,6.68362827 14.0246671,6.01569107 Z" transform="translate(47.449, 64.0306) scale(-1, 1) translate(-47.449, -64.0306)"></path>
                    </g>
                </g>
            </g>
            <path d="M64.6809386,15.120326 C64.6043621,15.1973511 64.5808386,17.3032069 64.5808386,24.0879592 C64.5808386,31.7547242 64.5638216,33.002732 64.4557137,33.3113358 C64.3866447,33.5071708 64.3305888,33.749825 64.3305888,33.850008 C64.3305888,33.9527081 64.1824409,34.1777422 63.9927515,34.364012 L63.6544137,34.6957737 L62.9447051,34.6957737 L62.234496,34.6957737 L61.8365988,34.2759114 C61.5097725,33.9310605 61.429192,33.783555 61.383146,33.4452487 C61.3526155,33.2192078 61.2805436,32.9775604 61.2229861,32.9080868 C61.1559192,32.8265309 61.1103737,32.422275 61.0948582,31.7668066 C61.0818452,31.209004 61.0528162,30.6668078 61.0307942,30.562094 L60.9902538,30.3723001 L58.009778,30.3944511 L55.0293023,30.4166021 L55.0057788,31.675182 C54.9872603,32.6573777 55.0107838,33.0092766 55.1123852,33.2781093 C55.1839567,33.4673997 55.2770496,33.9260262 55.3190916,34.297559 C55.3631356,34.6841947 55.468741,35.1100981 55.566839,35.2943542 C55.6614334,35.4710588 55.7385104,35.6976032 55.7385104,35.7977862 C55.7385104,35.9966418 56.1609321,36.8524761 56.356127,37.0488146 C56.423194,37.1162744 56.5037744,37.2532079 56.5353059,37.3528874 C56.5983689,37.5517431 57.4422114,38.4292249 57.5708398,38.4292249 C57.6148838,38.4292249 57.6879567,38.4981951 57.7325012,38.5822682 C57.7775462,38.6668448 57.9627311,38.780117 58.1439119,38.8349911 C58.3255933,38.8893617 58.4952627,38.9905516 58.5217892,39.0595217 C58.5478152,39.1284919 58.6399071,39.1843729 58.7264936,39.1843729 C58.81308,39.1843729 59.0488154,39.2729769 59.2505168,39.3807113 C59.4522182,39.4884457 59.8391044,39.6027248 60.1098748,39.634441 C60.3811456,39.6661572 60.7375014,39.7577818 60.9026663,39.8373241 C61.3496125,40.052793 65.5157721,40.0548067 65.8320879,39.8398412 C65.9467023,39.7618093 66.2470021,39.6721984 66.499254,39.6404822 C66.7515059,39.6092694 67.0708247,39.5166379 67.2084621,39.435082 C67.3460995,39.353526 67.5828359,39.2598876 67.7354883,39.227668 C67.8876402,39.1954484 68.0317841,39.1174164 68.0553076,39.0549908 C68.0793316,38.9920619 68.2314835,38.8969132 68.3931449,38.843046 C68.5548063,38.7896822 68.7540052,38.6839615 68.8360871,38.6084467 C68.9176686,38.5329319 69.2134639,38.2651061 69.4937437,38.0128867 C69.7735231,37.7601639 70.0027519,37.5205303 70.0027519,37.4792489 C70.0027519,37.4384709 70.0873364,37.2959996 70.1904393,37.1630936 C70.666915,36.5504169 70.7324805,36.4376482 70.7875355,36.1386096 C70.8195674,35.9629119 70.8971449,35.7997999 70.9592069,35.7761386 C71.0227703,35.7514704 71.1138613,35.4927064 71.1669142,35.1835992 C71.2194667,34.8820435 71.3260731,34.5371926 71.4041511,34.4173758 C71.5848315,34.1399848 71.6764229,15.3544219 71.498245,15.1379461 C71.3656126,14.9773513 64.839597,14.9607381 64.6809386,15.120326 M115.384061,15.1827516 C115.325002,15.2935066 115.303981,19.2026556 115.318496,27.4539052 L115.339517,39.5619468 L118.509682,39.5856081 C120.252922,39.5981939 121.763931,39.5881253 121.867034,39.5629537 L122.054721,39.5171414 L122.055222,37.3161369 C122.055222,35.3019057 122.068735,35.0939883 122.21338,34.8634165 C122.456122,34.4762773 123.098764,33.8142643 123.229894,33.816278 C123.387552,33.8182918 123.867531,34.4088174 123.9366,34.6846982 C123.96663,34.8060252 124.024187,34.9052013 124.064227,34.9052013 C124.104267,34.9052013 124.221885,35.0597549 124.325989,35.2480385 C124.430093,35.4368255 124.573236,35.6940792 124.643306,35.8199372 C124.713876,35.9462986 124.854516,36.1557263 124.956118,36.2856117 C125.057719,36.4160006 125.141303,36.5564581 125.141303,36.598243 C125.141303,36.6762749 125.405066,37.0810342 125.651312,37.3805762 C125.727388,37.4727042 125.816977,37.6428642 125.851011,37.7581502 C125.885045,37.8734361 125.965626,38.0244657 126.03019,38.0939393 C126.206867,38.2837331 126.639298,38.9638697 126.6413,39.053984 C126.641801,39.0977826 126.743402,39.2392469 126.867026,39.3686289 L127.090749,39.6042351 L130.871023,39.6042351 L134.650797,39.6042351 L134.650797,39.4003452 C134.650797,39.2880798 134.584731,39.1310091 134.504651,39.0509634 C134.338986,38.8858377 134.048696,38.4251975 133.875523,38.051651 C133.811459,37.9132072 133.696845,37.7480815 133.620769,37.6851525 C133.544693,37.6217201 133.48213,37.5270749 133.480629,37.4752214 C133.479628,37.4233679 133.29194,37.1016749 133.063713,36.7608515 C132.835485,36.4200281 132.648798,36.0897767 132.648798,36.0268477 C132.648798,35.9639187 132.611761,35.9120652 132.566716,35.9120652 C132.522172,35.9120652 132.40005,35.7580151 132.295946,35.5692281 C132.191842,35.3809445 132.048699,35.1236908 131.978629,34.9973294 C131.908059,34.8714714 131.767418,34.6620437 131.665817,34.5316548 C131.564216,34.4017694 131.480632,34.249733 131.480632,34.193852 C131.480632,34.1379711 131.405557,34.0241954 131.313966,33.9406257 C131.222374,33.857056 131.147299,33.7528456 131.147299,33.709047 C131.147299,33.664745 131.053205,33.516736 130.938591,33.3798026 C130.823976,33.2428691 130.729883,33.0565992 130.729883,32.9664849 C130.729883,32.8763706 130.672325,32.7802151 130.601755,32.7530298 C130.531184,32.7258445 130.417571,32.585387 130.348502,32.440902 C130.222876,32.1771036 129.990644,31.7829164 129.694349,31.331338 C129.042698,30.3380668 128.821477,29.9725752 128.772929,29.8079529 C128.741898,29.7042459 128.682338,29.6191659 128.640797,29.6191659 C128.598755,29.6191659 128.479636,29.463102 128.375031,29.2723013 C128.270927,29.0815006 128.1428,28.8509288 128.090247,28.7593042 C127.893551,28.4194876 128.051709,28.1622339 129.165821,27.003837 C129.384039,26.7772926 129.562217,26.5643409 129.562217,26.530611 C129.562217,26.4963776 129.730885,26.3085975 129.937591,26.1132659 C130.143797,25.9179343 130.312966,25.7226027 130.312966,25.679811 C130.312966,25.6365158 130.378532,25.5519393 130.459112,25.4915274 C130.539192,25.431619 130.82748,25.1179809 131.099752,24.7947776 C131.372024,24.4715743 131.663815,24.1317578 131.7489,24.0396297 C131.966617,23.8020098 132.626776,23.0664958 133.046195,22.5942766 C133.241891,22.3742769 133.532681,22.0475495 133.69234,21.8683278 C134.339486,21.1448961 134.278926,21.1308 130.668321,21.1610059 L127.590748,21.1866809 L127.387545,21.411715 C127.275934,21.5355592 127.053212,21.7907992 126.893052,21.9790828 C126.732391,22.1668629 126.441601,22.4930868 126.246406,22.7035213 C126.051211,22.9144593 125.892052,23.1107978 125.892052,23.1405003 C125.892052,23.1702028 125.816977,23.2713926 125.724885,23.3655344 C125.633294,23.4591727 125.32899,23.81963 125.04871,24.1654877 C124.768431,24.5118489 124.47714,24.8602238 124.402065,24.9407729 C124.008171,25.3611386 123.875539,25.5172025 123.423087,26.0951423 C123.152317,26.4410001 122.86503,26.7974299 122.78445,26.8870408 C122.70437,26.9766517 122.638804,27.0803587 122.638804,27.1181161 C122.638804,27.2233333 122.266933,27.1981617 122.154821,27.085393 C122.078745,27.0088713 122.054721,25.5650285 122.054721,21.0995872 L122.054721,15.2144678 L121.842009,15.1173054 C121.42259,14.9249944 115.489166,14.9849028 115.384061,15.1827516 M144.473104,15.1364358 C144.286417,15.2789071 144.241373,39.316272 144.427058,39.5035487 C144.503634,39.5805738 146.609237,39.6042351 153.395512,39.6042351 L162.263866,39.6042351 L162.241844,36.8982884 L162.219822,34.1923417 L157.0897,34.1500534 C152.733851,34.1148132 151.922041,34.0891382 151.709329,33.9814037 L151.459079,33.8545389 L151.416536,24.4579817 C151.393013,19.2902528 151.364985,15.0523627 151.353974,15.0407838 C151.265385,14.9476488 144.59923,15.0402803 144.473104,15.1364358 M164.486085,15.0755206 C164.455555,15.1067333 164.43053,20.6379401 164.43053,27.3678183 L164.43053,39.6042351 L167.635229,39.6042351 C169.397489,39.6042351 170.898988,39.5810772 170.97156,39.5533885 C171.09118,39.5070727 171.103692,38.354717 171.103692,27.3582531 L171.103692,15.2144678 L170.89098,15.1173054 C170.659749,15.0110813 164.589188,14.9718136 164.486085,15.0755206 M105.601794,20.9817841 C105.058752,21.0301136 104.817011,21.0915323 104.652346,21.2219211 C104.530725,21.3180766 104.347542,21.396612 104.24544,21.396612 C104.142838,21.396612 103.969665,21.4640719 103.860055,21.5466347 C103.750946,21.6291976 103.564761,21.7389457 103.446142,21.7902958 C103.328024,21.8411424 102.910107,22.1890139 102.517215,22.5630638 C102.124823,22.9366103 101.782481,23.242697 101.756455,23.242697 C101.652351,23.242697 101.535234,22.5791737 101.533232,21.9841171 C101.532231,21.6377559 101.5007,21.3054908 101.463162,21.2455824 C101.384584,21.1217382 95.4066154,21.1302965 95.2154245,21.2546442 C95.1328421,21.3085114 95.1113206,23.2432004 95.1113206,30.4644282 L95.1113206,39.6057454 L98.4686726,39.5840978 L101.826025,39.5619468 L101.868067,33.2222284 L101.909608,26.8825099 L102.135834,26.6116635 C102.690888,25.9486437 103.045242,25.8454401 104.528223,25.9144103 C104.894588,25.931527 105.621814,26.6257596 105.621814,26.9590316 C105.621814,27.0778415 105.668361,27.281228 105.725918,27.4111134 C105.804997,27.5898318 105.840533,29.0976105 105.872064,33.6048366 L105.913606,39.5619468 L109.166854,39.5619468 L112.420102,39.5619468 L112.420102,32.052756 C112.420102,24.995647 112.411093,24.5304759 112.271954,24.3331305 C112.190873,24.2178446 112.084267,23.9761973 112.036219,23.7964721 C111.891074,23.2562896 110.891576,21.9931789 110.429615,21.7656276 C109.906092,21.5078705 109.478165,21.2682369 109.354041,21.1630196 C109.098285,20.9470473 107.082272,20.8493815 105.601794,20.9817841 M181.238811,20.9762464 C180.550624,21.0145072 180.153227,21.0769327 179.966541,21.1745985 C179.817392,21.2531339 179.505581,21.3533169 179.273849,21.3976189 C179.041617,21.4419209 178.798375,21.5320352 178.732309,21.5984882 C178.666743,21.6644378 178.490567,21.7454904 178.340918,21.7782134 C178.191268,21.8109365 177.963041,21.9272293 177.833411,22.0369775 C177.703281,22.1462222 177.553131,22.2358331 177.498577,22.2358331 C177.444523,22.2358331 177.353432,22.3113479 177.295874,22.4034759 C177.238817,22.495604 177.148227,22.5711187 177.094674,22.5711187 C176.978057,22.5711187 176.108689,23.4516212 176.108689,23.5699277 C176.108689,23.6152366 176.03912,23.7018269 175.954535,23.7622387 C175.869951,23.8226506 175.755336,24.0099272 175.700281,24.1790804 C175.645226,24.3482335 175.550131,24.5053043 175.489571,24.5289656 C175.42851,24.5526269 175.353435,24.7096976 175.321904,24.8778439 C175.290372,25.0464936 175.191774,25.3047542 175.103185,25.4512529 C175.014096,25.5977516 174.940523,25.8308406 174.939522,25.9692844 C174.93802,26.1077281 174.862945,26.5593066 174.772355,26.9721208 C174.521104,28.1159182 174.540123,28.3404488 174.893976,28.4074053 C175.051133,28.4371077 175.219802,28.4366043 175.26785,28.4069018 C175.315898,28.3766959 175.912994,28.3213184 176.594174,28.2830576 C177.275354,28.2447967 177.91249,28.1707922 178.009587,28.1184353 C178.106684,28.0660784 178.409987,28.0001288 178.682759,27.9709298 C179.361937,27.8999459 179.380456,27.8798086 179.439014,27.158894 C179.470546,26.774272 179.541116,26.4686888 179.621196,26.3750505 C179.692768,26.2904739 179.796371,26.1072247 179.850925,25.9672706 C180.174248,25.1431525 182.023094,24.8189424 182.74031,25.4608181 C183.376445,26.0296962 183.557126,26.685668 183.268838,27.3804041 C183.11068,27.7625089 182.982052,27.9507925 182.656727,28.2785267 C182.410981,28.5262152 181.906478,28.864018 181.782354,28.864018 C181.704276,28.864018 181.576648,28.9350019 181.499071,29.0210888 C181.419992,29.108686 181.186759,29.2013174 180.970543,29.2310199 C180.757831,29.2607224 180.520594,29.3422784 180.443017,29.4127588 C180.36594,29.4827359 180.093668,29.5748639 179.838413,29.6166488 C179.583158,29.6584336 179.26484,29.7495548 179.131207,29.8190284 C178.997073,29.888502 178.684761,29.9710649 178.436513,30.0017742 C178.188265,30.032987 177.900478,30.1120258 177.795874,30.177472 C177.69177,30.2434216 177.39147,30.3365565 177.128708,30.3848859 C176.865945,30.4332154 176.594174,30.5243366 176.524604,30.5867621 C176.455035,30.6491877 176.241322,30.735778 176.050131,30.7790731 C175.858439,30.8223683 175.600682,30.9376542 175.477059,31.0358234 C175.352935,31.1334892 175.202284,31.2135349 175.141223,31.2135349 C175.080162,31.2135349 174.990072,31.2890497 174.941023,31.3811777 C174.891974,31.4738092 174.803386,31.549324 174.744327,31.549324 C174.525609,31.549324 174.214298,31.9852961 173.689774,33.0258899 L173.397482,33.6048366 L173.397482,35.0310593 C173.397482,36.3445133 173.411997,36.4809433 173.577162,36.7512863 C173.676261,36.9128879 173.781366,37.1646039 173.811896,37.3105992 C173.841926,37.4565944 173.920504,37.5970519 173.98657,37.622727 C174.052636,37.6478986 174.10669,37.7219031 174.10669,37.7868458 C174.10669,37.9373719 174.84793,38.7091331 175.160743,38.8848308 C175.292374,38.9588353 175.456038,39.0529771 175.524606,39.0942585 C176.015096,39.3902765 176.661241,39.6117866 177.263342,39.6908254 C177.646224,39.7411686 178.05213,39.8176902 178.165743,39.8609854 C178.441018,39.9662027 179.128704,39.9611683 179.415491,39.8514202 C179.542618,39.8025873 179.945019,39.7250588 180.309884,39.6792465 C180.740313,39.6248758 181.045618,39.5382855 181.179752,39.4320614 C181.293366,39.3419471 181.452524,39.268446 181.534106,39.268446 C181.704776,39.268446 182.804875,38.3839161 182.942512,38.1357241 C183.456025,37.2114231 184.283351,36.8368697 184.283351,37.5285852 C184.283351,37.8417199 185.68475,39.268446 185.992057,39.268446 C186.047612,39.268446 186.174239,39.3389265 186.273338,39.4255168 C186.383448,39.5216723 186.654218,39.605242 186.974037,39.6414891 C187.260824,39.6742121 187.616178,39.7582853 187.764326,39.8287657 C188.22929,40.0502758 190.995052,39.7305965 191.358415,39.4134344 C191.435992,39.3459745 191.593649,39.268446 191.708764,39.2412607 C192.108664,39.146112 193.459512,37.692704 193.459512,37.3574183 C193.459512,37.267304 193.532085,37.1001646 193.621674,36.9858856 C193.711264,36.8716065 193.80786,36.5750851 193.83739,36.324376 C193.866919,36.0746737 193.943996,35.5732555 194.008561,35.2107845 C194.350902,33.2982466 194.194746,32.9755467 192.928983,32.9755467 C192.009064,32.9755467 192.041096,32.9418168 192.041096,33.8998478 C192.041096,35.4111504 190.975532,36.1622709 190.303862,35.1241942 L190.081139,34.7793434 L190.028086,29.7450239 C189.976034,24.7726266 189.957516,24.4182105 189.736295,24.15995 C189.674734,24.0879592 189.60066,23.9102477 189.572131,23.7657627 C189.543102,23.6212778 189.449008,23.438532 189.362422,23.3594932 C189.275835,23.2809578 189.205265,23.1752371 189.205265,23.1243905 C189.205265,23.0740473 188.970531,22.8122626 188.683744,22.5429266 C187.960022,21.86279 187.938,21.8451699 187.703766,21.7731791 C187.589151,21.7379389 187.405468,21.6387628 187.296359,21.5526759 C187.18675,21.4670925 186.999062,21.3956052 186.878942,21.3945983 C186.758822,21.3935914 186.492056,21.3155595 186.28535,21.2209143 C185.686251,20.945537 183.587656,20.8438438 181.238811,20.9762464 M206.41745,20.9772532 C205.910944,21.0215552 205.678212,21.0829739 205.509043,21.2168868 C205.384418,21.3155595 205.221255,21.3971155 205.147181,21.3976189 C205.073108,21.3986258 204.918954,21.4529964 204.803839,21.5184426 C204.689224,21.5843921 204.479515,21.69263 204.337873,21.759083 C204.196232,21.825536 203.757794,22.2026066 203.3629,22.5967938 C202.500039,23.4591727 202.449989,23.4430629 202.406445,22.2912106 C202.390429,21.8683278 202.359398,21.43739 202.337877,21.333683 L202.298337,21.1448961 L199.181726,21.1448961 L196.065614,21.1448961 L195.97102,21.3754679 C195.902451,21.5436142 195.882431,24.0481881 195.898447,30.584245 L195.919969,39.5619468 L199.215259,39.5619468 L202.510049,39.5619468 L202.553592,33.3113358 C202.593632,27.58077 202.609648,27.0234708 202.747285,26.6202219 C203.188726,25.3269052 205.019054,25.0555554 205.858892,26.1595816 L206.09713,26.4727163 L206.120653,33.0384757 L206.144677,39.6042351 L209.517545,39.6042351 L212.890412,39.6042351 L212.913936,33.1074459 C212.939962,25.7779802 212.855878,26.6559655 213.604625,25.919948 C214.422942,25.1149604 215.725243,25.3601317 216.314831,26.4309315 L216.523039,26.8085054 L216.565081,33.1854778 L216.607624,39.5619468 L219.860872,39.5619468 L223.11412,39.5619468 L223.11412,31.9686828 C223.11412,24.9745028 223.102608,24.3552816 222.971978,24.1237029 C222.8939,23.9852591 222.786293,23.7773417 222.73324,23.6620558 C222.510517,23.1812783 222.47348,23.10526 222.337845,22.858075 C222.260267,22.7161071 221.989998,22.4054896 221.737746,22.1678698 C221.484993,21.9297465 221.216225,21.6750099 221.139649,21.600502 C221.063072,21.5264975 220.838348,21.4293351 220.64065,21.3845297 C220.442452,21.3397242 220.214725,21.2430653 220.134145,21.1700677 C219.746758,20.8176653 216.134151,20.8624707 215.675193,21.2254452 C215.556074,21.3195869 215.374893,21.396612 215.272791,21.396612 C215.170689,21.396612 214.997016,21.4670925 214.887907,21.5526759 C214.778297,21.6387628 214.602622,21.7364286 214.497517,21.7696551 C214.391912,21.8028816 214.223243,21.9005474 214.122142,21.9871377 C213.790311,22.2715767 213.107129,22.9486927 212.954476,23.1445277 C212.718241,23.4480972 212.309332,23.3690584 212.130654,22.9859467 C212.054077,22.8213244 211.931955,22.6375718 211.859383,22.5771599 C211.786811,22.5162447 211.727752,22.4150548 211.727752,22.351119 C211.727752,22.2876866 211.697722,22.2358331 211.661686,22.2358331 C211.625149,22.2358331 211.409434,22.0651696 211.181706,21.8567488 C210.946472,21.64128 210.62465,21.4394037 210.43446,21.3875503 C210.251277,21.3377105 210.034061,21.2370241 209.95298,21.1640265 C209.706233,20.9430198 207.895926,20.8473678 206.41745,20.9772532 M233.20019,20.9787635 C232.506497,21.0205484 232.12862,21.0809602 231.990482,21.1715779 C231.879872,21.2445756 231.620112,21.3286487 231.413906,21.3588546 C231.2072,21.3885571 230.943437,21.4801817 230.82682,21.5622411 C230.710204,21.6443005 230.484979,21.7394492 230.326321,21.7746894 C230.072067,21.8305704 229.832327,21.9800896 229.418414,22.3420572 C229.353349,22.398945 229.198194,22.5021486 229.073069,22.5711187 C228.948445,22.6405924 228.618616,22.9804089 228.340338,23.3262667 C228.06206,23.6726278 227.780779,24.0174787 227.715214,24.0929935 C227.649648,24.1685083 227.552051,24.3633365 227.498497,24.5264484 C227.444944,24.6895604 227.35085,24.8652581 227.289789,24.9166082 C227.228227,24.9679582 227.151651,25.187958 227.119118,25.405944 C227.087086,25.6234266 226.992492,25.9526711 226.90991,26.1374306 C226.748749,26.4963776 226.654655,27.9865362 226.771772,28.3328973 C226.825826,28.4934921 226.864865,28.5055745 227.1006,28.4366043 C227.247747,28.3938126 227.912411,28.3233321 228.577575,28.280037 C229.242739,28.2367418 229.971466,28.1431035 230.196691,28.0716162 C230.421916,27.9996254 230.730224,27.9412273 230.881875,27.9412273 C231.18718,27.9412273 231.330323,27.7670398 231.330323,27.3970174 C231.330323,27.2766971 231.381874,27.0758278 231.444437,26.9509766 C231.506999,26.826629 231.582575,26.5925331 231.611604,26.4309315 C231.713706,25.8670877 232.498489,25.2221914 233.177167,25.143656 C235.412899,24.884892 236.202688,27.2983447 234.298787,28.5695103 C234.056044,28.7316154 233.829819,28.864018 233.795785,28.864018 C233.761751,28.864018 233.644133,28.9355054 233.534524,29.0220957 C233.424414,29.1091894 233.155645,29.2068552 232.937428,29.2395783 C232.718709,29.2717979 232.47947,29.3528504 232.405396,29.4193035 C232.331823,29.4862599 232.061553,29.5748639 231.805798,29.6166488 C231.550042,29.6584336 231.253246,29.7505617 231.146139,29.8210422 C231.039032,29.8915226 230.727221,29.973582 230.452947,30.0037879 C230.178673,30.0339939 229.867362,30.1130327 229.761256,30.1799891 C229.655651,30.2464421 229.359355,30.3350462 229.1036,30.3773345 C228.847344,30.4191193 228.571068,30.5147714 228.488986,30.5892793 C228.406404,30.6642907 228.191189,30.7589359 228.010008,30.7997138 C227.685184,30.8732149 226.992993,31.271933 226.992993,31.3862121 C226.992993,31.4184317 226.881381,31.4914293 226.745746,31.5478137 C226.514515,31.6439692 226.318319,31.88612 225.974976,32.4977898 C225.896898,32.6372404 225.793795,32.7751808 225.745747,32.8048833 C225.592094,32.9005353 225.22773,35.111105 225.323826,35.3653381 C225.370373,35.4881755 225.447449,35.8592049 225.495497,36.1909665 C225.640642,37.1922927 226.421422,38.4674858 227.108608,38.8234122 C227.25125,38.8974166 227.417416,39.0278055 227.476976,39.1128855 C227.537036,39.1984689 227.682681,39.268446 227.800799,39.268446 C227.919418,39.268446 228.133131,39.3404368 228.275773,39.4285373 C228.735232,39.7114661 231.083076,40.0336625 231.408401,39.8584682 C231.505498,39.8066147 231.911403,39.7265691 232.310301,39.6807567 C232.807798,39.6238689 233.089579,39.5498644 233.205195,39.4441437 C233.298288,39.3595672 233.478468,39.2654254 233.605595,39.2352195 C233.733222,39.2050136 233.905894,39.1189267 233.989978,39.0444188 C234.398887,38.679934 235.168155,37.9061592 235.170157,37.8563194 C235.171658,37.82561 235.314801,37.6348093 235.488475,37.4324297 L235.80429,37.0649244 L236.102588,37.3287227 C236.266752,37.4737111 236.424409,37.6846491 236.452937,37.7984247 C236.480965,37.9116969 236.719704,38.2147629 236.982967,38.4725201 C237.656139,39.1310091 237.68717,39.1561807 237.920403,39.2256543 C238.035017,39.2598876 238.204186,39.3550363 238.295777,39.4370957 C238.397879,39.5287203 238.672654,39.6097728 239.004985,39.6460199 C239.302783,39.6782396 239.669649,39.7628162 239.819799,39.8327932 C240.284263,40.0502758 242.968443,39.7341205 243.312786,39.4219927 C243.397871,39.3444642 243.576049,39.2543499 243.709182,39.2211234 C243.971945,39.1546704 244.064036,39.0862036 244.587059,38.565655 C245.087058,38.0682642 245.138609,38.0028181 245.300771,37.6534363 C245.381352,37.4802557 245.476947,37.3387914 245.513484,37.3387914 C245.55002,37.3387914 245.606076,37.1781966 245.638609,36.9818581 C245.670641,36.7860231 245.768238,36.4648335 245.856326,36.2689985 C245.996966,35.9548569 246.012982,35.7414018 245.992962,34.4652018 L245.969939,33.0173316 L245.147118,32.9931668 C243.974447,32.9589335 243.959432,32.9725261 243.906379,34.123875 C243.847821,35.3940338 243.671645,35.6447429 242.922397,35.5244226 C242.090066,35.3905097 242.099075,35.4534387 242.095071,29.8879986 C242.092068,26.0875909 242.071047,25.2931753 241.970947,25.0978437 C241.904881,24.9689651 241.807283,24.6150524 241.754731,24.3109795 C241.702178,24.0069066 241.609586,23.7390809 241.549526,23.715923 C241.488965,23.6922617 241.415893,23.5648934 241.386864,23.4324908 C241.302279,23.0453516 240.134613,21.9171607 239.672152,21.7761997 C239.557537,21.7409595 239.407387,21.6629275 239.338318,21.6025157 C239.26975,21.5426073 239.025506,21.4479621 238.796277,21.3925846 C238.567048,21.3372071 238.291273,21.2365207 238.183665,21.1690608 C237.832315,20.949061 235.306793,20.8529055 233.20019,20.9787635 M75.2559968,21.3165663 C75.0537949,21.6966575 75.1894304,36.3193417 75.3986392,36.7095014 C75.4977382,36.8937575 75.6213616,37.1394323 75.6729131,37.2547182 C75.9301699,37.8281272 76.1358753,38.1573717 76.3736127,38.3773714 C76.5167556,38.5102775 76.7890274,38.765014 76.9782163,38.9437324 C77.1669047,39.1224507 77.3706081,39.268446 77.4301675,39.268446 C77.4902275,39.268446 77.6058429,39.3293613 77.6874244,39.4038692 C78.0903266,39.7703676 80.3786113,40.0427243 81.2299613,39.8252417 C81.5007316,39.7562715 81.9106409,39.6747156 82.1398697,39.6445096 C82.3690986,39.6138003 82.6523814,39.5216723 82.7689979,39.4391094 C82.8851138,39.35705 83.1053337,39.2619014 83.2574856,39.2281714 C83.5537814,39.1627253 84.0352621,38.8757691 84.311538,38.5993849 C84.4051314,38.5057466 84.5112373,38.4292249 84.5477738,38.4292249 C84.6273533,38.4292249 85.1889139,37.840713 85.3185434,37.6217201 C85.5192437,37.2819035 85.6849092,37.6277613 85.6849092,38.3874401 C85.6849092,38.7680346 85.7084326,39.1979655 85.7374616,39.3429539 L85.7895136,39.6062488 L88.9696887,39.5840978 L92.1498638,39.5619468 L92.1733873,30.6260298 C92.1864003,25.7115272 92.1753893,21.5677789 92.1488628,21.4177562 L92.1008149,21.1448961 L88.9907097,21.1448961 L85.881105,21.1448961 L85.6994236,21.3392208 L85.5182427,21.5330421 L85.5137383,27.1916171 C85.5092338,33.4266217 85.4852098,33.8016785 85.057783,34.3403507 C84.5843103,34.9369176 83.5808084,35.1413109 82.8756043,34.7848811 C81.748479,34.2154996 81.767498,34.3433713 81.7629935,27.2701525 C81.7599905,22.5555124 81.7379685,21.4102047 81.648379,21.2918982 C81.4621931,21.0447131 75.3881287,21.0683744 75.2559968,21.3165663 M235.249236,31.0856632 C235.416903,31.2885463 235.334821,33.9174679 235.155142,34.1203509 C235.079566,34.2059344 234.961448,34.4128449 234.892379,34.5804877 C234.641129,35.1931644 234.09208,35.4927064 233.22071,35.4927064 L232.464956,35.4927064 L232.064556,35.0637824 L231.664156,34.634355 L231.664156,33.9441498 C231.664156,33.3596653 231.689682,33.2297798 231.830823,33.1014047 C231.922915,33.017835 231.99799,32.9121143 231.99799,32.866302 C231.99799,32.7751808 232.53953,32.2203988 232.628119,32.2203988 C232.658149,32.2203988 232.794285,32.126257 232.930421,32.0104677 C233.067057,31.8951818 233.245735,31.80104 233.327817,31.80104 C233.409899,31.80104 233.569058,31.7275389 233.682171,31.6384315 C233.795284,31.5488206 233.997486,31.4486376 234.13162,31.4159145 C234.265754,31.382688 234.481469,31.2674021 234.611099,31.1586608 C234.881368,30.9326199 235.102589,30.9074483 235.249236,31.0856632 M183.415985,31.2593472 C183.519088,31.6726648 183.409478,33.5056605 183.267837,33.7306946 C183.195264,33.8459805 183.114184,34.060946 183.087157,34.2084515 C183.055125,34.3851561 182.867437,34.6499613 182.536106,34.9847436 L182.034606,35.4927064 L181.272345,35.4927064 C180.241315,35.4927064 179.629705,34.9258421 179.61469,33.9562321 C179.60518,33.3571481 180.287862,32.2848381 180.753326,32.167035 C180.852926,32.1418634 180.953526,32.0718864 180.976549,32.0114745 C180.999572,31.9510627 181.161734,31.8554106 181.33741,31.7985228 C181.512584,31.7421384 181.712284,31.6469898 181.780852,31.5870814 C181.849921,31.527173 182.01859,31.4511548 182.156227,31.4179283 C182.293864,31.3847018 182.474044,31.2875394 182.555626,31.201956 C182.796867,30.9497366 183.347917,30.9864871 183.415985,31.2593472" id="path0" fill="#000000"></path>
        </g>
    </g>
</svg>