<?xml version="1.0" encoding="UTF-8"?>
<svg width="299px" height="39px" viewBox="0 0 299 39" version="1.1" xmlns="http://www.w3.org/2000/svg" xmlns:xlink="http://www.w3.org/1999/xlink">
    <title>logo-landcamp</title>
    <g id="Page-1" stroke="none" stroke-width="1" fill="none" fill-rule="evenodd">
        <g id="logo-landcamp" fill="#111828" fill-rule="nonzero">
            <path d="M0,38 L0,0 L3.95438596,0 L3.95438596,38 L0,38 Z M2.60935673,38 L2.60935673,34.2994186 L23,34.2994186 L23,38 L2.60935673,38 Z" id="Shape"></path>
            <path d="M27,38 L42.5373377,0 L45.5730519,0 L61,38 L56.612013,38 L43.2272727,4.44622093 L44.8003247,4.44622093 L31.3051948,38 L27,38 Z M34.0925325,28.1133721 L34.0925325,24.5508721 L53.9626623,24.5508721 L53.9626623,28.1133721 L34.0925325,28.1133721 Z" id="Shape"></path>
            <path d="M68,38 L68,0 L70.8560606,0 L72.0369318,4.80523256 L72.0369318,38 L68,38 Z M94.1439394,38 L70.2793561,5.4127907 L70.8560606,0 L94.7206439,32.5872093 L94.1439394,38 Z M94.1439394,38 L92.9630682,33.443314 L92.9630682,0 L97,0 L97,38 L94.1439394,38 Z" id="Shape"></path>
            <path d="M110.408027,38 L110.408027,34.2718023 L121.244147,34.2718023 C124.133779,34.2718023 126.684504,33.6182171 128.896321,32.3110465 C131.108138,31.003876 132.833891,29.1996124 134.073579,26.8982558 C135.313266,24.5968992 135.93311,21.9457364 135.93311,18.9447674 C135.93311,15.9806202 135.308807,13.3524709 134.060201,11.0603198 C132.811594,8.7681686 131.081382,6.97311047 128.869565,5.67514535 C126.657748,4.37718023 124.115942,3.72819767 121.244147,3.72819767 L110.51505,3.72819767 L110.51505,0 L121.324415,0 C124.017837,0 126.497213,0.474079457 128.762542,1.42223837 C131.027871,2.37039729 133.003344,3.69597868 134.688963,5.39898256 C136.374582,7.10198643 137.681159,9.10876938 138.608696,11.4193314 C139.536232,13.7298934 140,16.2567829 140,19 C140,21.7063953 139.536232,24.2194767 138.608696,26.5392442 C137.681159,28.8590116 136.383501,30.875 134.715719,32.5872093 C133.047938,34.2994186 131.081382,35.6296027 128.816054,36.5777616 C126.550725,37.5259205 124.089186,38 121.431438,38 L110.408027,38 Z M108,38 L108,0 L111.93311,0 L111.93311,38 L108,38 Z" id="Shape"></path>
            <path d="M166.045872,39 C163.330275,39 160.811927,38.5042373 158.490826,37.5127119 C156.169725,36.5211864 154.146789,35.1302966 152.422018,33.3400424 C150.697248,31.5497881 149.362385,29.470339 148.417431,27.1016949 C147.472477,24.7330508 147,22.1899718 147,19.4724576 C147,16.7365819 147.46789,14.1889124 148.40367,11.8294492 C149.33945,9.46998588 150.665138,7.40889831 152.380734,5.64618644 C154.09633,3.88347458 156.105505,2.50176554 158.408257,1.50105932 C160.711009,0.500353107 163.211009,0 165.908257,0 C168.807339,0 171.40367,0.514124294 173.697248,1.54237288 C175.990826,2.57062147 178,3.98446328 179.724771,5.78389831 L176.944954,8.56567797 C175.642202,7.09675141 174.055046,5.94915254 172.183486,5.12288136 C170.311927,4.29661017 168.220183,3.88347458 165.908257,3.88347458 C163.779817,3.88347458 161.821101,4.2690678 160.03211,5.04025424 C158.243119,5.81144068 156.683486,6.89936441 155.353211,8.30402542 C154.022936,9.70868644 152.995413,11.3612288 152.270642,13.2616525 C151.545872,15.1620763 151.183486,17.2323446 151.183486,19.4724576 C151.183486,21.7125706 151.550459,23.7874294 152.284404,25.6970339 C153.018349,27.6066384 154.045872,29.2683616 155.366972,30.6822034 C156.688073,32.0960452 158.252294,33.1885593 160.059633,33.9597458 C161.866972,34.7309322 163.834862,35.1165254 165.963303,35.1165254 C168.385321,35.1165254 170.541284,34.694209 172.431193,33.8495763 C174.321101,33.0049435 175.917431,31.8481638 177.220183,30.3792373 L180,33.1610169 C178.293578,34.9788136 176.266055,36.4064266 173.917431,37.4438559 C171.568807,38.4812853 168.944954,39 166.045872,39 Z" id="Path"></path>
            <polygon id="Shape" points="184 38 199.537338 0 202.573052 0 218 38 213.612013 38 200.227273 4.44622093 201.800325 4.44622093 188.305195 38"></polygon>
            <polygon id="Path" points="226 38 226 0 228.832073 0 245.007564 26.9258721 242.992436 26.9258721 259.167927 0 262 0 262 38 257.996974 38 257.996974 7.06976744 258.922844 7.31831395 245.416036 29.7979651 242.583964 29.7979651 229.077156 7.31831395 230.003026 7.06976744 230.003026 38"></polygon>
            <path d="M275.616525,22.755814 L275.616525,19.193314 L286.771186,19.193314 C288.342249,19.193314 289.740312,18.8775966 290.965373,18.2461619 C292.190435,17.6147272 293.156427,16.7147529 293.863347,15.5462391 C294.570268,14.3777253 294.923729,12.9882813 294.923729,11.377907 C294.923729,9.7675327 294.570268,8.37808866 293.863347,7.20957485 C293.156427,6.04106105 292.190435,5.14108679 290.965373,4.50965207 C289.740312,3.87821736 288.342249,3.5625 286.771186,3.5625 L275.616525,3.5625 L275.616525,0 L287.074153,0 C289.350989,0 291.384534,0.469476744 293.174788,1.40843023 C294.965042,2.34738372 296.383475,3.66663639 297.430085,5.36618823 C298.476695,7.06574007 299,9.0679203 299,11.3727289 C299,13.6775375 298.476695,15.6814438 297.430085,17.3844477 C296.383475,19.0874516 294.965042,20.4084302 293.174788,21.3473837 C291.384534,22.2863372 289.350989,22.755814 287.074153,22.755814 L275.616525,22.755814 Z M273,38 L273,0 L277.048729,0 L277.048729,38 L273,38 Z" id="Shape"></path>
        </g>
    </g>
</svg>