<?xml version="1.0" encoding="UTF-8"?>
<svg width="231px" height="42px" viewBox="0 0 231 42" version="1.1" xmlns="http://www.w3.org/2000/svg" xmlns:xlink="http://www.w3.org/1999/xlink">
    <title>logo-vetframe</title>
    <g id="Page-1" stroke="none" stroke-width="1" fill="none" fill-rule="evenodd">
        <g id="logo-vetframe" fill="#000000" fill-rule="nonzero">
            <g id="vetframe-copy-2" transform="translate(47, 4)">
                <polygon id="Path" points="7.78187599 30.2954545 0 9.15909091 5.99366656 9.15909091 11.2600488 24.951019 11.2600488 24.951019 16.5435747 9.15909091 22.4732824 9.15909091 14.6953627 30.2954545"></polygon>
                <path d="M34.7609046,31 C32.6214919,31 30.7330183,30.5420246 29.0954839,29.6260738 C27.4579495,28.7101229 26.1789623,27.4318456 25.2585224,25.7912418 C24.3380825,24.150638 23.8778626,22.2537652 23.8778626,20.1006234 C23.8778626,17.889632 24.3318173,15.9372105 25.2397267,14.2433589 C26.1476361,12.5495072 27.419149,11.2199542 29.0542652,10.2546998 C30.6893815,9.28944538 32.5948921,8.80681818 34.7707971,8.80681818 C36.8833901,8.80681818 38.7275674,9.2647936 40.3033288,10.1807444 C41.8790902,11.0966953 43.1054274,12.3416653 43.9823404,13.9156545 C44.8592534,15.4896436 45.2977099,17.2780486 45.2977099,19.2808693 C45.2977099,19.5613519 45.2935331,19.87306 45.2851795,20.2159937 C45.2768258,20.5589275 45.2504459,20.9184053 45.2060397,21.2944272 L27.9469675,21.2944272 L27.9469675,17.8201688 L39.5350132,17.8201688 C39.4615891,16.4668405 38.9815842,15.3912556 38.0949986,14.5934142 C37.2084129,13.7955729 36.1051821,13.3966522 34.785306,13.3966522 C33.8136451,13.3966522 32.923762,13.6200521 32.1156566,14.0668521 C31.3075513,14.513652 30.6681677,15.1820989 30.1975057,16.0721928 C29.7268437,16.9622866 29.4915127,18.0894758 29.4915127,19.4537605 L29.4915127,20.6810908 C29.4915127,21.8350135 29.710576,22.8379578 30.1487028,23.6899235 C30.5868295,24.5418893 31.2004928,25.1999276 31.9896925,25.6640386 C32.7788922,26.1281496 33.6861421,26.3602051 34.7114422,26.3602051 C35.7736742,26.3602051 36.6444319,26.1403111 37.3237152,25.7005232 C38.0029985,25.2607354 38.5229031,24.6810349 38.8834288,23.9614219 L44.6876739,23.9614219 C44.2919749,25.2827576 43.6295088,26.475685 42.7002756,27.5402039 C41.7710424,28.6047228 40.6339573,29.4474853 39.2890203,30.0684912 C37.9440833,30.6894971 36.4347114,31 34.7609046,31 Z" id="Path"></path>
                <path d="M59.0264182,30.6477273 C57.5654466,30.6477273 56.2833009,30.413122 55.179981,29.9439113 C54.0766612,29.4747007 53.2211383,28.6976395 52.6134123,27.6127276 C52.0056863,26.5278157 51.7018233,25.0493617 51.7018233,23.1773655 L51.7018233,14.1149919 L48.1068702,14.1149919 L48.1068702,9.35217361 L51.7018233,9.35217361 L52.3297201,3.52272727 L57.3164568,3.52272727 L57.3164568,9.35217361 L62.8549618,9.35217361 L62.8549618,14.1149919 L57.3236141,14.1149919 L57.3236141,23.22693 C57.3236141,24.1887016 57.5303104,24.856721 57.9437029,25.230988 C58.3570954,25.6052551 59.0674104,25.7923886 60.0746479,25.7923886 L62.7977029,25.7923886 L62.7977029,30.6477273 L59.0264182,30.6477273 Z" id="Path"></path>
                <path d="M68.5286064,30.2954545 L68.5286064,7.18793847 C68.5286064,5.43034627 68.8230568,4.02920341 69.4119576,2.98450989 C70.0008583,1.93981638 70.8365222,1.18122468 71.918949,0.708734809 C73.0013759,0.236244936 74.274444,0 75.7381533,0 L78.3281921,0 L78.3281921,4.83031043 L76.6069063,4.83031043 C75.7219331,4.83031043 75.0884809,5.00848031 74.7065496,5.36482008 C74.3246184,5.72115984 74.1336528,6.32579785 74.1336528,7.17873412 L74.1336528,30.2954545 L68.5286064,30.2954545 Z M65.6641221,13.8479418 L65.6641221,9.10967487 L78.6564885,9.10967487 L78.6564885,13.8479418 L65.6641221,13.8479418 Z" id="Shape"></path>
                <path d="M82.870229,30.6477273 L82.870229,9.31523896 L87.8705453,9.31523896 L88.396106,13.2396118 L88.396106,13.2396118 C88.919713,12.3150098 89.558266,11.5240227 90.3117651,10.8666505 C91.0652642,10.2092784 91.9389194,9.70162992 92.9327306,9.34370522 C93.9265419,8.98578053 95.0202118,8.80681818 96.2137405,8.80681818 L96.2137405,14.8449769 L94.293197,14.8449769 C93.4578572,14.8449769 92.6844949,14.9415195 91.9731101,15.1346046 C91.2617254,15.3276897 90.6453149,15.6465561 90.1238788,16.0912036 C89.6024427,16.5358511 89.2009455,17.1415868 88.9193874,17.9084106 C88.6378292,18.6752345 88.4970502,19.6319438 88.4970502,20.7785386 L88.4970502,30.6477273 L82.870229,30.6477273 Z" id="Path"></path>
                <path d="M106.812847,31 C105.052422,31 103.594419,30.7126149 102.438838,30.1378448 C101.283257,29.5630747 100.425038,28.7883513 99.8641833,27.8136744 C99.3033283,26.8389975 99.0229008,25.7696578 99.0229008,24.6056552 C99.0229008,23.3119295 99.3551249,22.1752082 100.019573,21.1954914 C100.684021,20.2157746 101.689822,19.4471867 103.036973,18.8897276 C104.384125,18.3322686 106.071639,18.053539 108.099515,18.053539 L113.337241,18.053539 C113.337241,17.0034825 113.202086,16.139136 112.931776,15.4604998 C112.661466,14.7818635 112.229168,14.2723932 111.634881,13.932089 C111.040595,13.5917848 110.253638,13.4216326 109.274011,13.4216326 C108.207287,13.4216326 107.299912,13.6543455 106.551885,14.1197712 C105.803858,14.585197 105.342088,15.2877181 105.166573,16.2273347 L99.6286242,16.2273347 C99.7834642,14.7114141 100.287574,13.4015825 101.140953,12.2978399 C101.994333,11.1940972 103.12858,10.3363246 104.543694,9.72452203 C105.958808,9.11271946 107.543939,8.80681818 109.299085,8.80681818 C111.309365,8.80681818 113.042957,9.13978165 114.499861,9.80570858 C115.956764,10.4716355 117.077375,11.4385334 117.861692,12.7064021 C118.646009,13.9742709 119.038168,15.5226223 119.038168,17.3514561 L119.038168,30.4951314 L114.237249,30.4951314 L113.605132,27.2581875 L113.605132,27.2581875 C113.310408,27.8051284 112.947172,28.3053954 112.515424,28.7589882 C112.083675,29.2125811 111.587813,29.6078862 111.027838,29.9449035 C110.467863,30.2819208 109.838166,30.5420246 109.138746,30.7252148 C108.439327,30.9084049 107.664028,31 106.812847,31 Z M108.169457,26.6073803 C108.900988,26.6073803 109.554769,26.4762328 110.1308,26.2139378 C110.706831,25.9516428 111.203793,25.5885494 111.621685,25.1246575 C112.039577,24.6607657 112.372241,24.1256575 112.619677,23.5193332 C112.867113,22.9130088 113.03196,22.2682276 113.114219,21.5849896 L113.114219,21.5284549 L108.748787,21.5284549 C107.890569,21.5284549 107.186421,21.6380184 106.636343,21.8571454 C106.086265,22.0762724 105.68289,22.3800919 105.426216,22.7686041 C105.169542,23.1571162 105.041205,23.6064361 105.041205,24.1165638 C105.041205,24.6534249 105.170532,25.1077847 105.429185,25.4796432 C105.687838,25.8515017 106.052284,26.1324225 106.522523,26.3224057 C106.992761,26.5123888 107.541739,26.6073803 108.169457,26.6073803 Z" id="Shape"></path>
                <path d="M123.954198,30.6477273 L123.954198,9.31523896 L128.923044,9.31523896 L129.379867,12.1360474 L129.379867,12.1360474 C130.049089,11.1125858 130.935613,10.3018489 132.039438,9.70383661 C133.143263,9.10582432 134.41167,8.80681818 135.84466,8.80681818 C136.887706,8.80681818 137.831959,8.94263979 138.677419,9.21428301 C139.522878,9.48592623 140.269654,9.89328072 140.917745,10.4363465 C141.565837,10.9794122 142.101628,11.6556516 142.525121,12.4650645 L142.525121,12.4650645 C143.315465,11.3224418 144.338578,10.4270784 145.59446,9.77897431 C146.850341,9.13087022 148.217433,8.80681818 149.695734,8.80681818 C151.521718,8.80681818 153.050669,9.1744523 154.282588,9.90972054 C155.514506,10.6449888 156.444599,11.7225142 157.072866,13.1422969 C157.701133,14.5620796 158.015267,16.2952118 158.015267,18.3416937 L158.015267,30.6477273 L152.410529,30.6477273 L152.410529,18.8719607 C152.410529,17.1860515 152.078859,15.8892917 151.415518,14.9816812 C150.752178,14.0740706 149.740829,13.6202654 148.381471,13.6202654 C147.476975,13.6202654 146.679768,13.8457888 145.98985,14.2968357 C145.299932,14.7478826 144.763814,15.3940007 144.381494,16.2351899 C143.999175,17.0763792 143.808015,18.0956481 143.808015,19.2929966 L143.808015,30.6477273 L138.185632,30.6477273 L138.185632,18.8719607 C138.185632,17.1860515 137.852763,15.8892917 137.187026,14.9816812 C136.521289,14.0740706 135.484561,13.6202654 134.076841,13.6202654 C133.21635,13.6202654 132.446919,13.8456785 131.768547,14.2965047 C131.090175,14.747331 130.559284,15.393449 130.175876,16.2348589 C129.792467,17.0762688 129.600763,18.0956481 129.600763,19.2929966 L129.600763,30.6477273 L123.954198,30.6477273 Z" id="Path"></path>
                <path d="M173.463195,31 C171.323782,31 169.435308,30.5420246 167.797774,29.6260738 C166.16024,28.7101229 164.881252,27.4318456 163.960812,25.7912418 C163.040373,24.150638 162.580153,22.2537652 162.580153,20.1006234 C162.580153,17.889632 163.034107,15.9372105 163.942017,14.2433589 C164.849926,12.5495072 166.121439,11.2199542 167.756555,10.2546998 C169.391672,9.28944538 171.297182,8.80681818 173.473087,8.80681818 C175.58568,8.80681818 177.429857,9.2647936 179.005619,10.1807444 C180.58138,11.0966953 181.807718,12.3416653 182.684631,13.9156545 C183.561544,15.4896436 184,17.2780486 184,19.2808693 C184,19.5613519 183.995823,19.87306 183.98747,20.2159937 C183.979116,20.5589275 183.952736,20.9184053 183.90833,21.2944272 L166.649258,21.2944272 L166.649258,17.8201688 L178.237303,17.8201688 C178.163879,16.4668405 177.683874,15.3912556 176.797289,14.5934142 C175.910703,13.7955729 174.807472,13.3966522 173.487596,13.3966522 C172.515935,13.3966522 171.626052,13.6200521 170.817947,14.0668521 C170.009841,14.513652 169.370458,15.1820989 168.899796,16.0721928 C168.429134,16.9622866 168.193803,18.0894758 168.193803,19.4537605 L168.193803,20.6810908 C168.193803,21.8350135 168.412866,22.8379578 168.850993,23.6899235 C169.28912,24.5418893 169.902783,25.1999276 170.691983,25.6640386 C171.481182,26.1281496 172.388432,26.3602051 173.413732,26.3602051 C174.475964,26.3602051 175.346722,26.1403111 176.026005,25.7005232 C176.705289,25.2607354 177.225193,24.6810349 177.585719,23.9614219 L183.389964,23.9614219 C182.994265,25.2827576 182.331799,26.475685 181.402566,27.5402039 C180.473333,28.6047228 179.336247,29.4474853 177.99131,30.0684912 C176.646373,30.6894971 175.137002,31 173.463195,31 Z" id="Path"></path>
            </g>
            <path d="M31.8758572,41.0881905 C31.174728,42.068198 29.8093225,42.2935502 28.8261387,41.5915286 C26.8985258,40.2151574 25.1416332,38.7693066 23.5566729,37.2546656 L23.5377212,37.2363966 L23.4745143,37.2528073 C19.5104758,38.261297 15.3115785,37.5758807 11.1554835,35.2056439 L11.015407,35.1251102 C8.39373657,33.6057149 6.28222172,31.5873743 4.6215857,29.1606973 C3.26963388,27.1850986 2.26449457,25.0183408 1.50492368,22.6596088 C1.11944119,21.4625515 0.826806777,20.3215434 0.538263101,18.9903226 C0.511341159,18.8661159 0.466187759,18.6529554 0.420172787,18.4346829 L0.403433027,18.3552352 C0.336569568,18.0377372 0.272337766,17.7309254 0.26419145,17.6928141 C0.186147308,17.3276962 0.133607269,17.1077598 0.0963155933,16.9860468 C-0.257097789,15.832572 0.392473177,14.6134812 1.54717297,14.2631312 C2.70187274,13.9127813 3.92444003,14.5638425 4.27785342,15.7173173 C4.3630087,15.9952481 4.43751177,16.3071233 4.54083325,16.7904975 C4.55011981,16.8339433 4.60638219,17.1025518 4.66719958,17.3915983 L4.67571102,17.4320424 C4.67997725,17.4523101 4.68425606,17.472631 4.68853302,17.4929356 L4.69708023,17.5335022 C4.74260672,17.749521 4.78683137,17.9584017 4.81227089,18.0757691 C5.07302726,19.2787908 5.33220326,20.2893415 5.66783068,21.3315815 C6.30630365,23.3142623 7.13714939,25.105299 8.23076353,26.7033905 C9.53420901,28.6081071 11.1694604,30.1712003 13.2049306,31.3508619 C15.540851,32.7046499 17.7930192,33.3541573 19.9436242,33.3371481 L19.9628318,33.3368798 L19.8356819,33.1768871 C16.4424649,28.8718465 14.2515235,24.0928234 13.2850653,18.8524496 L13.2361681,18.5809845 C12.0690665,11.9434325 13.6920339,6.48233316 17.5357974,3.12980282 C21.0615502,0.0546413073 26.0544029,-0.807125076 30.5928864,0.77889966 C35.0375356,2.33213297 37.9315553,6.48632803 38.7590716,11.8266215 C39.5420089,16.8792294 38.4024644,22.5337382 35.5486823,27.2225051 C33.3754155,30.7931847 30.8077477,33.541996 27.9364424,35.328339 L27.9257631,35.3349013 L28.0469173,35.4403651 C29.0102294,36.2731127 30.0378557,37.0841797 31.1301086,37.873744 L31.3651521,38.0426073 C32.3483359,38.7446289 32.5769864,40.1081829 31.8758572,41.0881905 Z M24.9177501,32.0786922 C27.5219128,30.7318756 29.9516054,28.2820325 32.0495854,24.8269541 C34.3861858,20.9789012 35.328496,16.3249754 34.7092246,12.2626625 C34.1160319,8.37142137 32.1938056,5.59634427 29.4249472,4.62917958 C26.335435,3.5500102 22.9839058,4.13716622 20.6548073,6.1784296 C19.4258071,7.25554721 18.504012,8.7086932 17.9711628,10.4989817 C17.3702113,12.5180825 17.2725331,14.9294204 17.7500141,17.6855659 C18.6707527,23.0003115 21.0266843,27.7871261 24.8521158,32.0655644 L24.8809337,32.097561 L24.9177501,32.0786922 Z" id="Path-4-Copy-3-Copy-2"></path>
        </g>
    </g>
</svg>