<?xml version="1.0" encoding="UTF-8"?>
<svg width="176px" height="39px" viewBox="0 0 176 39" version="1.1" xmlns="http://www.w3.org/2000/svg" xmlns:xlink="http://www.w3.org/1999/xlink">
    <title>logo-crafted</title>
    <g id="Page-1" stroke="none" stroke-width="1" fill="none" fill-rule="evenodd">
        <g id="logo-crafted" fill="#000000" fill-rule="nonzero">
            <path d="M93.2962141,0.0580421473 C93.0571093,0.0941435312 92.6671404,0.181268205 92.4289843,0.251545566 C92.1913026,0.321822928 91.9208866,0.379585143 91.8283755,0.379585143 C91.7358648,0.379585143 91.5778847,0.451787912 91.4777835,0.539875288 C91.3776819,0.627962664 91.2173299,0.700165435 91.1219725,0.700165435 C91.0266151,0.700165435 90.8842908,0.772368202 90.8055379,0.860936934 C90.7267851,0.94902431 90.6257347,1.02122708 90.5801909,1.02122708 C90.1869014,1.02122708 88.4733162,2.82822169 88.4733162,3.24314694 C88.4733162,3.28694995 88.4045261,3.38562707 88.3205547,3.46264335 C88.2370576,3.53965964 88.1440725,3.75289848 88.1146589,3.93677487 C88.0847709,4.1201699 88.0140829,4.32426306 87.9576276,4.39068959 C87.9006978,4.45663478 87.7986987,4.81764864 87.730383,5.19310302 C87.6625417,5.56807606 87.5719285,6.03739409 87.5292315,6.23571099 C87.4870083,6.43450929 87.4504786,7.35822338 87.4485807,8.28915776 C87.4443113,10.389777 87.5372963,10.2472968 86.1733548,10.2472968 C84.9156817,10.2472968 84.7567529,10.3493434 84.7567529,11.1570517 C84.7567529,11.8391272 84.7766785,11.8516424 85.882064,11.8516424 C87.0268263,11.8516424 87.3332981,11.9512822 87.4054092,12.3469533 C87.5387195,13.0824589 87.406358,35.5524418 87.2664055,35.9091234 C87.1909738,36.1021455 87.1288254,36.3591874 87.1288254,36.4800067 C87.1288254,36.6032327 87.0244544,36.8328375 86.8897206,37.0051614 C86.6558343,37.3035996 86.5642724,37.3738769 86.0452627,37.6540237 C85.7772186,37.7984292 85.6524476,38.1098638 85.7444839,38.4044511 C85.7947719,38.5647413 85.8483805,38.5666667 90.2091989,38.5666667 L94.623626,38.5666667 L94.6748627,38.359204 C94.7498201,38.0564338 94.6611049,37.8595609 94.3854699,37.714674 C93.8019399,37.4085343 93.4613103,37.0013107 93.2440286,36.3485976 L93.0604299,35.7988939 L93.0599555,23.9980734 L93.0590068,12.1972529 L93.2255266,12.0446644 C93.3792368,11.903147 93.5756442,11.8887064 95.8718105,11.8516424 C98.6499821,11.8068766 98.5702805,11.8246866 98.6499821,11.2220342 C98.6903073,10.9168572 98.6689585,10.8658339 98.3762446,10.5688398 L98.0593361,10.2472968 L95.300141,10.2472968 L92.5409463,10.2472968 L92.3094319,9.98640417 C91.9849325,9.62057681 91.740609,9.2533054 91.6741908,9.03188355 C91.6433541,8.92791159 91.5546384,8.73488949 91.4773087,8.60251777 C91.3999794,8.47014601 91.3117381,8.23572771 91.2813757,8.08121379 C91.2510134,7.92669986 91.1760555,7.64559042 91.1148564,7.45641914 C90.9810713,7.04390067 90.9639924,4.99959963 91.0901865,4.51102756 C91.1357303,4.33437143 91.2111625,4.00945898 91.2576551,3.78899987 C91.3041476,3.56854075 91.3900166,3.33123432 91.4483695,3.26240101 C91.5071971,3.19308635 91.5968616,3.01257943 91.6480983,2.86143497 C91.8668032,2.21497951 92.4536542,1.6181033 93.3607343,1.1208669 C93.965613,0.789215513 95.7745556,0.801730661 96.3405323,1.14204638 C96.962015,1.51509401 97.4179272,2.10571266 97.5222987,2.67274507 C97.5540842,2.84555036 97.6119631,3.02557593 97.6503904,3.07322976 C97.6892924,3.12088358 97.7737382,3.39140329 97.8377841,3.67491949 C98.1399864,5.00730126 98.2713992,5.32499344 98.7121304,5.78901657 C99.4109429,6.52500342 100.965125,6.48505125 101.567631,5.71585109 C101.672002,5.58299798 101.819545,5.40778593 101.895452,5.32740017 C102.12744,5.08191077 102.097078,3.30524132 101.855601,2.99380671 C101.757871,2.86769254 101.677695,2.72810052 101.677695,2.6833348 C101.677695,2.57743741 101.047198,1.80101697 100.769666,1.5651546 C100.651062,1.46455208 100.490236,1.3225533 100.411957,1.24986918 C100.334153,1.17670371 100.19942,1.09439255 100.113551,1.0669555 C100.027207,1.03903709 99.8763436,0.945173493 99.7771907,0.858530174 C99.6785126,0.7714055 99.5195838,0.700165435 99.4242264,0.700165435 C99.328869,0.700165435 99.1737356,0.632776183 99.0802757,0.549983676 C98.9863419,0.467672521 98.7258883,0.375252976 98.5010156,0.344927814 C98.2766178,0.314602651 97.9654018,0.232772847 97.809794,0.163458189 C97.4857685,0.0180899486 94.0856398,-0.0613330966 93.2962141,0.0580421473 M15.4434718,2.20900998 C15.0936845,2.24250141 14.7066757,2.31139806 14.5835583,2.36211364 C14.4604408,2.41282923 14.2366342,2.45397584 14.0867936,2.45397584 C13.9364757,2.45397584 13.6076852,2.52287249 13.3562011,2.6070795 C13.1047169,2.69128651 12.7315469,2.78267026 12.5273055,2.8104203 C12.3230641,2.83817034 12.114528,2.91089458 12.0634676,2.97261449 C12.0124072,3.03385595 11.8038711,3.10897244 11.5996297,3.13863627 C11.3953883,3.16877856 11.102865,3.25729161 10.9501611,3.33575723 C10.1708943,3.73382675 9.15016456,4.2084481 9.07333546,4.2084481 C9.0256155,4.2084481 8.92158601,4.28021544 8.84237088,4.36777159 C8.76315575,4.4558062 8.66962464,4.52757353 8.6347891,4.52757353 C8.57704795,4.52757353 8.18574436,4.76966871 7.82879912,5.02563889 C7.75244721,5.08066052 7.56299901,5.21510466 7.40743196,5.32466948 C6.53463404,5.94091169 5.20945101,7.1279435 4.58718284,7.85087987 C3.83416199,8.72596296 2.58151327,10.5301939 2.36868228,11.0464403 C2.30950955,11.1890181 2.23602082,11.3052812 2.20404845,11.3052812 C2.17255328,11.3052812 2.10431375,11.4488159 2.05182181,11.6244066 C1.99932986,11.7999974 1.92488674,11.9435321 1.88623357,11.9435321 C1.84805762,11.9435321 1.79174807,12.0597952 1.7616845,12.202373 C1.73162093,12.3449508 1.64381622,12.5334596 1.5665099,12.6210158 C1.48872638,12.7090504 1.40044447,12.9243524 1.3694265,13.0994647 C1.33840854,13.2750555 1.26682861,13.4721765 1.21051907,13.5382024 C1.15420952,13.6037499 1.06401881,13.8463235 1.01057247,14.0769359 C0.956648925,14.3070698 0.884591795,14.5128029 0.850233431,14.5343331 C0.816352265,14.5553849 0.763383122,14.7438937 0.732842354,14.9524975 C0.702778783,15.1615796 0.62738126,15.4108516 0.566299723,15.5070198 C0.504740984,15.6027096 0.42027667,15.9797274 0.378283113,16.3443054 C0.336766755,16.7088835 0.238463656,17.1323108 0.160202935,17.2858929 C-0.0712388288,17.7404194 -0.044515656,23.0157974 0.192652502,23.7052423 C0.28332041,23.9683893 0.379714712,24.4501874 0.406437885,24.7760111 C0.433161057,25.1013564 0.494719796,25.4156973 0.542916944,25.4735896 C0.591114096,25.5319604 0.677487208,25.7860168 0.734751149,26.0376809 C0.866935416,26.617561 1.05781522,27.2012688 1.25346702,27.6213469 C1.33745414,27.8017222 1.40617086,28.0203733 1.40617086,28.1074511 C1.40617086,28.1945287 1.47775079,28.3485893 1.5650783,28.4500205 C1.65240581,28.5509732 1.72398574,28.679676 1.72398574,28.736133 C1.72398574,28.8849306 2.46412219,30.3197989 2.62350683,30.4791224 C2.69747275,30.553282 2.75807709,30.6752865 2.75807709,30.750403 C2.75807709,30.825041 2.82059022,30.9436963 2.89741934,31.0140284 C2.97377127,31.0843604 3.15749308,31.3436797 3.30494773,31.5900809 C3.45287958,31.8364821 3.60510622,32.0383875 3.64328219,32.0383875 C3.68145815,32.0383875 3.71247612,32.0819264 3.71247612,32.1350342 C3.71247612,32.188142 3.78453324,32.3048836 3.87281515,32.3943535 C3.96109706,32.483345 4.2206936,32.7905093 4.44974938,33.0766217 C4.97419164,33.7320967 5.7754096,34.5014426 6.69497306,35.2320342 C7.08866268,35.5449398 7.44894829,35.8492333 7.49523667,35.9080825 C7.54152502,35.9664533 7.67704968,36.0391775 7.79539515,36.0688414 C7.91421784,36.0989836 8.04735648,36.1908459 8.09173606,36.2736175 C8.13563842,36.3563892 8.24014509,36.4238505 8.32365501,36.4238505 C8.40668775,36.4238505 8.49926443,36.4635618 8.529328,36.5118851 C8.55891438,36.5602084 8.70589184,36.6511138 8.85573248,36.7137906 C9.00509594,36.7764673 9.14777857,36.8802908 9.17259297,36.9448814 C9.19693013,37.009472 9.30286842,37.0621014 9.4073751,37.0621014 C9.512359,37.0621014 9.66601725,37.1300411 9.74904998,37.2132913 C9.83208267,37.2965414 10.0196221,37.3907958 10.1665995,37.4228519 C10.3130998,37.4544295 10.5583803,37.5458132 10.7115614,37.6252358 C11.152971,37.8548913 11.8005307,38.0984218 11.9680277,38.0984218 C12.052492,38.0984218 12.2071047,38.1649262 12.3111341,38.2457841 C12.4309112,38.3390816 12.6986202,38.4113274 13.035523,38.4419481 C13.3299551,38.4687413 13.6520648,38.5414655 13.7513223,38.6027069 C14.606941,39.131393 20.9656245,39.1328284 21.8250608,38.6046208 C21.9228867,38.5443362 22.2268629,38.471612 22.5012526,38.4433835 C22.7751651,38.4146765 23.0886852,38.3290342 23.1979639,38.2524824 C23.3077198,38.1759305 23.5401159,38.0893312 23.7152481,38.0591889 C23.8899032,38.0295251 24.0869865,37.9591931 24.1523629,37.9032146 C24.2182164,37.8472361 24.3790327,37.7754688 24.5102625,37.7443696 C24.6414924,37.7127919 24.8027858,37.6410246 24.8681622,37.5845676 C24.9340157,37.5281107 25.0867195,37.4582571 25.2084054,37.4295502 C25.3296141,37.4003648 25.4999743,37.3061103 25.5863474,37.2195111 C25.6727205,37.1329118 25.81254,37.0621014 25.8974815,37.0621014 C25.982423,37.0621014 26.0745225,37.0257393 26.1017229,36.9812435 C26.1294005,36.9367478 26.2835359,36.8281398 26.4443521,36.7396268 C26.7989114,36.5453765 27.0069704,36.4080617 27.948485,35.7463668 C29.5074958,34.6502403 31.4697402,32.2388576 31.5327306,31.3403305 L31.5675661,30.8422652 L31.2907904,30.8422652 C31.134269,30.8422652 30.9257328,30.9116403 30.8116821,31.0015887 C30.7004946,31.0891448 30.5850123,31.1609122 30.555426,31.1609122 C30.5253624,31.1609122 30.3483214,31.3135374 30.1617364,31.5001325 C29.7169864,31.9446115 29.2011338,32.3675604 28.9229264,32.5168365 C28.7998089,32.582384 28.5335316,32.7527118 28.3307218,32.8952896 C28.127912,33.0378674 27.9327375,33.1546089 27.8974247,33.1546089 C27.8616347,33.1546089 27.7442436,33.223984 27.6363965,33.3091479 C27.5285494,33.3943118 27.3476908,33.4871309 27.2341173,33.5158378 C27.1205438,33.5440663 26.965454,33.636407 26.8900565,33.7201355 C26.8141818,33.8038641 26.6843835,33.8722823 26.601828,33.8722823 C26.5187953,33.8722823 26.3183715,33.9407005 26.1566008,34.0239506 C25.6016178,34.3105415 25.2308338,34.4445072 24.8003998,34.5148392 C24.5632317,34.5535936 24.3098387,34.6387575 24.2377816,34.704305 C24.1494997,34.7846844 23.8474324,34.8397061 23.3144005,34.8731975 C22.8787174,34.9004691 22.3375731,34.9736718 22.1123349,35.0353917 C21.5821663,35.1813186 20.1644066,35.181797 19.6533258,35.036827 C19.4376317,34.9755856 18.9045998,34.9023829 18.4689167,34.8746328 C17.9258636,34.8397061 17.6342947,34.7851629 17.541718,34.7009558 C17.4672749,34.6334946 17.2153135,34.5502445 16.981963,34.5157961 C16.7481352,34.4813478 16.4498855,34.3947486 16.3186557,34.3229812 C16.1874258,34.2507354 16.0261324,34.1918862 15.960756,34.1914078 C15.8949025,34.1904508 15.7340862,34.1186835 15.6028564,34.0316058 C15.4716265,33.9445281 15.3065155,33.8732392 15.2354128,33.8727607 C15.1647872,33.8722823 15.015901,33.8000365 14.9042363,33.7120019 C14.7925716,33.6239673 14.592625,33.5301913 14.4599636,33.5033982 C14.3273021,33.4770835 14.1578963,33.3876135 14.0834532,33.3048419 C14.0085328,33.2220702 13.9188193,33.1546089 13.8839838,33.1546089 C13.7813858,33.1546089 13.0312282,32.6407547 12.7048238,32.3474655 C12.6256086,32.2761767 12.5258739,32.2044093 12.4834032,32.1876636 C12.3841457,32.1493877 11.7022276,31.5556325 11.1668097,31.0412999 C10.665273,30.5595019 9.67747005,29.3772545 9.67747005,29.2581207 C9.67747005,29.2117112 9.6082761,29.1361163 9.5238118,29.0906636 C9.43934746,29.0452109 9.34533916,28.9308616 9.31575279,28.8361288 C9.28568922,28.7413959 9.12200979,28.4629386 8.95260396,28.2179728 C8.78272094,27.9725284 8.64385591,27.7079462 8.64385591,27.629959 C8.64337868,27.5519718 8.59136393,27.4677648 8.52789639,27.4433639 C8.46442889,27.418963 8.37042055,27.2677732 8.31936023,27.1070143 C8.26782267,26.9467339 8.18097234,26.7610957 8.12609442,26.6955482 C8.07121645,26.6295223 7.99915933,26.486466 7.96623259,26.3764228 C7.9333058,26.266858 7.85743108,26.1065776 7.79778114,26.0199783 C7.73813119,25.9333791 7.68802525,25.7898444 7.68659368,25.7008529 C7.68516207,25.6118614 7.59592575,25.3597188 7.48855585,25.1405892 C7.38118596,24.9214595 7.29242687,24.6162091 7.29147249,24.462627 C7.29099526,24.3090449 7.21941532,24.0760403 7.13256504,23.9444668 C7.04571471,23.8128934 6.97413477,23.6191215 6.97365758,23.5143412 C6.97365758,23.4090824 6.90350926,23.0143621 6.81809054,22.6368659 C6.73314906,22.2598481 6.62911952,21.7354681 6.5876032,21.4723212 C6.54560965,21.2091743 6.47307529,20.8503376 6.42630976,20.6752252 C6.2888763,20.162328 6.31035029,15.828059 6.45255573,15.280235 C6.51602327,15.0357476 6.60478236,14.5529926 6.64963913,14.207074 C6.69497306,13.8611554 6.78611818,13.4018445 6.8524489,13.1865424 C6.91877966,12.9712404 6.9731804,12.7013952 6.9731804,12.5865675 C6.9731804,12.4717397 7.03378472,12.290886 7.10822787,12.1846704 C7.18219379,12.0784547 7.26904408,11.7985621 7.30101645,11.5617298 C7.33298881,11.3253761 7.41506712,11.0698843 7.48330669,10.9942894 C7.5520234,10.918216 7.63076134,10.7330563 7.65939329,10.5823448 C7.68754806,10.4321119 7.7548332,10.2546073 7.80875675,10.1890598 C7.8622031,10.1230339 7.931397,9.96466726 7.9619378,9.83644298 C7.99200137,9.70821865 8.08648685,9.51540373 8.17142838,9.40727428 C8.25589268,9.29914479 8.32556381,9.14508426 8.32556381,9.06518327 C8.32556381,8.98480383 8.39428053,8.85514417 8.47779045,8.77667856 C8.56177756,8.69821294 8.65626309,8.5326696 8.68728103,8.4082729 C8.71829902,8.2843546 8.79035614,8.16474238 8.84714286,8.14273373 C8.90392963,8.12072508 8.98696236,7.99824215 9.0313419,7.87001782 C9.07619863,7.74227198 9.15016456,7.63749163 9.19597571,7.63749163 C9.2422641,7.63749163 9.27996282,7.59251744 9.27996282,7.53749581 C9.27996282,7.48295262 9.36060956,7.34276712 9.45891265,7.226504 C9.55721578,7.11024093 9.78102234,6.84326638 9.95567734,6.63274889 C10.1308096,6.42223135 10.3989957,6.1303775 10.5521767,5.9839721 C11.4015919,5.17300117 11.8095975,4.81799205 12.0200424,4.70890567 C12.1488863,4.64144438 12.3034989,4.53714252 12.3636261,4.47733641 C12.423276,4.41705182 12.5168071,4.36777159 12.5707307,4.36777159 C12.6246542,4.36777159 12.7902424,4.27830165 12.9381743,4.16873684 C13.0865834,4.05869358 13.2679192,3.96922363 13.3418851,3.96922363 C13.4153738,3.96922363 13.5194033,3.9161158 13.5728497,3.85152519 C13.626296,3.78693458 13.800951,3.7108612 13.9603357,3.68215427 C14.1201975,3.65344733 14.3048737,3.58263689 14.3712044,3.52522302 C14.4375352,3.46733069 14.7696661,3.38551593 15.1099093,3.34341242 C15.4496754,3.30083046 15.7856238,3.2180588 15.8562494,3.15920958 C16.0924631,2.96208861 18.7366256,2.96208861 19.2896998,3.15920958 C19.536412,3.24724418 19.9515756,3.34102018 20.2121265,3.36781331 C20.4726774,3.39460645 20.7442039,3.46876604 20.8148295,3.53335665 C20.8859322,3.5974688 20.9899617,3.65009819 21.0462713,3.65009819 C21.2629198,3.65009819 22.6415492,4.48068556 22.6415492,4.61130211 C22.6415492,4.65292715 22.6797252,4.68689702 22.726968,4.68689702 C22.8100006,4.68689702 23.2776562,5.11463039 23.2776562,5.19070379 C23.2776562,5.21127707 23.3902753,5.34859191 23.5272315,5.49595419 C23.7801473,5.76627783 24.1051201,6.23563624 24.2931368,6.6006928 C24.3494463,6.71025758 24.4477494,6.88967595 24.5116941,6.99924077 C24.5751616,7.109284 24.6281308,7.27817649 24.628608,7.37530161 C24.6290852,7.47194829 24.6958931,7.61548298 24.777017,7.6939486 C24.8576638,7.77241426 24.9631249,7.98006109 25.0108448,8.15565183 C25.1544819,8.68481635 25.3520425,9.259912 25.4622756,9.47138642 C25.5195395,9.58095125 25.5920738,9.82926624 25.6240462,10.023038 C25.6560185,10.2168099 25.7495497,10.4856982 25.831628,10.6210992 C25.9137063,10.7560218 25.9814686,10.978979 25.9814686,11.1162939 C25.9814686,11.2536087 26.0353922,11.41054 26.1012457,11.4650832 C26.166622,11.5196263 26.2205456,11.6047903 26.2205456,11.6540705 C26.2229316,12.2612222 27.4073408,13.7090087 27.991433,13.819052 C28.151772,13.8491942 28.324041,13.9238323 28.3746242,13.9850737 C28.5039453,14.1415265 29.7427552,14.1415265 29.8720763,13.9850737 C29.9226594,13.9238323 30.0806124,13.8520649 30.2232951,13.8252718 C30.5496996,13.7635518 31.1428586,13.1602277 31.3857531,12.6411106 C31.6214897,12.1382608 31.6100369,9.89337838 31.3700055,9.55320119 C31.2936536,9.44507174 31.2311405,9.30823534 31.2311405,9.24938612 C31.2311405,9.10345921 30.8407913,8.27909168 30.6613643,8.04513012 C30.5811947,7.94082826 30.5153412,7.80781945 30.5153412,7.74992716 C30.5153412,7.69203482 30.4346945,7.5599829 30.3363914,7.45663793 C30.2376111,7.35329296 29.947951,7.01215887 29.6921721,6.69877481 C29.2622153,6.1715241 28.151772,5.18304861 27.4927595,4.74048332 C26.7340123,4.23141365 26.561266,4.12854713 26.4610541,4.12854713 C26.400927,4.12854713 26.2854447,4.06778411 26.2033664,3.99362453 C26.1212881,3.91946494 25.9308855,3.81181393 25.7796132,3.75440006 C25.1334851,3.5094342 24.9769637,3.441016 24.788947,3.31948997 C24.6796684,3.24867953 24.413391,3.16830011 24.198174,3.14102852 C23.9824799,3.11375693 23.7438801,3.03481285 23.6675282,2.96543776 C23.5902218,2.89558421 23.2738386,2.80754961 22.9550693,2.7673599 C22.6396404,2.72764863 22.3390047,2.65970889 22.2874672,2.61712693 C22.2359296,2.57406652 21.8918688,2.50469143 21.5229936,2.46258792 C21.1536412,2.42048442 20.7446812,2.34488948 20.6134513,2.29465235 C20.3247456,2.18413064 16.3806916,2.11906158 15.4434718,2.20900998 M173.467843,2.35437742 C173.40277,2.40937058 173.260274,2.48062259 173.151028,2.51314028 C173.042256,2.54517977 172.899761,2.61738818 172.834688,2.67285954 C172.76914,2.7288091 172.591496,2.80101751 172.439976,2.8335352 C172.28798,2.86605289 172.12791,2.94160871 172.083737,3.00090569 C172.039563,3.06068086 171.83437,3.14101869 171.628226,3.1792748 C171.421608,3.21800911 171.19409,3.29834694 171.122367,3.35860032 C170.996971,3.46284822 170.763754,3.54366425 169.984778,3.75216005 C169.788609,3.8047622 169.481769,3.91474852 169.303175,3.99699916 C169.124106,4.079728 168.82154,4.1481108 168.630121,4.1495454 C168.425402,4.15098001 168.119987,4.23227424 167.886769,4.34799898 C167.669227,4.4555943 167.41986,4.54549615 167.332462,4.54740897 C166.710707,4.5603204 166.719256,5.74099959 167.341012,5.74099959 C167.518656,5.74099959 168.088163,6.24598026 168.135187,6.4453902 C168.162736,6.56207136 168.242533,6.72370343 168.312831,6.80499768 C168.515175,7.03835994 168.551748,14.7364457 168.351305,14.88421 C168.195985,14.9985001 168.005516,14.8894702 168.005516,14.6862346 C168.005516,14.1310428 165.383599,11.2403154 164.880115,11.2403154 C164.827391,11.2403154 164.720045,11.1685853 164.641197,11.0805962 C164.56235,10.9930853 164.445029,10.9213552 164.379956,10.9213552 C164.272134,10.9213552 164.111589,10.8548852 163.216243,10.4378936 C163.041923,10.3565993 162.685684,10.2681321 162.424442,10.2408746 C162.163201,10.2136171 161.860635,10.1313665 161.751389,10.0582017 C161.450723,9.85592248 157.29793,9.85783526 157.001539,10.0605927 C156.891342,10.1356703 156.558378,10.2198337 156.249638,10.2499604 C155.935673,10.2805653 155.588459,10.3685543 155.448813,10.453196 C155.312968,10.5354466 155.143398,10.6023948 155.07215,10.6023948 C155.000902,10.6023948 154.809958,10.674125 154.647513,10.7621141 C154.485069,10.8496249 154.303625,10.9213552 154.244726,10.9213552 C154.185353,10.9213552 154.046658,10.9930853 153.935986,11.0805962 C153.825314,11.1685853 153.673795,11.2403154 153.599222,11.2403154 C153.524649,11.2403154 153.400203,11.3110893 153.322306,11.3976437 C153.244408,11.4841982 153.106187,11.578882 153.01499,11.6080523 C152.827371,11.6678275 152.384685,11.9652688 152.343837,12.0589962 C152.328637,12.0924703 152.211315,12.1751992 152.08212,12.2421474 C151.803303,12.3875206 151.75248,12.4315151 150.985379,13.1952027 C150.385473,13.791998 149.718595,14.599202 149.718595,14.7278381 C149.718595,14.7665724 149.629772,14.8760806 149.520526,14.9712426 C149.411754,15.0664047 149.322932,15.1931281 149.322932,15.252425 C149.322932,15.311722 149.251684,15.4427492 149.164287,15.5441279 C149.077365,15.6450284 149.006117,15.7717517 149.006117,15.8253103 C149.006117,15.8788688 148.956244,15.9644669 148.894971,16.0156344 C148.834173,16.066802 148.76055,16.2026112 148.732051,16.3178577 C148.703076,16.4331043 148.610455,16.6157772 148.526382,16.7238507 C148.441835,16.8319242 148.372962,16.9796884 148.372962,17.052375 C148.372962,17.1245834 148.305039,17.318255 148.221917,17.4822781 C148.138795,17.6463011 148.028123,17.9585666 147.97635,18.1766265 C147.924576,18.3946863 147.853803,18.5902707 147.819605,18.6117897 C147.785881,18.6328306 147.733157,18.821242 147.702758,19.0297377 C147.672834,19.2387117 147.599687,19.4849855 147.540789,19.5772783 C147.482365,19.6695712 147.396868,20.1453816 147.351744,20.6341034 C147.306146,21.1233034 147.223499,21.6034176 147.167925,21.701927 C146.977931,22.036668 146.980781,25.7881578 147.1722,26.5733645 C147.258648,26.9291463 147.350319,27.5570247 147.375969,27.9687561 C147.401618,28.3809657 147.458616,28.761614 147.50279,28.8146944 C147.546488,28.8682529 147.619636,29.1226561 147.665234,29.3808848 C147.710833,29.6391136 147.795855,29.9575957 147.854279,30.0891011 C147.912702,30.2206064 147.984899,30.4788352 148.014348,30.6624645 C148.044273,30.8460938 148.11837,31.0383308 148.179643,31.0894983 C148.240441,31.1401877 148.314064,31.3606385 148.342563,31.5786984 C148.371537,31.7972364 148.441835,31.9937771 148.498833,32.0157744 C148.555831,32.0377717 148.644654,32.1874487 148.695477,32.3476462 C148.746775,32.5083219 148.833223,32.6933858 148.887846,32.7593776 C148.942469,32.8248911 149.013717,32.9654824 149.046016,33.0721213 C149.078315,33.178282 149.136738,33.3035707 149.175687,33.3509127 C149.320557,33.5259344 149.715745,34.1562038 149.717169,34.213588 C149.718119,34.2465838 149.780817,34.3379203 149.85729,34.4168236 C149.933288,34.4957268 150.074833,34.6664447 150.171255,34.795559 C150.797285,35.6348024 151.002954,35.8461674 151.891651,36.5639478 C152.285888,36.8819517 152.661601,37.1918261 152.726674,37.2520795 C152.792222,37.3123329 152.925693,37.3864541 153.023065,37.4165808 C153.120912,37.4471857 153.245833,37.5146121 153.300456,37.5662578 C153.444377,37.7030234 154.265626,38.0989741 154.404796,38.0989741 C154.469869,38.0989741 154.583391,38.1659224 154.656538,38.2476948 C154.736336,38.3361621 154.947704,38.4150653 155.179972,38.442801 C155.39419,38.4681456 155.651632,38.5408322 155.751378,38.604433 C156.575477,39.1256725 161.771338,39.1342802 162.385019,38.6154316 C162.450092,38.5599603 162.663835,38.4887083 162.860004,38.4561906 C163.055698,38.4241511 163.301265,38.3304236 163.404812,38.248173 C163.508833,38.1664006 163.647054,38.0989741 163.712127,38.0989741 C163.841323,38.0989741 164.170962,37.9129538 164.827391,37.469183 C165.060609,37.3113765 165.312826,37.146397 165.387874,37.1024025 C165.610167,36.9713753 166.863652,35.6816662 166.976223,35.467432 C167.033222,35.3588803 167.199467,35.1226488 167.344812,34.9428451 C167.490632,34.7630413 167.609854,34.5803684 167.609854,34.5368521 C167.609854,34.4933358 167.678726,34.3943481 167.763748,34.3173577 C167.848296,34.2403672 167.939493,34.075866 167.966567,33.9520118 C168.034015,33.6426155 168.205485,33.5053717 168.361754,33.6359207 C168.461502,33.7196059 168.480501,34.0619981 168.480501,35.8002601 C168.480501,37.4232756 168.5052,37.9244306 168.594972,38.1415341 L168.709919,38.4179345 L170.277369,38.4145871 C171.50378,38.4117179 171.913692,38.3839822 172.161635,38.2864291 C172.394377,38.1950926 172.923985,38.1482289 174.163696,38.110451 C175.914016,38.0573706 175.996188,38.039199 175.999996,37.7030234 C176.001413,37.5629104 175.626175,37.222431 175.46943,37.222431 C175.243337,37.222431 174.718003,36.6992787 174.510435,36.2674629 L174.299067,35.8275176 L174.280067,19.2898793 C174.260593,2.25012952 174.263443,2.48875201 174.055874,2.2792998 C173.924303,2.14683802 173.893905,2.14109961 173.705336,2.21091701 C173.640263,2.23482707 173.532916,2.29986246 173.467843,2.35437742 Z M109.437765,5.14447089 C109.340769,5.35169605 109.2375,5.65584912 109.207581,5.8201013 C109.178145,5.98483097 109.085493,6.2054255 109.002009,6.31047048 C108.918526,6.41551551 108.850484,6.57117313 108.850484,6.65711904 C108.850484,6.74258745 108.778099,6.90397482 108.689307,7.015227 C108.600998,7.12647923 108.528131,7.24775848 108.527166,7.28452421 C108.521858,7.52803766 106.842535,9.46038834 106.635997,9.46038834 C106.60077,9.46038834 106.514391,9.51482077 106.444419,9.58166759 C106.219545,9.79557743 105.750009,10.0706044 105.50728,10.1307665 C105.37747,10.1627575 105.20423,10.2487034 105.122194,10.3222349 C105.00107,10.4301448 104.739038,10.4626132 103.715037,10.4950817 C102.105203,10.5456943 102.054047,10.5729105 102.054047,11.3745949 C102.054047,12.088901 102.0444,12.0836487 103.398475,12.0850811 C105.033402,12.0869911 104.828795,10.5175231 104.829277,23.063717 C104.82976,29.7541292 104.859197,33.7964521 104.908418,33.9731187 C104.951849,34.1273438 105.021821,34.5842896 105.064286,34.9882354 C105.113025,35.4532983 105.185892,35.7679559 105.263585,35.8443523 C105.330662,35.9111991 105.409319,36.0902531 105.438273,36.2425683 C105.467227,36.3944061 105.523205,36.5390817 105.563257,36.5634331 C105.602828,36.5877845 105.703683,36.7400997 105.787167,36.9019645 C105.984536,37.2844238 106.465652,37.7805228 106.920228,38.069874 C107.119044,38.1964055 107.354535,38.3597028 107.442844,38.4327568 C107.531154,38.5058108 107.76568,38.5898468 107.963531,38.6199279 C108.161382,38.6495315 108.378536,38.7216306 108.446095,38.7798828 C108.784373,39.0730539 112.301782,39.0735314 112.765527,38.7803603 C112.862039,38.7197206 113.097048,38.6461892 113.288143,38.618018 C113.479239,38.5893693 113.707974,38.5053333 113.796766,38.4313243 C113.885075,38.3568379 114.138421,38.1820812 114.359436,38.0426578 C115.266656,37.47064 115.847663,36.7467844 115.847663,36.1890909 C115.847663,35.713046 115.724127,35.6366497 115.337593,35.8730009 C115.187033,35.9646766 115.010897,36.040118 114.944786,36.040118 C114.879157,36.040118 114.727632,36.1294062 114.608438,36.2387486 C114.489245,36.3485683 114.332895,36.4378566 114.261475,36.4378566 C114.189573,36.4378566 114.062659,36.4989737 113.979175,36.5734601 C113.29876,37.1831987 111.022022,36.4230548 111.022022,35.5865145 C111.022022,35.5263524 110.958324,35.3816768 110.881114,35.2646948 C110.667338,34.9419202 110.618599,12.4665855 110.831409,12.2340541 C110.956876,12.0965406 111.131564,12.0865136 113.369214,12.0865136 C116.1068,12.0865136 115.887716,12.1514505 115.887716,11.3430814 C115.887716,10.9214689 115.865036,10.8598743 115.646434,10.6865501 L115.405152,10.4955591 L113.149165,10.4950817 C111.502174,10.4950817 110.867119,10.4692979 110.796665,10.3995862 C110.725728,10.3289196 110.700152,9.63371261 110.700152,7.76582135 C110.700152,4.78779535 110.694361,4.7639215 109.990783,4.76655511 C109.620656,4.76821878 109.611487,4.77442598 109.437765,5.14447089 M47.8081215,10.11558 C47.6560281,10.1993799 47.4101202,10.2946724 47.2618175,10.3272347 C46.8827689,10.4115134 46.3336221,10.7198971 45.5200887,11.3055387 C45.2192187,11.5224608 44.7577268,12.0391471 44.4326925,12.52375 C44.2706492,12.7650937 44.0934436,12.9911141 44.0384819,13.0265495 C43.9835197,13.061506 43.9385078,13.1572773 43.9385078,13.2396407 C43.9385078,13.322004 43.849905,13.495829 43.7409286,13.6265568 C43.6324257,13.7568058 43.5438233,13.9153074 43.5438233,13.9789953 C43.5438233,14.0422044 43.4324776,14.3189835 43.2969675,14.5933684 C42.9008617,15.3944955 42.8051518,15.1900237 42.7482945,13.418733 C42.7231825,12.6410699 42.6620609,11.8432948 42.6127846,11.645527 C42.5630344,11.448238 42.4843818,11.0852647 42.4374746,10.8391324 C42.3483981,10.3703317 42.1313927,10.2683353 41.8779038,10.5771978 C41.8281537,10.6380126 41.7248629,10.6878137 41.6485793,10.6878137 C41.5722957,10.6878137 41.4704264,10.7361782 41.4220977,10.7945987 C41.373769,10.8534981 41.1960899,10.9435231 41.0269394,10.9947608 C40.8577888,11.0459984 40.6753716,11.1412909 40.6213572,11.2068943 C40.5678166,11.2729765 40.4209352,11.3266085 40.2953753,11.3266085 C40.1655511,11.3266085 40.0096673,11.3946061 39.9324361,11.4855888 C39.8585216,11.5732196 39.6723139,11.668512 39.5187991,11.6967646 C39.3652844,11.725496 39.1160598,11.815521 38.9644403,11.8969267 C38.8132946,11.9783323 38.6341941,12.0448934 38.5669129,12.0448934 C38.499158,12.0448934 38.3048955,12.1167219 38.1343235,12.2043526 C37.9637516,12.2919834 37.7064723,12.3638119 37.5614861,12.3638119 C37.4169738,12.3638119 37.2023374,12.4322884 37.0848323,12.5156094 C36.9564295,12.6065922 36.6674049,12.6865612 36.3622706,12.7152927 C35.4170178,12.8053177 35.1270455,13.5786712 35.9135716,13.9109977 C36.3527944,14.0963152 36.9104699,14.7025477 36.9104699,14.9946502 C36.9104699,15.1320821 36.9725391,15.3600178 37.0483489,15.5003228 C37.1781731,15.7397511 37.1867017,16.381419 37.1867017,25.7320524 C37.1867017,35.0501235 37.1776992,35.7305788 37.0483489,36.0490185 C36.9725391,36.2362514 36.9104699,36.4723277 36.9104699,36.5733665 C36.9104699,36.8712153 35.9936457,37.7369881 35.6728757,37.7417767 C35.5563182,37.7436921 35.4606084,38.1655647 35.5278895,38.3800925 C35.5989612,38.6065917 45.0121631,38.6381963 45.0979231,38.4121759 C45.1898423,38.1708322 45.0116896,37.8681948 44.6871288,37.7140029 C44.5141878,37.6321185 44.3549874,37.5382626 44.3331919,37.5052215 C44.3113969,37.4726592 44.2052633,37.4195061 44.0962869,37.3879016 C43.7684097,37.2916514 43.1671434,36.5738453 43.105548,36.2051257 C43.0761717,36.0284276 43.002731,35.7650565 42.942557,35.6190052 C42.7809875,35.228737 42.7824089,19.4216797 42.9439785,18.7086622 C43.0036786,18.4452911 43.0771193,17.9247739 43.107917,17.5517446 C43.1382409,17.1787153 43.2074173,16.765462 43.2619055,16.6337765 C43.3163937,16.5020909 43.3874657,16.2506912 43.4196845,16.0749507 C43.4519037,15.8996892 43.5220279,15.7019214 43.5760421,15.6363181 C43.6300568,15.5702359 43.7162903,15.3681584 43.7674618,15.1866717 C43.8186332,15.005185 43.9133956,14.8122058 43.9783076,14.758095 C44.04322,14.7035054 44.0962869,14.6101283 44.0962869,14.5507501 C44.0962869,14.3865023 45.1145065,13.3828188 45.5177194,13.1496156 C46.8609734,12.3729102 49.2703022,12.7296584 50.1440094,13.8353383 C50.250143,13.969897 50.3742818,14.1255254 50.4197676,14.1815517 C50.4652535,14.237099 50.5415372,14.3989526 50.5893919,14.5406941 C50.636773,14.6824357 50.7414853,14.8840343 50.8215592,14.988425 C50.9011596,15.0932947 50.9665456,15.2369516 50.9665456,15.3078224 C50.9660716,15.4270577 51.0480409,15.620037 51.4602562,16.4757537 C51.864891,17.3161472 52.4543116,17.6647548 53.3862977,17.6154325 C53.8591612,17.5900531 54.0756927,17.5445617 54.1458168,17.4554944 C54.199831,17.3874968 54.343396,17.3080066 54.4646916,17.2792752 C54.5859871,17.2510227 54.7721947,17.1298719 54.8783287,17.0106366 C54.9844624,16.8909224 55.1602461,16.6926758 55.2696965,16.5696097 C55.3786729,16.4470224 55.4677493,16.2928305 55.4677493,16.2272272 C55.4677493,16.1621027 55.5388208,15.9676869 55.6260022,15.7957774 C55.7553527,15.5386313 55.7837812,15.3255401 55.7837812,14.6015089 C55.7837812,13.8726891 55.7563002,13.6686962 55.6260022,13.4225639 C55.5388208,13.2583161 55.4677493,13.0485769 55.4677493,12.9561575 C55.4677493,12.8637382 55.3976251,12.7234332 55.3118656,12.6453796 C55.2261056,12.5668471 55.1337125,12.4318095 55.1067054,12.3456153 C55.0536386,12.1761001 54.9887266,12.0942156 54.5210751,11.6057818 C54.1008049,11.1666703 54.0477381,11.1274041 53.4801126,10.8343438 C53.2053022,10.6926023 52.9271751,10.5345796 52.8617892,10.4823842 C52.7968772,10.4306677 52.5656573,10.36267 52.3486519,10.3315443 C52.1316465,10.3004187 51.8881075,10.2151822 51.8075596,10.142396 C51.5673378,9.9245162 48.195699,9.90200995 47.8081215,10.11558 M65.817709,10.0181008 C65.7299879,10.0405166 65.6039196,10.1053794 65.5382491,10.1621342 C65.4720991,10.2193661 65.1308031,10.2909059 64.7794409,10.3219064 C64.3801441,10.3571994 64.0465182,10.4344623 63.8912092,10.5284179 C63.7541156,10.6109271 63.5652525,10.6781745 63.4713005,10.6781745 C63.377348,10.6781745 63.1664352,10.7497143 63.0024979,10.8374698 C62.838561,10.9247483 62.6458631,10.9962881 62.5744404,10.9962881 C62.5025381,10.9962881 62.3582545,11.0625816 62.2532772,11.143183 C62.1487794,11.2237846 61.9632716,11.3144016 61.841038,11.3439714 C61.7192837,11.3735411 61.5515116,11.4593889 61.4681053,11.5347441 C61.3846986,11.6100994 61.1129083,11.81518 60.8641265,11.9897371 C60.3555384,12.347436 59.97206,12.6960732 59.7688163,12.9865247 C59.6930797,13.0943113 59.5224314,13.3356388 59.3891731,13.523073 C59.2559143,13.7100303 59.1471022,13.8931721 59.1471022,13.929419 C59.1471022,13.9656658 59.0728034,14.0891911 58.9822066,14.2036547 C58.609753,14.6748634 58.5920172,16.924074 58.9572803,17.3518819 C59.3445936,17.8054441 59.8373633,18.2299135 59.9768535,18.2299135 C60.0621776,18.2299135 60.3243808,18.2900069 60.5597408,18.3639313 C60.9619138,18.4903182 61.0108072,18.4903182 61.3655246,18.3634544 C61.5735617,18.28953 61.819467,18.2289596 61.9124607,18.2294365 C62.005454,18.2294365 62.1727466,18.1583737 62.2844348,18.0706182 C62.396123,17.9833397 62.5178774,17.9117999 62.5547872,17.911323 C62.7086579,17.9103691 63.2853134,16.7886254 63.3519426,16.3617714 C63.3792654,16.1867374 63.4665069,15.9187017 63.5455993,15.7656066 C63.6246916,15.6125115 63.7066604,15.2624435 63.7277515,14.9877307 C63.7488429,14.713018 63.8207452,14.4053969 63.8873744,14.3038105 C63.954004,14.2027009 64.034055,13.9804506 64.0647331,13.8097091 C64.2047028,13.0370795 65.2592684,11.6453923 65.8086011,11.5080359 C65.9169336,11.4808508 66.0679287,11.3907107 66.1441449,11.3072476 C66.219882,11.2237846 66.3675209,11.1551063 66.472019,11.1551063 C66.5765167,11.1551063 66.7955788,11.0954899 66.9590365,11.0229962 C67.4508475,10.8036076 69.5882602,10.7745147 70.2118917,10.9786416 C70.4755332,11.0649662 70.799093,11.1608295 70.930914,11.1918301 C71.0627345,11.2223537 71.2348205,11.3163093 71.3134337,11.4002493 C71.3920465,11.4841893 71.5190739,11.5528675 71.5957697,11.5528675 C71.8459894,11.5528675 72.8732321,12.7118119 73.0064905,13.1439122 C73.0395655,13.2526527 73.1109887,13.3947783 73.1651547,13.4605949 C73.309918,13.6361059 73.5313765,14.306672 73.6243703,14.8513282 C73.6694289,15.1136407 73.7633813,15.4713396 73.8333661,15.6463736 C73.9359465,15.902486 73.9666245,16.385618 73.9905921,18.1340502 C74.023188,20.5396944 74.0073692,20.6288807 73.5246661,20.7342826 C73.3885311,20.7638524 73.2576689,20.8382538 73.2341809,20.899301 C73.2106929,20.9603483 73.0434003,21.0500115 72.8622068,21.0981816 C72.6814929,21.1468287 72.4614722,21.2364919 72.3732719,21.298016 C72.2855513,21.3590633 72.1187383,21.4091412 72.0022566,21.4091412 C71.8862545,21.4091412 71.7055401,21.4754347 71.6005632,21.5560362 C71.4859989,21.6447455 71.2060595,21.7239162 70.8968802,21.7553937 C70.6030398,21.7849635 70.3231008,21.8617495 70.2416115,21.935197 C70.1601222,22.0086445 69.8686788,22.0878152 69.5542264,22.1221543 C69.2546338,22.1550626 68.8951229,22.2404334 68.7556328,22.3124501 C68.6161426,22.3839899 68.3908488,22.4426525 68.2547139,22.4426525 C68.1185794,22.4426525 67.9057487,22.4946381 67.7815973,22.558547 C67.6574464,22.6224558 67.3089604,22.6973341 67.0064916,22.7254731 C66.6886841,22.7545659 66.3727939,22.8346905 66.2572709,22.914815 C66.1441449,22.9930319 65.8162707,23.0774488 65.499901,23.1094032 C65.1935979,23.1408807 64.8877739,23.2148052 64.8211443,23.2744216 C64.7540355,23.3340381 64.4937497,23.4198859 64.2420918,23.4661483 C63.9904343,23.5119337 63.6774202,23.6044585 63.5470375,23.6717059 C63.4161753,23.7389533 63.2321057,23.7938005 63.1381537,23.7938005 C63.0442012,23.7938005 62.8754709,23.8653402 62.7637827,23.9530957 C62.6434665,24.0470512 62.4397433,24.111914 62.264302,24.111914 C62.0692075,24.111914 61.918213,24.1662842 61.8233018,24.2707323 C61.7437304,24.3584877 61.6282074,24.4300275 61.5663712,24.4300275 C61.4302368,24.4300275 60.440383,24.8974208 60.3838199,24.9889917 C60.3617698,25.0242846 60.2395363,25.0762702 60.1129884,25.1039322 C59.9864405,25.1315943 59.819148,25.2236421 59.7419731,25.308536 C59.6647981,25.3939068 59.5593413,25.4630619 59.5080513,25.4630619 C59.2698152,25.4630619 57.1496592,27.3922513 57.1496592,27.6092553 C57.1496592,27.6493175 57.0820709,27.7466117 56.9996229,27.8248285 C56.9171754,27.9030453 56.8227438,28.0566173 56.7891892,28.1658347 C56.755635,28.2750521 56.6612035,28.4500861 56.579235,28.5540573 C56.4977457,28.6585053 56.430637,28.8030157 56.430637,28.8750324 C56.430637,28.947526 56.3616108,29.1416373 56.2772459,29.3061788 C56.1924009,29.4711972 56.0998867,29.7559255 56.0706465,29.9390674 C56.0414063,30.1222092 55.9666284,30.4489075 55.9047923,30.6644807 C55.7235988,31.2911692 55.7514011,33.1078026 55.9512891,33.7301987 C56.0390098,34.0039576 56.110912,34.2691316 56.110912,34.3196864 C56.110912,34.3702412 56.1828143,34.5519522 56.2710141,34.7236477 C56.3587347,34.8953432 56.430637,35.1004239 56.430637,35.1800715 C56.430637,35.2597191 56.4814478,35.344136 56.5432839,35.3679826 C56.6051196,35.3913523 56.7014685,35.5244163 56.7570729,35.6632035 C56.8721168,35.9507934 56.8841003,35.9655783 57.5820311,36.6814529 C58.1754637,37.290018 58.5800337,37.5881004 59.3067251,37.9524763 C59.5924163,38.0955559 59.8680414,38.2538973 59.9198109,38.3044521 C59.9711013,38.3550068 60.200709,38.4184387 60.4298372,38.4451469 C60.6589659,38.4723321 60.904392,38.5433949 60.9753352,38.6034883 C61.5989671,39.130498 66.9235645,39.1328827 67.7585889,38.6063499 C67.8597314,38.542918 68.1190585,38.4699474 68.3352445,38.44467 C68.5701249,38.417008 68.7829556,38.3383142 68.8634862,38.2500818 C68.937785,38.1685265 69.0590598,38.101756 69.1328794,38.101756 C69.2853123,38.101756 70.2267518,37.6501016 70.2914636,37.5461304 C70.3144725,37.5089297 70.4410204,37.4545595 70.5723618,37.4259436 C70.7037027,37.3973277 70.811077,37.3439113 70.811077,37.3076645 C70.811077,37.2709407 70.9999401,37.1068762 71.2305062,36.9423347 C71.4610726,36.7782701 71.931313,36.3547546 72.2754851,36.0018251 C72.9916308,35.2663961 72.9849199,35.274504 73.3947625,34.6592619 C73.7470833,34.1293906 73.8405562,34.1222366 74.00689,34.6101379 C74.0725605,34.8037722 74.1669921,35.0336534 74.2158855,35.1209319 C74.2652585,35.2086874 74.3314085,35.4233067 74.3630457,35.5978638 C74.3946824,35.7728978 74.4579564,35.9612859 74.5039737,36.016133 C74.5840251,36.1129502 74.7604251,36.4143711 74.9794872,36.8302557 C75.037488,36.9394731 75.173623,37.1001991 75.2824351,37.1879546 C75.6074331,37.4488363 76.1184177,37.7807809 76.1975105,37.7826886 C76.2377756,37.7831655 76.3302897,37.8375358 76.4031507,37.9028754 C76.4755321,37.9682151 76.7123299,38.0445242 76.9285158,38.0721862 C77.1451813,38.0998483 77.4342283,38.1895115 77.5713214,38.2710668 C77.7913422,38.4027 77.997462,38.4198696 79.3453884,38.4198696 L80.8701944,38.4198696 L81.0839838,38.2071579 L81.2972936,37.9944463 L80.8519794,37.5885773 C79.8170671,36.6452061 79.894242,37.4340514 79.760504,26.4169256 C79.6699073,18.9333879 79.614303,17.4391604 79.402431,16.7666865 C79.3348431,16.5520672 79.2797179,16.3054934 79.2797179,16.2186918 C79.2797179,16.1318902 79.209733,15.9144093 79.1248885,15.734606 C79.0395644,15.5548027 78.9480089,15.2738898 78.9216448,15.1098253 C78.8948016,14.9457607 78.8435112,14.8117429 78.8070809,14.8117429 C78.7711298,14.8117429 78.665673,14.6419551 78.5731588,14.4340128 C78.3708743,13.9818815 78.3023272,13.873141 77.8589305,13.3036844 C77.3661608,12.6712727 77.2084553,12.5053004 76.762182,12.1490323 C76.5426408,11.9739984 76.3513812,11.8042106 76.3370006,11.7713023 C76.322141,11.738394 76.2646188,11.7116858 76.2085353,11.7116858 C76.152931,11.7116858 76.0100852,11.6224996 75.8916861,11.5128052 C75.7732874,11.4035879 75.611747,11.3144016 75.5331339,11.3144016 C75.4540415,11.3144016 75.3246175,11.2428618 75.2450456,11.1551063 C75.1654742,11.0678279 75.0326945,10.9962881 74.9497674,10.9962881 C74.8668403,10.9962881 74.6583239,10.9247483 74.4862379,10.8374698 C74.3136727,10.7497143 74.1252887,10.6781745 74.0668083,10.6781745 C74.0083279,10.6781745 73.8280931,10.6109271 73.6660736,10.5288948 C73.5026159,10.4459087 73.0946907,10.3543378 72.7505191,10.3233372 C72.390049,10.2909059 72.0453978,10.2117352 71.9293956,10.1349491 C71.7323838,10.0042698 66.2831559,9.90029867 65.817709,10.0181008 M129.403343,10.1211869 C129.241965,10.2093914 128.862561,10.3023638 128.532666,10.3347849 C128.211339,10.3667292 127.900485,10.4406303 127.841455,10.4997512 C127.782903,10.5583952 127.639138,10.6275285 127.522033,10.6532747 C127.404927,10.6785441 127.142153,10.7681789 126.937455,10.8516157 C126.733234,10.9355291 126.497595,11.0041856 126.414288,11.0041856 C126.330981,11.0041856 126.198165,11.0757028 126.119143,11.1629537 C126.04012,11.2506815 125.905877,11.3221986 125.821142,11.3221986 C125.735931,11.3221986 125.560272,11.4113567 125.430313,11.5205396 C125.30083,11.6301993 125.126124,11.7193573 125.042341,11.7193573 C124.958081,11.7193573 124.889532,11.7489178 124.889532,11.7856299 C124.889532,11.8547632 124.15643,12.3549066 124.054557,12.3549066 C124.021711,12.3549066 123.915554,12.4354826 123.818441,12.5336995 C123.72133,12.6323932 123.469981,12.8555268 123.260047,13.0305055 C122.595019,13.5840484 121.627706,14.5953012 121.319232,15.0592093 C121.253538,15.1574262 121.119771,15.3362191 121.021707,15.4568447 C120.923642,15.5769936 120.843192,15.7109691 120.843192,15.7538794 C120.843192,15.7967897 120.784163,15.88118 120.711805,15.9412544 C120.639447,16.000852 120.529958,16.1572362 120.468548,16.2883511 C120.406663,16.4194659 120.270516,16.669776 120.165311,16.8447547 C119.94062,17.2185511 119.811613,17.4984216 119.811613,17.6123723 C119.811613,17.6571898 119.740207,17.7844903 119.653092,17.8960571 C119.565977,18.0071471 119.494571,18.1697295 119.494571,18.2574572 C119.494571,18.3447082 119.426021,18.5635507 119.342238,18.7432972 C119.108502,19.244871 118.937604,19.8079495 118.829543,20.4339632 C118.775274,20.7472083 118.67959,21.0656982 118.616753,21.1415064 C118.43205,21.36464 118.448711,27.2533639 118.635318,27.5327576 C118.708152,27.6419405 118.792888,27.9456501 118.82383,28.2078797 C118.854773,28.4701094 118.924275,28.7742958 118.978067,28.8834786 C119.032336,28.9926615 119.099457,29.2091201 119.127544,29.3645508 C119.15563,29.5199815 119.24941,29.7869789 119.336525,29.9576666 C119.423165,30.1283542 119.494571,30.3686519 119.494571,30.4921382 C119.494571,30.618962 119.546459,30.7362502 119.614532,30.7624731 C119.680702,30.7877425 119.774006,30.9641516 119.82161,31.154864 C119.86969,31.3450997 119.958234,31.5420103 120.019167,31.5925491 C120.079624,31.6430879 120.129132,31.7284317 120.129132,31.7827848 C120.129132,31.8371378 120.198158,31.969683 120.282893,32.0774356 C120.367628,32.1851881 120.460456,32.3687488 120.48997,32.4855602 C120.519009,32.6023716 120.573753,32.6977278 120.611836,32.6977278 C120.649444,32.6977278 120.740367,32.8135856 120.813678,32.9556664 C121.280196,33.8591667 123.346686,35.9665393 124.433485,36.646906 C124.684358,36.803767 124.889532,36.963012 124.889532,37.0002009 C124.889532,37.0378666 124.956177,37.0683806 125.03758,37.0683806 C125.118983,37.0683806 125.27084,37.1341764 125.374617,37.2142756 C125.625014,37.4078488 126.834155,37.98237 127.209275,38.0853548 C127.37208,38.130649 127.556784,38.2183767 127.619621,38.2813118 C127.681982,38.3437702 127.950945,38.418148 128.216575,38.4458013 C128.482681,38.4734546 128.77973,38.5464021 128.877319,38.6074301 C129.712292,39.1304591 135.389545,39.1309358 136.336865,38.6083837 C136.458255,38.5411575 136.751496,38.4663029 136.98904,38.4419871 C137.265143,38.4133802 137.468412,38.3442469 137.554099,38.2493675 C137.627885,38.1678379 137.754988,38.1010886 137.837343,38.1010886 C137.962542,38.1010886 138.625665,37.8131127 139.091232,37.5566045 C139.437789,37.365892 139.707228,37.2214274 139.884791,37.1313157 C139.993804,37.0760091 140.119002,36.9920956 140.162322,36.9448943 C140.206118,36.8981697 140.454611,36.7189 140.714529,36.546782 C141.369083,36.1138647 143.053313,34.4155703 143.283716,33.9569068 C143.558391,33.4090853 143.212786,32.9780751 142.715325,33.2479332 C142.620592,33.2994256 142.423988,33.4043175 142.278796,33.481556 C142.13408,33.5583178 141.991268,33.6593954 141.961753,33.7065967 C141.932239,33.753798 141.782762,33.8491543 141.630429,33.9187643 C141.33576,34.0532166 141.155341,34.1609692 140.846868,34.3864866 C140.742139,34.4627716 140.595043,34.52523 140.519352,34.52523 C140.444138,34.52523 140.295137,34.5938864 140.18898,34.6777999 C140.082347,34.7617134 139.855276,34.8565928 139.683902,34.8885372 C139.512528,34.9209583 139.264511,35.0129771 139.132647,35.0935531 C139.000785,35.1741291 138.793231,35.2399249 138.670889,35.2404017 C138.548547,35.2404017 138.342421,35.2957083 138.212462,35.3629344 C137.527441,35.7176596 133.713884,35.7190899 132.662312,35.3648415 C132.467612,35.2990458 132.211978,35.2260982 132.095349,35.2032128 C131.978243,35.1798505 131.833527,35.1116707 131.77307,35.0511196 C131.713088,34.9910451 131.516484,34.9166673 131.336541,34.88663 C131.156122,34.856116 130.929527,34.7621902 130.832891,34.6782767 C130.736255,34.5943632 130.595823,34.52523 130.521085,34.52523 C130.446346,34.52523 130.299726,34.4627716 130.195473,34.3864866 C129.946504,34.2043562 129.75466,34.0856377 129.391918,33.8887271 C129.228636,33.8000458 129.094393,33.6913397 129.094393,33.6469991 C129.094393,33.6031352 129.032031,33.5444911 128.955865,33.5168378 C128.72927,33.4348315 127.031711,31.8581162 127.031711,31.7293853 C127.031711,31.666927 126.930315,31.5367657 126.592803,31.1663068 C126.504259,31.0690434 126.387154,30.8997861 126.331933,30.7906032 C126.16389,30.4563796 126.031551,30.2418281 125.903497,30.0959331 C125.835899,30.0191713 125.75402,29.8670781 125.721174,29.7574185 C125.688327,29.6482356 125.594547,29.4737337 125.513144,29.3693186 C125.432217,29.2653803 125.365572,29.1042283 125.365096,29.0117327 C125.36462,28.9192372 125.293689,28.73663 125.20705,28.6055152 C125.120411,28.4744004 125.047577,28.3132484 125.046149,28.2479294 C125.044245,28.1821336 124.973791,27.9856997 124.889532,27.8107211 C124.805273,27.6357424 124.734819,27.392584 124.733391,27.2700512 C124.731962,27.1475185 124.663413,26.8972084 124.581058,26.7136476 C124.484422,26.4995729 124.41016,26.0847733 124.373028,25.5526855 C124.341134,25.0978363 124.267347,24.6110428 124.20927,24.4718227 C124.061698,24.1180511 123.979819,22.8593488 124.086452,22.5861532 L124.171664,22.3673107 L133.80814,22.3673107 C139.393994,22.3673107 143.524592,22.3372735 143.634558,22.2953168 C143.881622,22.2009141 144.063946,21.1581937 143.978735,20.3266874 C143.948268,20.0286992 143.891143,19.4374905 143.851632,19.0126785 C143.812121,18.5883433 143.728338,18.1592403 143.665976,18.0591163 C143.603615,17.959469 143.527925,17.7382426 143.497934,17.5680316 C143.467944,17.3978208 143.396062,17.1832693 143.337985,17.0912505 C143.279908,16.9992318 143.208978,16.8104264 143.179939,16.6716831 C143.151377,16.532463 143.077115,16.3770324 143.015706,16.32554 C142.954297,16.2745244 142.88051,16.1086046 142.851948,15.9565114 C142.823862,15.8044182 142.752932,15.6618606 142.695331,15.6394519 C142.637254,15.6170432 142.549663,15.4768695 142.50063,15.3281138 C142.451598,15.1788813 142.387333,15.0563486 142.357818,15.055395 C142.32878,15.0544415 142.197393,14.8713575 142.066482,14.6482239 C141.935571,14.4250903 141.748487,14.1690589 141.649947,14.079424 C141.551883,13.9893124 141.471432,13.8910954 141.471432,13.8610582 C141.471432,13.7728537 140.377968,12.6729196 140.290377,12.6729196 C140.246105,12.6729196 140.178507,12.6166595 140.139948,12.548003 C140.101865,12.4793465 139.996184,12.3806528 139.905737,12.3291604 C139.815289,12.2781448 139.439217,12.0302186 139.070286,11.778955 C138.701355,11.5276913 138.34861,11.3221986 138.287201,11.3221986 C138.225316,11.3221986 138.086312,11.2592635 137.978251,11.1829786 C137.788787,11.0485263 137.617413,10.9727181 137.028551,10.7634111 C136.875742,10.7090581 136.590118,10.5993984 136.39399,10.5192992 C136.197385,10.4391999 135.794179,10.3505187 135.49713,10.3219118 C135.16295,10.2894907 134.908745,10.2203574 134.82877,10.1402582 C134.609792,9.92093886 129.801788,9.90377474 129.403343,10.1211869 M133.374191,11.0027807 C133.654351,11.0913637 133.957136,11.1643717 134.048115,11.1648584 C134.138614,11.1653451 134.335015,11.257335 134.484723,11.3687938 C134.63443,11.4802526 134.81639,11.5717559 134.889078,11.5717559 C134.962246,11.5717559 135.098957,11.6355161 135.192825,11.7133912 C135.287174,11.7917531 135.52738,11.9786534 135.72667,12.128563 C135.925959,12.2789593 136.089145,12.4342228 136.089145,12.4731603 C136.089145,12.5125846 136.128136,12.5451949 136.175792,12.5451949 C136.277362,12.5451949 136.731299,12.9881096 136.731299,13.0869137 C136.731299,13.1243911 136.803505,13.2003193 136.891596,13.256292 C136.979688,13.311778 137.051894,13.4081485 137.051894,13.4699619 C137.051894,13.5317753 137.104846,13.6028363 137.169831,13.6281457 C137.234817,13.6529684 137.343608,13.7941171 137.412444,13.9406196 C137.480799,14.0876089 137.662277,14.4438876 137.815836,14.7325122 C137.969395,15.0211369 138.095034,15.307328 138.095034,15.3686546 C138.095034,15.4299813 138.16724,15.5730768 138.255331,15.6864825 C138.351125,15.8091358 138.41611,16.0155049 138.41611,16.1960778 C138.41611,16.3630226 138.485428,16.658948 138.570151,16.8541225 C138.752592,17.2741614 138.868603,18.8039208 138.780993,19.6308573 C138.697233,20.4232366 138.1812,20.9810172 137.529418,20.982964 C137.288731,20.9834508 136.947917,21.0365031 136.771253,21.1007501 C136.437179,21.22243 124.823049,21.2895973 124.389811,21.1722979 C124.12313,21.0997767 124.036964,20.8096919 124.169342,20.4300507 C124.229513,20.2582387 124.305089,19.757891 124.337823,19.3174099 C124.373926,18.8302037 124.455278,18.3887491 124.545296,18.187734 C124.626648,18.0066743 124.695484,17.748713 124.697891,17.6148651 C124.700298,17.4810172 124.772023,17.2254895 124.857226,17.0473502 C124.94243,16.8687241 125.013673,16.667709 125.015599,16.6010284 C125.017043,16.5338611 125.090693,16.3698366 125.178303,16.2359888 C125.265913,16.1021409 125.337638,15.9176742 125.33812,15.8256842 C125.338601,15.734181 125.4291,15.5355994 125.539334,15.3842297 C125.649569,15.2328599 125.739586,15.0644549 125.739586,15.0099424 C125.739586,14.6468496 127.332937,12.6556802 127.986162,12.2025443 C128.096398,12.1261294 128.333234,11.9586979 128.511824,11.8302039 C128.690895,11.7021967 128.935434,11.5722426 129.055777,11.5415793 C129.17564,11.5114026 129.345084,11.4140588 129.432212,11.3259625 C129.519342,11.2378663 129.673381,11.1658318 129.77447,11.1658318 C129.875559,11.1658318 130.155237,11.094284 130.395925,11.0066745 C131.027007,10.7774296 132.656461,10.774996 133.374191,11.0027807 M163.514365,12.2636578 C163.613634,12.3322114 163.746315,12.3887802 163.80975,12.3887802 C164.34241,12.3887802 166.59653,14.6079061 166.773761,15.3068661 C166.801363,15.4156891 166.85705,15.5048568 166.897241,15.5048568 C166.937917,15.5048568 167.011521,15.6036124 167.061397,15.7244204 C167.16454,15.975624 167.360656,16.4185863 167.605679,16.9516751 C167.698653,17.1539804 167.774678,17.42436 167.774678,17.5518794 C167.774678,17.6798782 167.847798,17.9195764 167.937381,18.0849682 C168.035197,18.2652213 168.127202,18.6501766 168.167878,19.046158 C168.205164,19.4095404 168.280221,19.7892224 168.334939,19.890375 C168.438566,20.0821336 168.542193,21.2168648 168.634198,23.1612966 C168.698117,24.5165503 168.539287,27.4101869 168.36593,28.0487429 C168.300559,28.2903587 168.212912,28.809545 168.170783,29.20265 C168.127686,29.610137 168.04585,29.9706431 167.979994,30.0425525 C167.917044,30.1115856 167.828428,30.3925119 167.783879,30.6667266 C167.739329,30.9409414 167.646355,31.2453581 167.577594,31.3426756 C167.508348,31.4404724 167.451692,31.5756622 167.451692,31.6432571 C167.451692,31.7113314 167.379057,31.900693 167.290441,32.0646465 C167.201826,32.2286001 167.129191,32.4155647 167.129191,32.4798038 C167.129191,32.544043 167.05946,32.661495 166.974235,32.7401161 C166.889009,32.8182577 166.795067,32.9788555 166.765045,33.096787 C166.735506,33.2142391 166.641565,33.3724399 166.556823,33.4486639 C166.472082,33.5244086 166.402836,33.6188497 166.402836,33.6576808 C166.402836,33.915596 165.136073,35.2905049 164.67508,35.5330795 C164.546273,35.6006744 164.401002,35.6888833 164.352095,35.7286732 C163.912892,36.0901381 163.22576,36.3864051 162.488268,36.532621 C162.266488,36.5767254 161.908153,36.6634962 161.692183,36.7253383 C161.194388,36.8677191 160.461254,36.8696366 160.057401,36.7291735 C159.885013,36.6692489 159.536362,36.5949425 159.281654,36.5637817 C159.026946,36.532621 158.797902,36.4736552 158.772238,36.4329065 C158.747057,36.3916784 158.566921,36.3188102 158.372742,36.2703911 C158.178079,36.2219721 157.956783,36.1141079 157.880758,36.030693 C157.804248,35.947278 157.705949,35.8792037 157.661883,35.8792037 C157.244471,35.8792037 155.163707,33.9093639 154.989866,33.3494289 C154.960328,33.2549878 154.883334,33.1571909 154.818447,33.1322623 C154.753559,33.1078131 154.700293,33.0373418 154.700293,32.9759791 C154.700293,32.9146164 154.632499,32.7784678 154.550179,32.6739594 C154.467375,32.5689715 154.37198,32.3935125 154.338568,32.2837307 C154.305156,32.1739489 154.225741,32.025336 154.16279,31.953906 C154.099355,31.8824759 154.025751,31.6844852 153.999602,31.5142995 C153.972969,31.3441137 153.888712,31.1451643 153.812687,31.0727754 C153.736662,30.9999072 153.649015,30.7860963 153.618993,30.5972142 C153.588486,30.408332 153.52844,30.2122589 153.485343,30.1609635 C153.44273,30.1101474 153.369611,29.8565468 153.323124,29.5981521 C153.276637,29.339278 153.190443,29.0195206 153.131366,28.8876866 C153.07229,28.7558526 152.999654,28.2524864 152.969147,27.7692548 C152.939125,27.2860233 152.857773,26.7284852 152.789011,26.5309739 C152.60258,25.99405 152.601612,23.0409682 152.787558,22.2164064 C152.862131,21.8865816 152.956557,21.2111121 152.997717,20.7144574 C153.038877,20.2182821 153.107639,19.7686083 153.150736,19.7158747 C153.193833,19.6626618 153.254362,19.4579595 153.284385,19.2599688 C153.314892,19.061978 153.409802,18.6933222 153.495512,18.4406803 C153.581222,18.1880384 153.650952,17.9224528 153.650952,17.8510228 C153.650952,17.7791133 153.719229,17.6084482 153.802518,17.4718202 C153.886291,17.3347128 153.977812,17.0911795 154.006382,16.9310611 C154.035436,16.7704633 154.11243,16.5954836 154.177801,16.5417912 C154.243174,16.4880988 154.296924,16.3903019 154.296924,16.3246246 C154.296924,15.6803159 156.163655,13.3049067 157.161667,12.6797738 C157.838629,12.255508 157.881242,12.2305794 158.089948,12.1404529 C158.200838,12.0925132 158.403733,12.0009485 158.540288,11.93623 C159.22064,11.6150344 161.844233,11.6231842 162.788011,11.9496531 C163.088237,12.0536821 163.415097,12.1946246 163.514365,12.2636578 Z M73.8556048,22.587736 C74.0232031,22.7915075 73.93705,30.9571258 73.7647439,31.2032703 C73.688948,31.3113454 73.6272758,31.4684589 73.6272758,31.5527289 C73.6272758,31.6927027 73.3758786,32.2478372 72.9959578,32.9467543 C72.9145126,33.0967263 72.7935219,33.2505071 72.7276123,33.287643 C72.6612321,33.3252551 72.6061506,33.3985747 72.6052092,33.4509459 C72.6009723,33.6423387 71.2211116,34.8683003 70.8929767,34.9716143 C70.7917589,35.0039893 70.6415795,35.0977813 70.5596634,35.180623 C70.4772768,35.2639407 70.3572275,35.3315472 70.2922597,35.3315472 C70.2272915,35.3315472 70.0427453,35.4029624 69.8817382,35.4905651 C69.7202602,35.5776917 69.4909893,35.6491069 69.3714109,35.6491069 C69.2518325,35.6491069 69.0225616,35.7205221 68.8615545,35.8076487 C68.5979169,35.9504792 68.41902,35.9666667 67.0754097,35.9666667 C65.7322699,35.9666667 65.5529021,35.9504792 65.2897354,35.8076487 C65.1287278,35.7205221 64.9333536,35.6491069 64.8556744,35.6491069 C64.7243266,35.6491069 64.2770842,35.4258153 63.6641268,35.0539799 C63.2832646,34.8230707 62.6354691,34.1427215 62.5116534,33.8437297 C62.4528058,33.7018514 62.3718315,33.5861587 62.3313442,33.5861587 C62.2903863,33.5861587 62.2225935,33.46999 62.1802233,33.3281117 C62.1373822,33.1862334 62.0488754,32.9272342 61.9834367,32.7529809 C61.6595388,31.8888566 61.9132901,29.364566 62.3784222,28.8189536 C62.4372702,28.7499189 62.4862311,28.6604117 62.486702,28.6204192 C62.4899976,28.4528315 62.9753731,27.8405648 63.5158306,27.3230424 C64.2690807,26.6012724 64.3241623,26.5531861 64.5341307,26.4398739 C64.6320533,26.3870267 64.7492779,26.3122787 64.7954146,26.2737145 C65.0152697,26.0899393 65.4846387,25.8095155 65.5731456,25.8095155 C65.6272857,25.8095155 65.7915884,25.7204844 65.9380013,25.6114572 C66.0839438,25.5024299 66.2515416,25.4129229 66.3103896,25.4129229 C66.3687663,25.4129229 66.5471926,25.343412 66.7067874,25.2586659 C67.3574075,24.9125401 67.6780099,24.7782794 67.8521989,24.7782794 C67.9529461,24.7782794 68.1210153,24.7101969 68.2255286,24.6268791 C68.3300423,24.5435613 68.5908553,24.4497693 68.8050606,24.4188227 C69.0187956,24.3874 69.2504202,24.312176 69.319154,24.2517111 C69.3878883,24.1907701 69.6505845,24.0865038 69.903394,24.0203257 C70.155733,23.9536715 70.3995977,23.8698776 70.4447929,23.83417 C70.4904586,23.7984623 70.649112,23.7456151 70.7974082,23.717049 C70.9457044,23.6884829 71.1222476,23.6170677 71.1895691,23.557555 C71.2573615,23.4985184 71.4612101,23.430912 71.6434026,23.408059 C71.8251241,23.3847301 72.0685182,23.290462 72.1833887,23.1990505 C72.2987305,23.1071629 72.4696239,23.0324149 72.5628386,23.0324149 C72.6565243,23.0324149 72.7756321,22.9890897 72.8283595,22.9357663 C73.1263642,22.634394 73.7270816,22.4306225 73.8556048,22.587736" id="path0"></path>
        </g>
    </g>
</svg>