<?xml version="1.0" encoding="UTF-8"?>
<svg width="207px" height="32px" viewBox="0 0 207 32" version="1.1" xmlns="http://www.w3.org/2000/svg" xmlns:xlink="http://www.w3.org/1999/xlink">
    <title>logo-metrifi</title>
    <g id="Page-1" stroke="none" stroke-width="1" fill="none" fill-rule="evenodd">
        <g id="logo-metrifi" transform="translate(0, 0)" fill="#000000" fill-rule="nonzero">
            <g id="Group" transform="translate(69.4938, 0)">
                <path d="M0,31.373 L0,7.81492926e-16 L7.171,7.81492926e-16 L15.507,28.997 L16.09,28.997 L24.426,7.81492926e-16 L31.597,7.81492926e-16 L31.597,31.373 L27.966,31.373 L27.966,2.465 L27.339,2.465 L19.048,31.373 L12.549,31.373 L4.258,2.465 L3.63,2.465 L3.63,31.373 L0,31.373 Z M48.139,32 C45.928,32 43.986,31.53 42.313,30.589 C40.6593917,29.6681362 39.3055661,28.2910526 38.413,26.622 C37.487,24.919 37.024,22.947 37.024,20.706 L37.024,20.169 C37.024,17.898 37.487,15.911 38.414,14.208 C39.34,12.505 40.624,11.183 42.268,10.241 C43.911,9.301 45.794,8.83 47.915,8.83 C49.977,8.83 51.799,9.27 53.383,10.152 C54.966,11.033 56.206,12.296 57.103,13.939 C57.999,15.582 58.447,17.509 58.447,19.72 L58.447,21.334 L40.565,21.334 C40.655,23.694 41.416,25.539 42.851,26.869 C44.285,28.199 46.077,28.863 48.229,28.863 C50.111,28.863 51.56,28.43 52.576,27.563 C53.57425,26.719667 54.370486,25.6630312 54.906,24.471 L57.954,25.951 C57.506,26.876 56.886,27.803 56.094,28.729 C55.302,29.655 54.272,30.432 53.002,31.059 C51.732,31.687 50.111,32 48.139,32 Z M40.609,18.42 L54.862,18.42 C54.742,16.389 54.048,14.805 52.778,13.67 C51.508,12.535 49.887,11.967 47.915,11.967 C45.913,11.967 44.27,12.535 42.985,13.67 C41.7,14.805 40.908,16.389 40.61,18.42 L40.609,18.42 Z M70.999,31.373 C69.744,31.373 68.78,31.029 68.108,30.343 C67.436,29.655 67.099,28.713 67.099,27.519 L67.099,12.549 L60.511,12.549 L60.511,9.458 L67.099,9.458 L67.099,1.659 L70.64,1.659 L70.64,9.457 L77.81,9.457 L77.81,12.55 L70.64,12.55 L70.64,26.98 C70.64,27.877 71.073,28.325 71.94,28.325 L76.825,28.325 L76.825,31.373 L70.999,31.373 L70.999,31.373 Z M82.759,31.373 L82.759,9.457 L86.209,9.457 L86.209,12.147 L86.837,12.147 C87.226,11.19 87.823,10.487 88.63,10.04 C89.437,9.592 90.497,9.367 91.812,9.367 L94.412,9.367 L94.412,12.594 L91.588,12.594 C90.004,12.594 88.728,13.035 87.756,13.916 C86.786,14.798 86.3,16.165 86.3,18.017 L86.3,31.373 L82.759,31.373 L82.759,31.373 Z M98.847,31.373 L98.847,9.457 L102.387,9.457 L102.387,31.373 L98.847,31.373 Z M100.64,6.051 C99.863,6.051 99.213,5.797 98.69,5.289 C98.168,4.781 97.906,4.139 97.906,3.362 C97.906,2.555 98.168,1.898 98.69,1.39 C99.213,0.882 99.863,0.628 100.64,0.628 C101.417,0.628 102.06,0.882 102.567,1.39 C103.075,1.898 103.329,2.555 103.329,3.362 C103.329,4.139 103.075,4.782 102.567,5.289 C102.059,5.797 101.417,6.051 100.64,6.051 Z M108.879,31.373 L108.879,7.81492926e-16 L127.837,7.81492926e-16 L127.837,3.406 L112.644,3.406 L112.644,13.938 L126.627,13.938 L126.627,17.345 L112.644,17.345 L112.644,31.373 L108.879,31.373 Z M132.4,31.373 L132.4,9.457 L135.942,9.457 L135.942,31.373 L132.401,31.373 L132.4,31.373 Z M134.194,6.051 C133.417,6.051 132.767,5.797 132.244,5.289 C131.721,4.781 131.46,4.139 131.46,3.362 C131.46,2.555 131.721,1.898 132.244,1.39 C132.767,0.882 133.417,0.628 134.194,0.628 C134.971,0.628 135.613,0.882 136.121,1.39 C136.629,1.898 136.883,2.555 136.883,3.362 C136.883,4.139 136.629,4.782 136.121,5.289 C135.613,5.797 134.971,6.051 134.194,6.051 Z" id="Shape"></path>
            </g>
            <g id="Group" transform="translate(-0, 0.0006)">
                <path d="M31.2538424,0.908416027 C32.3758424,-0.113583973 33.8158424,-0.0445839734 34.8278424,1.04941603 C35.1238424,1.36941603 35.3498424,1.71941603 35.5688424,2.05741603 L41.3788424,11.009416 L51.8778424,27.186416 C51.9268424,27.262416 51.9758424,27.335416 52.0278424,27.409416 C52.1798424,27.633416 52.3378424,27.865416 52.4648424,28.135416 C52.6648424,28.563416 52.7818424,28.941416 52.8248424,29.292416 C52.9285762,30.0524792 52.6451946,30.8140437 52.0698424,31.321416 L51.5498424,31.658416 L51.4728424,31.692416 C50.5488424,32.078416 49.6688424,31.966416 48.9798424,31.379416 L48.9068424,31.315416 C48.5808424,31.013416 48.2668424,30.629416 47.9468424,30.139416 C45.6818424,26.659416 43.4238424,23.177416 41.1648424,19.694416 L38.2378424,15.182416 C36.5578424,12.595416 34.8808424,10.009416 33.1978424,7.42641603 C33.1033732,7.28529099 33.0026048,7.1484861 32.8958424,7.01641603 C32.8370099,7.07616813 32.7840967,7.14147238 32.7378424,7.21141603 L31.3178424,9.27141603 C29.9291126,11.2840629 28.5394457,13.2960631 27.1488424,15.307416 C23.7818424,20.173416 20.4158424,25.037416 17.0448424,29.897416 C16.8291346,30.2187122 16.5793525,30.5157684 16.2998424,30.783416 C16.1965985,30.8805971 16.0848138,30.9682844 15.9658424,31.045416 C15.1298424,31.588416 14.0028424,31.561416 13.2248424,30.979416 C12.3319887,30.3206534 12.0154086,29.1307775 12.4628424,28.115416 C12.6738424,27.634416 12.9588424,27.195416 13.2098424,26.829416 C15.9791875,22.8123288 18.7525222,18.7979935 21.5298424,14.786416 C23.5998424,11.791416 25.6738424,8.79641603 27.7478424,5.80241603 L30.2478424,2.19041603 C30.4038424,1.96141603 30.5618424,1.73141603 30.7308424,1.50741603 M19.0058424,0.736416027 C19.6218424,0.141416027 20.4608424,-0.116583973 21.2198424,0.0494160266 C21.8468424,0.189416027 22.3958424,0.593416027 22.7668424,1.18941603 C23.2348424,1.93841603 23.2638424,2.74641603 22.8508424,3.52641603 C22.7018424,3.81041603 22.5308424,4.07641603 22.3568424,4.33441603 L18.7228424,9.60041603 L13.0798424,17.767416 C10.3998424,21.642416 7.71884243,25.519416 5.03484243,29.394416 C4.75858353,29.7879968 4.46149343,30.1665363 4.14484243,30.528416 C4.01327059,30.68074 3.8611456,30.8140177 3.69284243,30.924416 C3.31884243,31.167416 2.86884243,31.288416 2.35284243,31.2817033 C1.66873579,31.274994 1.02038645,30.9748592 0.572842431,30.457416 L0.218842431,29.911416 C-0.0349739725,29.3722201 -0.0693951152,28.755508 0.122842431,28.191416 C0.292842431,27.680416 0.583842431,27.219416 0.846842431,26.837416 L4.17384243,22.008416 L13.6978424,8.22441603 L18.0278424,1.96741603 C18.3018424,1.56741603 18.6128424,1.11541603 19.0058424,0.736416027 Z" id="Shape"></path>
                <path d="M34.2438424,18.550416 C33.7998424,18.086416 33.2088424,17.823416 32.5238424,17.790416 C32.0638424,17.794416 31.6148424,17.930416 31.2238424,18.185416 C30.5524356,18.6107372 30.1384087,19.3438239 30.1208424,20.138416 C30.1118424,20.705416 30.2578424,21.220416 30.5528424,21.670416 C30.7228424,21.932416 30.8928424,22.198416 31.0648424,22.468416 C31.2048424,22.686416 31.3418424,22.904416 31.4828424,23.121416 L32.6468424,24.916416 C33.7628424,26.638416 34.8788424,28.359416 36.0068424,30.077416 C36.3958424,30.670416 36.7328424,31.087416 37.0988424,31.430416 C37.8268424,32.114416 39.0438424,32.196416 39.9638424,31.599416 L39.9688424,31.595416 C40.9088424,30.956416 41.2908424,29.767416 40.8788424,28.765416 C40.6972696,28.3443208 40.4776947,27.9406511 40.2228424,27.559416 C38.4718424,24.850416 36.7128424,22.148416 34.9488424,19.447416 C34.7409153,19.1280956 34.5049848,18.8279117 34.2438424,18.550416" id="Path"></path>
            </g>
        </g>
    </g>
</svg>